<?xml version="1.0" encoding="UTF-8" standalone="no"?>
<svg width="60" height="60" version="1.1" xmlns="http://www.w3.org/2000/svg" xmlns:svg="http://www.w3.org/2000/svg" xmlns:xlink="http://www.w3.org/1999/xlink">
	<!--
		Name:		Foxhole_1S
		Version:	0.1

		Author(s): Gordon Molek, Klas Malmström, Alan Bills
		Tester(s): Alan Bills, Alan Cannamore, Doug Rimmer
		Counter data scraped with permission from: https://www.klasm.com/ASL/Listings/OrdnanceListings.html
	-->

	<svg x="0.00" y="0.00" width="60.00" height="60.00" viewBox="0 0 2000 2000">
		<path style="fill:#000000" d="m 1171.0053,1119.1065 c -4.6761,-1.3011 -3.5826,-5.7224 2.1482,-8.6859 l 2.7992,-1.4475 2.5236,4.9802 c 1.3881,2.7391 2.5237,5.2202 2.5237,5.5135 0,0.7366 -6.9533,0.486 -9.9947,-0.3603 z m -159.5001,-5.0981 c -0.6753,-1.0926 3.7831,-6.0084 5.4493,-6.0084 1.5186,0 1.2812,2.2185 -0.5112,4.7775 -1.6373,2.3376 -3.9048,2.9028 -4.9381,1.2309 z m -183.47802,-6.1943 c -1.11175,-1.8228 -2.30571,-4.819 -2.65324,-6.6583 l -0.63187,-3.3442 1.31807,-3.9938 1.31807,-3.9938 4.39005,-3.5973 4.39005,-3.5973 2.82061,-5.5647 c 1.55134,-3.0606 3.9658,-6.6322 5.36548,-7.937 l 2.54487,-2.3723 2.30537,0.5789 c 1.26795,0.3183 3.19744,1.2313 4.28777,2.0288 l 1.9824,1.4499 -1.2324,4.6079 c -0.67783,2.5343 -1.23241,5.4252 -1.23241,6.4243 0,0.9991 -1.60361,3.1301 -3.56359,4.7356 -12.33354,10.1032 -12.23251,9.96 -13.32169,18.8831 L 835.5,1110.5 l -2.72573,0.3141 -2.72573,0.3141 z M 1020,1105.4648 c 0,-0.2943 0.7268,-1.6443 1.615,-3 1.7989,-2.7454 4.8641,-3.2645 5.7436,-0.9727 l 0.5726,1.4921 -2.916,1.5079 c -2.9733,1.5376 -5.0152,1.9336 -5.0152,0.9727 z m -13.4743,-10.4151 c -0.8391,-1.6227 -1.5257,-4.7401 -1.5257,-6.9275 v -3.977 l 2.6625,-2.0943 c 3.7111,-2.9192 5.4679,-3.1596 16.8375,-2.3037 l 10,0.7528 -0.3219,1.8723 c -0.1771,1.0298 -1.9489,4.0516 -3.9374,6.7151 l -3.6155,4.8428 -5.5626,-0.5699 -5.5626,-0.57 -2.4243,2.6049 c -3.1348,3.3682 -4.6715,3.2871 -6.55,-0.3455 z M 701,1084.118 c 0,-0.55 0.45,-1.2781 1,-1.618 0.55,-0.3399 1,-0.168 1,0.382 0,0.55 -0.45,1.2781 -1,1.618 -0.55,0.3399 -1,0.168 -1,-0.382 z m 218.05769,-0.062 -1.44231,-0.9116 v -4.9734 -4.9733 l 3.44231,-5.0356 3.44231,-5.0356 1.3267,1.2992 c 0.72969,0.7146 1.56343,3.0642 1.85277,5.2213 l 0.52606,3.9221 -2.91934,5.4043 c -3.13536,5.8043 -3.98702,6.4993 -6.2285,5.0826 z m 422.04981,-0.9683 -1.3925,-0.8818 0.6716,-5.0622 0.6715,-5.0622 -2.9729,-1.5373 -2.9728,-1.5373 -2.4591,0.9349 c -1.3524,0.5142 -2.7543,1.4127 -3.1152,1.9966 -1.1269,1.8234 -5.3658,1.163 -7.5443,-1.1753 l -2.084,-2.237 0.2951,-4.513 0.2951,-4.513 2.5,0.2345 c 1.375,0.129 4.3,0.503 6.5,0.831 l 4,0.5965 2.4243,-2.581 c 2.7749,-2.9542 6.2038,-3.3393 8.2033,-0.9212 l 1.3724,1.6597 0.098,8.5903 c 0.054,4.7246 0.4529,9.8756 0.8869,11.4466 l 0.7891,2.8563 -1.3869,0.8784 c -1.7547,1.1112 -3.0205,1.1103 -4.7794,-0 z m -708.71094,-3.6809 -1.60789,-3.8482 0.60433,-4.4091 c 0.33238,-2.4249 1.45017,-5.8131 2.48398,-7.5292 1.03381,-1.7161 2.18362,-4.828 2.55513,-6.9154 l 0.67548,-3.7952 2.48089,-0.9432 c 1.36449,-0.5188 2.80279,-0.8952 3.19621,-0.8364 0.39342,0.059 1.49768,0.054 2.45391,-0.012 l 1.73861,-0.1184 4.96305,-7.25 c 2.72967,-3.9875 6.41638,-9.3513 8.19268,-11.9195 l 3.22964,-4.6695 3.75681,-1.4758 c 6.52679,-2.5638 6.64516,0.8158 0.38061,10.8669 -2.475,3.971 -4.5,7.7109 -4.5,8.3109 0,0.6 -1.2375,1.8708 -2.75,2.824 -1.5125,0.9531 -4.84944,3.7276 -7.41542,6.1654 l -4.66542,4.4324 -0.61043,3.2538 -0.61042,3.2538 1.19728,2.6278 1.19729,2.6278 2.52741,0.6343 2.5274,0.6343 1.05116,-1.7922 c 2.34907,-4.0054 5.82868,-7.5244 7.44004,-7.5244 2.41077,0 4.11111,1.986 4.11111,4.8018 v 2.4018 l -6.75,6.4402 -6.75,6.4402 -5.5,-0.1804 c -3.025,-0.099 -7.4115,0.1642 -9.74777,0.5854 l -4.24778,0.7659 z m 623.32494,1.8178 -2.7785,-1.7223 -1.0382,-3.8559 c -1.0404,-3.8634 -0.6836,-6.6463 0.8521,-6.6463 0.4507,0 2.4899,1.9982 4.5313,4.4405 l 3.7118,4.4404 v 2.5596 2.5595 l -1.25,-0.027 c -0.6875,-0.015 -2.5003,-0.8016 -4.0285,-1.7489 z m -361.06977,-5.1165 -5.84827,-5.6697 0.34827,-2.4691 0.34827,-2.4692 2.12039,-0.3026 2.12039,-0.3025 1.52926,3.8025 c 0.8411,2.0914 2.92443,5.552 4.62962,7.6901 6.1742,7.7418 2.84299,7.5644 -5.24793,-0.2795 z M 683,1077.6743 v -3.3257 l 2.37219,-2.2285 2.3722,-2.2286 0.6278,1.636 c 0.3453,0.8999 0.62781,2.9334 0.62781,4.5191 v 2.883 l -1.93426,1.0352 c -1.06384,0.5694 -2.41384,1.0352 -3,1.0352 H 683 Z m 595,-2.6743 -1.1995,-5 -1.6502,0.035 c -0.9077,0.02 -2.7753,0.6786 -4.1503,1.4646 -1.375,0.786 -3.4591,1.4451 -4.6313,1.4646 l -2.1313,0.035 -1.0321,-4.25 c -0.9562,-3.9377 -0.7731,-11.9948 0.4005,-17.6249 l 0.495,-2.3749 4.0707,0.546 c 5.3033,0.7113 6.2431,1.7964 6.0121,6.9413 -0.2042,4.5489 0.088,5.2243 3.5177,8.1234 l 2.2013,1.8609 2.6835,-2.1109 c 3.0221,-2.3772 5.4421,-2.6827 7.2139,-0.9109 l 1.2,1.2 v 4.8769 4.8769 l -2.9231,2.9231 -2.9231,2.9231 h -2.9771 -2.9772 z m 76.4305,-2.4209 c -0.3342,-1.3315 -0.4491,-3.244 -0.2554,-4.25 l 0.3523,-1.8291 h 2.4863 2.4863 l 0.3223,2.8105 c 0.5835,5.0895 -4.206,7.9931 -5.3918,3.2686 z M 862.2,1068.8 c -0.66,-0.66 -1.2,-2.4805 -1.2,-4.0455 v -2.8454 l 2.45455,-2.4546 c 5.14422,-5.1442 7.54495,-2.2283 3.74242,4.5455 -3.34474,5.9583 -3.59667,6.2003 -4.99697,4.8 z m 384.7842,-9.6484 c -1.9163,-1.5724 -5.2842,-3.4701 -7.4842,-4.217 l -4,-1.3581 -4.6649,-4.5382 -4.6648,-4.5383 -0.1959,-2.5 c -0.1077,-1.375 -0.146,-3.1214 -0.085,-3.8808 l 0.1107,-1.3809 3.6629,0.5944 c 2.0146,0.327 5.2862,1.8989 7.2702,3.4933 1.984,1.5944 5.4681,3.8482 7.7425,5.0085 2.2745,1.1603 5.0995,3.3354 6.2778,4.8334 l 2.1425,2.7237 -0.298,3.9765 c -0.1638,2.187 -0.755,4.1263 -1.3137,4.3094 -0.5587,0.1832 -2.5837,-0.9535 -4.5,-2.5259 z m -515.29899,-4.6855 c -3.05684,-6.4103 -1.37967,-10.6435 1.78911,-4.5158 1.62847,3.1492 2.06126,8.0497 0.71089,8.0497 -0.44813,0 -1.57313,-1.5903 -2.5,-3.5339 z m 629.16099,0.9005 -6.6537,-2.5225 -0.5826,-2.172 c -0.8579,-3.1984 -0.706,-7.972 0.3045,-9.5678 l 0.8838,-1.3957 1.646,0.6316 c 0.9054,0.3474 2.2805,2.15 3.0559,4.0058 l 1.4098,3.374 3.0789,1.2754 c 5.2856,2.1893 9.3356,9.0782 5.2612,8.9492 -0.9625,-0.031 -4.7442,-1.1906 -8.4038,-2.578 z m -296.8731,-3.6166 c -1.0611,-2.3375 -1.9391,-4.7758 -1.9511,-5.4184 -0.012,-0.6427 -1.597,-2.1419 -3.522,-3.3316 l -3.5,-2.1631 v -1.8429 c 0,-1.0136 -1.3175,-5.1394 -2.9278,-9.1684 -1.6103,-4.0291 -3.0728,-8.6756 -3.25,-10.3256 l -0.3222,-3 h 1.9497 1.9498 l 2.3184,6.4764 2.3184,6.4765 3.6105,3.6974 c 1.9857,2.0336 4.7295,3.9783 6.0972,4.3216 l 2.4868,0.6241 -0.6154,3.077 c -0.3385,1.6924 -0.6154,5.7208 -0.6154,8.952 V 1056 h -1.0489 c -0.5769,0 -1.917,-1.9125 -2.978,-4.25 z m -394.92142,-2.1877 -1.19321,-1.4378 3.02111,-1.5622 c 3.59382,-1.8585 5.74032,-1.9863 6.72051,-0.4003 l 0.71813,1.1619 -2.26989,1.8381 c -2.72442,2.206 -5.37225,2.3575 -6.99665,0.4003 z m 330.04615,-3.7115 C 998.49402,1044.1187 998,1039.6345 998,1035.886 v -6.8156 l 1.93426,-1.0352 c 2.44534,-1.3087 12.11774,-1.3461 15.50064,-0.06 l 2.5651,0.9753 v 1.6567 c 0,0.9112 -0.9466,3.1884 -2.1036,5.0604 l -2.1036,3.4037 -4.935,2.5007 -4.935,2.5008 -0.9366,2.4636 c -1.2656,3.3287 -2.5691,3.0988 -3.88837,-0.6856 z m -119.43116,0.4825 C 879.3,1045.9667 879,1044.4943 879,1043.0615 v -2.6052 l 5.50705,-8.4782 c 3.02889,-4.6629 6.43794,-8.8996 7.57568,-9.4147 l 2.06861,-0.9366 0.90902,1.4366 c 0.49996,0.7901 0.91591,2.8585 0.92433,4.5965 l 0.0153,3.1598 -4.58722,4.3402 c -2.52297,2.387 -5.45712,6.0276 -6.52033,8.0901 -1.81356,3.5181 -3.68614,4.623 -5.22578,3.0833 z m -107.90441,-1.4065 c -4.29541,-2.5026 -4.36362,-7.3675 -0.12588,-8.9787 L 774,1035.0495 v -2.0247 c 0,-1.1137 -0.36591,-2.0248 -0.81314,-2.0248 -0.44722,0 -0.91721,-2.0106 -1.04442,-4.468 l -0.23128,-4.468 2.77422,-2.282 c 1.52582,-1.2551 5.48331,-5.1923 8.79442,-8.7493 9.96522,-10.7054 11.58251,-12.18279 23.34548,-21.32582 l 11.31281,-8.79312 1.42389,-3.70688 c 0.78314,-2.03878 2.77707,-6.26253 4.43096,-9.38611 1.65388,-3.12358 3.00706,-6.96301 3.00706,-8.53207 0,-5.18351 2.64717,-13.17763 6.35036,-19.17727 2.0073,-3.25209 3.64964,-6.99289 3.64964,-8.31289 v -2.40001 l -4.52675,-2.19926 C 829.98354,925.98967 827.45845,925 826.86196,925 h -1.08454 l 0.59476,3.25 c 0.75316,4.11555 -0.0182,5.28632 -4.7989,7.28383 l -3.85662,1.6114 -1.3354,-1.3354 c -0.73447,-0.73447 -1.81742,-4.92965 -2.40655,-9.32261 -0.58913,-4.39297 -1.52569,-9.42348 -2.08124,-11.17891 l -1.01009,-3.19169 -3.24265,-1.07017 -3.24265,-1.07018 -5.44904,1.14946 c -2.99697,0.63219 -10.10516,1.0566 -15.79597,0.94311 l -10.34692,-0.20633 -3.7899,2.50804 c -2.08444,1.37942 -5.30333,3.14398 -7.15307,3.92125 -1.84975,0.77727 -4.82568,2.78514 -6.61318,4.46192 l -3.25,3.0487 v 2.90766 c 0,1.59921 -0.60993,3.74179 -1.35539,4.76127 l -1.35539,1.85361 -1.71705,-0.65889 c -0.94438,-0.3624 -2.52732,-0.22526 -3.51765,0.30475 l -1.80059,0.96365 -1.09686,4.35605 c -0.60328,2.39582 -3.16946,7.92307 -5.70263,12.28276 -2.53318,4.3597 -4.93464,8.60172 -5.33658,9.42672 -0.40195,0.825 -2.9554,2.65567 -5.67434,4.06815 -8.97258,4.66124 -16.14867,9.77657 -19.6814,14.02952 l -3.48289,4.19294 -1.13961,-0.70432 c -1.222,-0.75524 -1.51395,-4.44722 -0.55026,-6.95855 0.32414,-0.84471 2.58913,-2.50392 5.0333,-3.68712 l 4.44395,-2.15128 4.63697,-5.37098 4.63697,-5.37099 2.24307,0.56297 2.24306,0.56298 1.98089,-1.98089 1.9809,-1.9809 0.70067,-4.35576 c 0.38537,-2.39567 1.47549,-5.70577 2.42249,-7.35577 0.947,-1.65 2.23676,-4.47934 2.86612,-6.28742 l 1.1443,-3.28741 -0.9485,-2.49474 -0.9485,-2.49474 -2.96287,1.53215 C 727.43261,933.31053 724.70403,934 722.99868,934 h -3.10065 l -3.33734,3.64291 -3.33735,3.64292 -1.11167,-2.07717 C 711.50025,938.06621 711,935.55242 711,933.62245 v -3.50904 l 2.22251,-1.55671 c 1.22237,-0.85618 3.04472,-1.5567 4.04966,-1.5567 1.00493,0 3.16077,-0.68964 4.79074,-1.53253 5.14897,-2.66264 26.72222,-18.46516 27.31418,-20.00778 0.31174,-0.81238 0.11969,-2.65307 -0.42679,-4.09041 l -0.99359,-2.61335 -5.22836,0.59488 c -2.87559,0.32719 -6.66344,0.87915 -8.41744,1.2266 l -3.18909,0.63171 -5.5044,-4.35456 c -3.02742,-2.39501 -6.65739,-5.165 -8.06659,-6.15553 -1.4092,-0.99053 -3.46878,-3.57803 -4.57683,-5.75 L 710.95935,881 l -3.22967,-0.0237 c -1.77633,-0.0131 -5.92968,-1.13597 -9.22968,-2.49536 -3.3,-1.3594 -6.77167,-2.47372 -7.71482,-2.47627 -2.05985,-0.006 -3.78518,2.91463 -3.78518,6.40658 v 2.54268 l -2.25,1.46038 -2.25,1.46038 -9,0.66986 -9,0.66986 -5.18807,2.39282 c -2.85345,1.31604 -5.82997,2.39281 -6.6145,2.39281 -0.78452,0 -2.94989,1.34281 -4.81192,2.98403 -1.86203,1.64121 -4.40629,2.99121 -5.65392,3 -1.24762,0.009 -4.60596,1.23825 -7.46298,2.73214 l -5.19457,2.71617 -6.53702,0.32974 c -3.59536,0.18136 -7.51953,0.53513 -8.72037,0.78616 l -2.18335,0.45641 -0.68158,2.24767 c -1.0891,3.59154 -4.51982,6.68893 -8.63659,7.79746 L 599,918.07709 l -3.89291,-1.04825 c -5.11567,-1.37751 -6.91317,-0.55396 -8.73638,4.00268 l -1.50901,3.77138 -2.06452,0.53989 c -1.13549,0.29694 -4.51363,0.0871 -7.50697,-0.4662 l -5.44243,-1.00609 -4.67389,1.13735 c -2.57064,0.62554 -6.02389,1.35448 -7.67389,1.61987 -1.65,0.26538 -5.7,1.78514 -9,3.37724 -7.11245,3.43143 -12.15999,5.54438 -15.25,6.38381 -1.2375,0.33618 -3.15,0.86655 -4.25,1.17862 l -2,0.56739 0.036,-1.81739 c 0.0558,-2.82151 3.99493,-6.78086 9.1907,-9.23796 5.27588,-2.49497 9.77334,-7.19885 9.77334,-10.2219 0,-3.27894 1.85102,-5.74088 5.85033,-7.78118 2.08091,-1.06159 4.39294,-2.66455 5.13786,-3.56211 0.74491,-0.89757 6.47345,-4.13062 12.73008,-7.18456 l 11.3757,-5.55261 6.70302,0.68017 c 3.68665,0.3741 8.45776,1.13471 10.60245,1.69025 l 3.89945,1.01008 4.3217,-1.65047 4.3217,-1.65048 3.55622,-5.85416 3.55621,-5.85416 5.01509,-3.60299 c 2.7583,-1.98164 5.26726,-4.26012 5.57546,-5.06329 1.06369,-2.77191 11.18727,-4.37029 18.97323,-2.99561 l 4.11851,0.72715 1.63149,-2.32929 1.6315,-2.32928 v -4.20607 -4.20606 l -1.57143,-1.57143 c -2.07302,-2.07302 -3.59613,-1.98513 -9.48262,0.54717 l -4.92481,2.11859 -2.76057,-0.71411 c -1.51831,-0.39276 -4.94599,-0.94279 -7.61706,-1.22229 l -4.85649,-0.50818 -4.31537,4.23521 -4.31536,4.23521 -2.82815,-0.70681 c -1.55548,-0.38874 -5.30314,-1.02971 -8.32814,-1.42437 -3.025,-0.39467 -6.48292,-1.26078 -7.68426,-1.92471 -1.20134,-0.66393 -4.12634,-1.20546 -6.5,-1.2034 l -4.31574,0.004 -3.27417,1.99626 L 578.95166,863 h -4.1078 -4.10779 l -3.43199,2.12108 -3.43198,2.12109 -4.68605,-0.603 c -2.57733,-0.33165 -6.17374,-0.89091 -7.99204,-1.2428 l -3.30598,-0.6398 -2.3885,2.24387 -2.3885,2.24388 -5.60016,-0.6997 -5.60017,-0.69969 -3.7509,4.10343 c -2.063,2.25688 -5.29914,4.87927 -7.19144,5.82753 -4.05274,2.0309 -5.93325,5.31869 -5.95362,10.40901 -0.0215,5.36632 -1.53004,8.51309 -4.92212,10.2672 -4.0555,2.09719 -7.42231,1.94606 -9.57231,-0.42966 l -1.78967,-1.97756 0.55988,-4.17417 0.55987,-4.17417 -2.84827,-2.84827 C 495.43557,883.28172 493.76256,882 493.28433,882 c -0.47824,0 -1.40061,1.9125 -2.04971,4.25 l -1.1802,4.25 -4.49991,4.75 -4.49991,4.75 h -1.96828 c -3.17379,0 -3.19811,-1.44715 -0.0855,-5.08743 l 2.9179,-3.41257 0.0406,-5.25 L 482,881 l -1.84614,-1.84614 -1.84614,-1.84614 -6.66536,-0.68289 -6.66536,-0.68289 -1.98985,1.06494 c -1.09442,0.58571 -3.13136,3.3176 -4.52654,6.07085 l -2.53669,5.00593 0.2338,3.96241 c 0.27293,4.62567 -0.23362,5.21182 -5.89557,6.82185 -2.33082,0.6628 -7.05582,3.3588 -10.5,5.99112 -3.44418,2.63231 -9.23039,6.44089 -12.85825,8.46349 L 420.3078,917 h -3.09488 c -4.21391,0 -4.84366,-1.54431 -1.51129,-3.70607 1.52095,-0.98666 3.53636,-2.5575 4.47868,-3.49075 0.94233,-0.93325 3.07392,-2.40041 4.73686,-3.26035 C 429.32189,904.26506 430,902.22692 430,891.26574 l 0,-9.86574 1.2,-1.2 c 0.66,-0.66 2.36298,-1.2 3.78439,-1.2 h 2.58439 l 1.71561,-2.90429 c 2.44807,-4.14426 2.14461,-5.67537 -1.41725,-7.15074 -1.72307,-0.71372 -4.42307,-2.38332 -6,-3.71021 L 429,862.82221 l 0,-6.38805 v -6.38805 l -2.44218,-1.60018 c -2.88012,-1.88713 -6.44877,-1.59206 -7.85295,0.64929 l -0.99938,1.59523 0.67956,2.70756 0.67955,2.70756 3.3784,1.9933 c 4.19907,2.47751 4.7153,3.7754 3.3156,8.33603 l -1.1095,3.61507 -2.25238,0.56531 c -3.09227,0.77611 -6.22003,-0.34989 -10.64672,-3.83283 l -3.75,-2.95051 0,-3.72888 v -3.72888 L 405,853.5 c -1.65,-1.5808 -3,-3.65932 -3,-4.61894 0,-0.95961 2.38844,-4.25042 5.30765,-7.3129 L 412.6153,836 h 4.73219 4.73219 l 3.95509,-2.01774 c 2.17531,-1.10976 7.0829,-4.70976 10.90577,-8 3.82287,-3.29024 7.53765,-5.96155 8.25507,-5.93623 0.71741,0.0253 3.89946,3.36348 7.07122,7.41814 l 5.76683,7.37211 0.0916,3.83186 c 0.0504,2.10752 -0.24607,5.12919 -0.65882,6.71482 l -0.75046,2.88297 5.5607,-0.69476 5.56069,-0.69477 3.8313,2.02312 c 6.10148,3.22189 6.42644,3.57771 7.45727,8.16562 1.23552,5.49889 2.39634,6.88904 5.31117,6.36048 1.27591,-0.23137 4.37134,0.48682 6.87874,1.59596 l 4.55892,2.01663 4.03504,-0.90662 c 2.21928,-0.49864 6.17935,-2.32694 8.80017,-4.0629 l 4.76513,-3.15629 10.84516,0.16107 10.84516,0.16107 1.09727,-1.09727 1.09726,-1.09726 -3.55316,-5.27001 c -1.95424,-2.8985 -4.04455,-6.75466 -4.64514,-8.56925 -1.13284,-3.42266 -0.59698,-8.78774 1.09267,-10.94015 l 0.97294,-1.2394 2.75232,1.62583 2.75232,1.62584 3.59895,-0.67517 c 1.97942,-0.37134 3.89784,-1.15878 4.26315,-1.74986 0.36531,-0.59108 0.9436,-4.46398 1.28508,-8.60644 l 0.62088,-7.53174 1.69146,-1.06279 1.69147,-1.06279 2.19516,1.95796 c 1.20734,1.07688 2.7728,3.30796 3.47881,4.95796 l 1.28365,3 -1.58081,1.75613 c -2.50335,2.78099 -0.71273,3.19493 4.34671,1.00483 l 4.66114,-2.01768 4.82888,1.70055 4.82887,1.70055 4.28733,-0.57219 L 582.5,826.5 l 0.3143,-2.728 0.3143,-2.728 2.6857,-2.01111 c 4.37714,-3.27772 5.1857,-4.06311 5.1857,-5.03713 0,-1.7764 -4.49086,-3.30656 -10.47277,-3.56836 l -6.02723,-0.26379 -3.96144,-2.0818 C 568.35977,806.93681 565.64739,806 564.51106,806 c -1.13632,0 -3.06618,-0.70052 -4.28855,-1.5567 L 558,802.88659 v -4.49295 c 0,-2.47113 0.68656,-5.82061 1.52568,-7.4433 L 561.05136,788 h 2.84989 c 1.56744,0 5.29631,1.08192 8.28638,2.40428 l 5.4365,2.40427 4.43793,-0.86801 c 2.44087,-0.4774 6.70078,-1.24987 9.46648,-1.7166 l 5.02855,-0.84859 2.97145,1.26722 c 4.73551,2.01953 6.2996,1.61356 10.57054,-2.74365 l 4.01987,-4.10108 2.19053,0.63774 c 1.20478,0.35076 4.49148,0.90285 7.30376,1.22687 l 5.11324,0.58913 0.81381,-1.31677 0.81381,-1.31678 -1.19809,-0.39936 C 627.46139,782.6538 625,777.56176 625,774.62086 v -2.47846 l 3.36808,-3.5712 c 3.75244,-3.97875 4.41652,-4.18041 7.16002,-2.17431 l 1.91036,1.39689 -2.30852,4.92878 c -2.69981,5.76421 -2.99971,10.8647 -1.04075,17.70044 1.70694,5.95634 3.26793,6.72088 5.38064,2.63534 0.87294,-1.68808 3.42691,-4.23061 5.6755,-5.65008 l 4.08835,-2.58086 -0.59074,-3.64025 c -0.3249,-2.00214 -1.49834,-4.7758 -2.60765,-6.1637 -1.1093,-1.3879 -2.71862,-4.09494 -3.57627,-6.01564 l -1.55935,-3.49219 1.04151,-2.28587 c 1.56182,-3.42782 3.71252,-3.74131 9.42464,-1.37377 L 656.53865,764 h 5.60823 5.60823 l 1.22755,1.47911 1.22755,1.47911 -1.1051,3.17011 C 668.4973,771.8719 668,775.63744 668,778.49621 v 5.19777 l 1.8673,2.15301 c 2.65683,3.06335 3.1327,2.72342 3.1327,-2.23779 v -4.39079 l 1.97804,-4.35921 c 1.08792,-2.39756 1.98792,-6.25053 2,-8.56215 0.0121,-2.31162 0.54911,-5.35991 1.1934,-6.77397 l 1.17144,-2.57103 2.52236,-0.63308 2.52236,-0.63307 2.88724,1.65705 c 4.06509,2.33304 6.81964,2.06766 10.36614,-0.99869 l 3.07159,-2.65574 11.39372,-0.17926 L 723.5,753.33 l 2.95725,-1.21904 c 1.62648,-0.67048 6.57648,-1.66048 11,-2.2 11.05017,-1.34777 13.57212,-2.32156 17.93419,-6.92485 C 757.46891,740.79375 760.03071,739 761.08433,739 H 763 v 2.16695 c 0,1.19183 -1.6072,5.09091 -3.57156,8.66462 -3.18032,5.78588 -4.60465,11.32555 -3.25817,12.67203 0.26149,0.26149 1.65961,-0.0824 3.10695,-0.76408 l 2.63152,-1.23952 0.29563,-2.99181 0.29563,-2.99181 1.71897,-0.32554 1.71898,-0.32554 6.97764,5.56735 c 3.83771,3.06204 7.58258,5.56735 8.32194,5.56735 0.73937,0 4.92589,-2.27835 9.30339,-5.063 l 7.95908,-5.06301 3.20045,0.4921 c 1.76024,0.27065 5.82469,2.27418 9.0321,4.45229 l 5.83165,3.9602 3.21019,-2.8683 c 1.7656,-1.57757 4.45115,-3.12534 5.9679,-3.43948 1.51674,-0.31415 4.08898,-0.89757 5.71609,-1.29648 l 2.95837,-0.7253 1.07474,-4.41405 1.07473,-4.41405 2.96689,-1.26536 c 1.63179,-0.69594 4.89384,-1.28565 7.24901,-1.31046 9.08887,-0.0957 15.74398,-4.91753 20.15883,-14.6056 3.17078,-6.95804 6.37251,-9.86117 13.0684,-11.84964 2.60385,-0.77326 6.11962,-2.12231 7.81281,-2.99789 1.69318,-0.87559 4.07698,-1.59197 5.29732,-1.59197 1.22034,0 4.60183,-1.34489 7.51441,-2.98865 l 5.2956,-2.98866 2.36049,0.89746 c 1.29827,0.4936 3.13616,2.08128 4.0842,3.52817 1.77921,2.71542 4.99863,4.43405 12.42007,6.63023 l 4.29425,1.27078 6.70575,-1.30828 c 11.17015,-2.17927 12.49848,-3.34936 15.06828,-13.27333 l 0.96647,-3.73228 7.6588,-8.3012 7.6588,-8.3012 6.43998,-1.84433 6.43997,-1.84433 5.12008,2.12781 c 6.13712,2.55048 7.19646,2.60434 10.36674,0.52709 l 2.44301,-1.60072 6.17812,0.71705 c 6.5049,0.75497 10.5408,2.16346 15.1597,5.29059 l 2.7941,1.89173 4.7074,-0.45232 4.7073,-0.45231 1.8141,2.00465 c 0.9978,1.10255 2.4793,4.85547 3.2921,8.33981 0.8129,3.48435 2.561,8.18334 3.8848,10.44222 2.3134,3.94753 8.3231,9.42002 10.3447,9.42002 0.5346,0 2.8718,-1.58718 5.1937,-3.52707 l 4.2216,-3.52708 2.123,0.6513 c 1.1677,0.35822 2.1633,0.7079 2.2125,0.77708 0.049,0.0692 1.9901,2.67938 4.3133,5.80046 l 4.2238,5.6747 0.4145,3.27533 c 0.228,1.80144 1.2341,4.0949 2.2358,5.09659 l 1.8212,1.82125 8.451,-0.64989 8.4509,-0.64989 0.1829,-24.62139 0.1829,-24.62139 2.0212,-4.5404 2.0212,-4.5404 0.4076,-15.19054 0.4077,-15.19054 1.3663,-1.64632 1.3663,-1.64632 7.9773,0.54677 7.9772,0.54677 2.5447,-1.32204 c 2.6958,-1.40055 5.7291,-5.06867 8.2834,-10.01698 l 1.5486,-3 0.7386,-16.5 0.7386,-16.5 2.7164,-5.10711 2.7164,-5.10711 0.6962,-11.39289 c 0.7263,-11.88423 2.9363,-22.35865 5.243,-24.85003 l 1.3492,-1.45715 1.2572,1.2566 1.2571,1.25659 0.2676,11.70055 c 0.1472,6.4353 0.5159,16.20055 0.8194,21.70055 0.3034,5.5 0.1533,15.94803 -0.3336,23.21785 l -0.8852,13.21785 -1.7891,1.97688 -1.789,1.97689 -1.0902,11.03438 -1.0902,11.03439 1.7736,3.71931 1.7736,3.71932 -0.6296,9.55156 c -0.8356,12.67582 -2.1569,18.4863 -5.6362,24.78642 L 1136,692.9697 v 4.04654 4.04653 l -1.5509,0.59513 -1.5509,0.59513 -2.339,-2.19738 c -1.2864,-1.20855 -2.9024,-4.2097 -3.591,-6.66921 l -1.252,-4.47184 -2.0806,-1.4573 C 1122.4913,686.65579 1120.294,686 1118.7527,686 h -2.8022 l -0.9753,2.5651 c -0.5363,1.4108 -0.9752,4.01566 -0.9752,5.78856 0,1.7729 -0.9,4.98875 -2,7.14634 -2.6839,5.26422 -2.5265,7.19949 1.0164,12.5 1.6543,2.475 3.278,6.14473 3.6083,8.15495 l 0.6005,3.65495 2.4477,0.4679 2.4476,0.4679 1.6768,-2.62285 c 4.7429,-7.41902 12.6111,-11.31448 16.0027,-7.92285 0.66,0.66 1.2,3.20468 1.2,5.65484 v 4.45483 l 3.8916,3.70195 3.8915,3.70195 5.3256,0.70646 5.3255,0.70645 4.0734,4.43676 c 2.2403,2.44022 4.7302,4.41847 5.5329,4.39612 0.8027,-0.0223 3.0175,-1.37235 4.9217,-3 L 1177.4245,738 h 4.3464 4.3464 l 3.9848,-3.20229 c 2.1917,-1.76127 4.902,-4.68627 6.0229,-6.5 L 1198.1631,725 h 1.796 c 0.9878,0 2.3612,-0.68095 3.0519,-1.51323 l 1.2558,-1.51322 -0.4978,-6.95785 -0.4978,-6.95785 1.4105,-2.01379 c 0.7758,-1.10758 3.3023,-3.09809 5.6144,-4.42335 l 4.2039,-2.40957 5.5079,-0.64727 5.5079,-0.64728 9.3899,1.62044 9.39,1.62045 2.8117,-2.07874 c 3.2391,-2.39482 3.9972,-2.46413 10.8579,-0.99275 6.1609,1.32127 8.0347,3.03551 8.0347,7.35058 v 3.29371 l -2.0726,2.63486 -2.0726,2.63486 -2.1774,-0.007 c -1.1976,-0.004 -3.5274,-0.90066 -5.1774,-1.99341 -3.8149,-2.52653 -7.5476,-2.52653 -12.5,0 -2.1562,1.1 -5.2276,2 -6.8253,2 -1.5977,0 -4.0806,0.92472 -5.5174,2.05494 l -2.6125,2.05494 -1.5378,5.17854 -1.5379,5.17855 1.8546,2.51651 c 1.0201,1.38409 2.6607,4.21958 3.6458,6.3011 0.9852,2.08151 2.5994,4.21711 3.5872,4.74576 l 1.796,0.96119 3.0927,-1.74577 3.0927,-1.74576 0.9812,1.5 c 0.5397,0.825 1.4433,3.1685 2.0081,5.20778 1.2978,4.68577 2.1894,5.20581 6.4911,3.78613 l 3.4793,-1.14829 7.1,1.1016 7.1,1.1016 6.7161,3.47559 L 1281.63,758 h 4.2838 4.2838 l 2.8471,-3.0479 2.8472,-3.04789 4.2302,2.15809 4.2302,2.15809 4.5739,-0.66555 c 2.5156,-0.36606 7.0743,-0.91344 10.1304,-1.2164 l 5.5566,-0.55084 1.6682,4.24687 1.6682,4.24688 6.303,-0.64576 6.303,-0.64576 4.419,2.25509 4.4191,2.25508 4.1631,8 4.1631,8 2.3901,1.23526 c 1.3145,0.67939 4.992,1.24189 8.1721,1.25 6.1859,0.0158 11.3659,1.67753 13.5903,4.35984 1.913,2.30663 4.728,2.06347 6.5709,-0.56761 L 1390,785.55499 V 781 776.44501 l 1.5597,-2.22675 1.5597,-2.22676 17.1903,0.28051 17.1903,0.28052 4.5,2.6313 c 2.475,1.44721 7.0546,3.14797 10.1769,3.77945 l 5.6769,1.14816 4.0656,2.94515 4.0657,2.94515 1.7653,3.74913 1.7653,3.74913 h 2.3832 2.3831 l 0.859,-1.75 c 0.4725,-0.9625 1.2266,-2.50743 1.6758,-3.43317 0.4493,-0.92574 1.6868,-2.14521 2.75,-2.70993 1.0633,-0.56471 3.1494,-1.82999 4.6358,-2.81173 l 2.7026,-1.78497 13.0244,12.9949 c 7.1633,7.14719 13.4688,12.9949 14.0122,12.9949 0.5433,0 1.4528,0.86875 2.021,1.93055 l 1.0332,1.93056 -1.5694,1.56944 -1.5695,1.56945 h -3.9421 c -2.1682,0 -4.7995,0.53543 -5.8474,1.18984 l -1.9052,1.18983 -1.5547,-1.29032 c -0.8551,-0.70967 -1.8422,-2.9326 -2.1935,-4.93983 -0.3513,-2.00724 -1.2735,-4.66202 -2.0495,-5.89952 l -1.4108,-2.25 h -3.9261 l -3.926,0 -2.6696,-3.5 c -2.8189,-3.6958 -5.1227,-4.47002 -6.057,-2.03549 -0.6971,1.81669 3.2438,7.53549 5.1929,7.53549 H 1475 v 2.30887 c 0,1.26988 -0.599,3.12799 -1.331,4.12914 l -1.331,1.82026 -3.419,-0.52358 c -1.8805,-0.28796 -6.3765,-1.65959 -9.9912,-3.04806 -3.6146,-1.38847 -7.0535,-2.22348 -7.6418,-1.85556 l -1.0696,0.66893 0.1418,5.69089 0.1418,5.69089 -3.4462,3.55911 c -1.8954,1.95751 -3.7388,3.55911 -4.0966,3.55911 -0.3577,0 -2.2721,-1.575 -4.2542,-3.5 l -3.6039,-3.5 h -2.4271 c -3.4118,0 -4.6019,-1.87485 -5.7618,-9.07694 -0.556,-3.45231 -1.2398,-6.6473 -1.5195,-7.09999 C 1425.1109,802.37038 1422.6744,802 1419.9762,802 h -4.9058 l -1.0352,-1.93426 c -0.5694,-1.06384 -1.0352,-2.84801 -1.0352,-3.96481 0,-1.11681 -0.8519,-2.48649 -1.8931,-3.04373 l -1.8932,-1.01317 -2.4904,1.95896 c -1.3697,1.07744 -3.9207,4.1879 -5.6688,6.91215 l -3.1785,4.95318 -2.6935,0.5916 -2.6935,0.59159 -4.8416,-1.4571 c -2.6628,-0.8014 -6.5882,-2.61299 -8.723,-4.02575 -4.3503,-2.87886 -6.7269,-3.24696 -7.5256,-1.16561 -0.6229,1.62322 2.7141,8.61586 5.0281,10.53629 3.6524,3.0312 0.6426,7.65663 -8.6612,13.31066 -5.6664,3.44352 -6.4651,3.42913 -10.2181,-0.18412 l -3.0476,-2.93411 -10.3581,-2.06589 c -12.1446,-2.42221 -16.9854,-2.57596 -21.515,-0.68334 -1.8199,0.7604 -6.518,1.70482 -10.4402,2.09871 l -7.1312,0.71616 -3.5531,-2.19595 c -1.9543,-1.20778 -4.1816,-1.95481 -4.9497,-1.66007 -1.928,0.73985 -6.8535,9.36285 -6.0712,10.62871 0.3501,0.56644 1.6341,1.0299 2.8534,1.0299 h 2.2169 l 1.9741,4.21549 1.9741,4.21549 4.4472,2.30561 4.4472,2.30561 5.0842,-5.0211 5.0843,-5.0211 h 2.0636 c 1.1349,0 2.9153,0.94118 3.9563,2.09151 l 1.8928,2.0915 -0.2178,7.6585 -0.2177,7.65849 2.2299,4.5 2.23,4.5 6,1.65455 6,1.65456 3.5483,-0.50011 3.5482,-0.5001 1.1214,1.35115 c 0.6167,0.74312 1.422,2.54915 1.7895,4.01338 l 0.6682,2.66224 -1.8378,0.96703 c -1.0108,0.53187 -4.2109,1.28752 -7.1113,1.67923 l -5.2734,0.7122 -6.5565,-5.59707 C 1328.7905,865.51868 1325.158,863 1324.3244,863 c -0.8336,0 -2.7101,0.82677 -4.17,1.83727 -1.4599,1.01051 -3.4721,2.13298 -4.4716,2.4944 l -1.8171,0.65711 -4.378,-1.99439 C 1307.0798,864.89748 1303.2441,864 1300.9638,864 h -4.1459 l -5.7024,-4 -5.7024,-4 h -10.6075 -10.6074 l -6.0991,4.58476 -6.0991,4.58477 v 5.54921 c 0,3.05207 -0.4983,7.21226 -1.1072,9.24487 l -1.1073,3.69564 2.0044,3.92038 c 1.1025,2.1562 3.1551,5.15881 4.5614,6.67245 l 2.5571,2.75208 4.7958,-0.0313 c 2.6377,-0.0172 5.9208,0.16933 7.2958,0.41459 1.375,0.24526 3.1848,0.48342 4.0218,0.52926 0.837,0.0458 3.6725,2.05788 6.3011,4.47121 2.6286,2.41334 7.7938,5.85101 11.4782,7.63928 3.6844,1.78827 7.3739,3.80683 8.1989,4.48569 0.825,0.67886 3.1812,1.77402 5.2361,2.43368 4.7551,1.52654 5.0862,2.14264 3.7728,7.02034 l -1.0806,4.01301 -2.5268,0.6342 -2.5269,0.6342 -3.6873,-3.0923 c -5.3809,-4.51258 -15.1131,-9.79572 -19.4971,-10.584 l -3.8097,-0.68503 -1.8428,-4.2991 c -1.9064,-4.44745 -4.6157,-6.40985 -6.3941,-4.63144 l -1.022,1.02198 -0.061,12.24233 -0.061,12.24233 -1.6664,0.3257 c -1.6586,0.32418 -10.2017,-5.48632 -12.5836,-8.55868 -0.6875,-0.88678 -1.25,-2.59507 -1.25,-3.7962 V 917.25 l 2.7658,-0.55317 2.7659,-0.55316 2.2711,-4.67477 2.2712,-4.67478 -1.1594,-1.39706 c -1.4084,-1.69699 -3.2697,-1.75971 -7.4426,-0.25076 -5.0638,1.83107 -8.504,0.34349 -13.5839,-5.87375 l -1.6118,-1.97276 -4.2297,-0.67635 -4.2297,-0.67636 -3.903,-3.13653 -3.903,-3.13654 -2.5525,1.163 c -1.4039,0.63964 -5.4778,1.16299 -9.0532,1.16299 h -6.5007 l -2.3901,2.57902 c -1.3146,1.41845 -2.6901,3.94442 -3.0566,5.61325 l -0.6665,3.03423 1.9494,2.63675 c 2.7666,3.742 5.2593,8.76763 5.2593,10.60327 v 1.56584 l -3.4091,1.62569 c -4.3938,2.09526 -6.1823,1.33349 -6.9911,-2.97773 -0.359,-1.91364 -1.2033,-3.91425 -1.8763,-4.44578 -1.8002,-1.42193 -15.7788,-2.62928 -27.1655,-2.34633 l -9.942,0.24705 -4.6968,3.93237 -4.6968,3.93237 h -2.4972 -2.4973 l -1.6555,3.48874 -1.6556,3.48875 1.1084,4.11607 c 1.4242,5.28907 0.8902,6.49711 -3.7239,8.42501 l -3.7857,1.58176 -2.1155,-0.96391 -2.1156,-0.96392 -0.5861,-2.93041 c -0.3223,-1.61172 -0.3293,-5.41847 -0.015,-8.45943 l 0.5706,-5.52903 -1.8768,-1.66564 C 1114.4003,908.84656 1109.1152,906 1102.005,906 c -4.5899,0 -17.1103,4.7053 -18.7501,7.04646 -1.5014,2.14353 -4.2535,2.55489 -5.9231,0.88532 -0.5875,-0.58752 -2.815,-0.92502 -4.95,-0.75 L 1068.5,913.5 l 0.1519,3.29118 c 0.084,1.81014 0.4071,4.30761 0.7189,5.54992 l 0.5669,2.25875 3.3947,1.61884 3.3948,1.61884 3.7579,6.83124 c 2.0669,3.75718 4.7862,9.75623 6.0429,13.33123 1.2567,3.575 3.2452,9.12556 4.419,12.33457 l 2.1341,5.83457 -0.6079,1.91543 c -0.9011,2.8391 -2.8932,2.34006 -6.343,-1.58903 l -3.0769,-3.50445 -1.5604,-5.36744 -1.5603,-5.36744 -5.1202,-4.31737 c -5.6457,-4.76056 -13.2418,-12.7153 -13.4374,-14.07189 -0.069,-0.47682 -0.1812,-1.45977 -0.25,-2.18433 l -0.125,-1.31738 -5.3379,-1.68262 c -7.1933,-2.26748 -9.3093,-2.12632 -12.253,0.81738 -2.8333,2.83327 -5.58,3.20398 -7.4091,1 -1.5968,-1.92405 -4.8954,-1.93606 -5.6305,-0.0205 -0.3123,0.81373 0.4476,3.57701 1.6887,6.14063 l 2.2564,4.66112 0.3909,10.85937 0.3909,10.85937 h -1.5077 c -0.8293,0 -2.5385,-1.08196 -3.7982,-2.40435 -2.8483,-2.98988 -8.7707,-6.58693 -10.8534,-6.59191 -0.8596,-0.002 -2.7721,-1.26586 -4.25,-2.80846 L 1012,948.39056 v -2.46314 c 0,-1.35473 1.125,-4.11874 2.5,-6.14223 1.375,-2.0235 2.5,-4.8039 2.5,-6.17868 v -2.4996 l -5.75,-3.68952 c -3.1625,-2.02923 -8.0329,-5.20328 -10.8232,-7.05345 C 994.18416,916.22455 991.84689,916.16119 987,920 l -3.78781,3 h -6.31938 -6.31938 l -6.22648,6.70323 c -3.42457,3.68677 -6.99694,8.41177 -7.93859,10.5 L 954.69625,944 h -2.42505 -2.42505 l -3.02516,-3.02517 -3.02517,-3.02517 0.59427,-2.22483 c 0.32685,-1.22366 0.85801,-3.1713 1.18035,-4.32809 l 0.58607,-2.10325 -2.49041,-2.89675 -2.49041,-2.89674 -7.33785,0.20583 c -4.03581,0.1132 -14.88062,0.2208 -24.09957,0.2391 l -16.76173,0.0333 -5.10943,2.58914 c -2.81019,1.42403 -7.52981,5.02894 -10.48804,8.0109 L 872.00047,940 h -3.95318 c -2.17425,0 -5.13545,0.53868 -6.58045,1.19706 l -2.62726,1.19706 -1.9787,3.87858 -1.97871,3.87858 -3.40897,1.42436 C 849.59827,952.35904 846.65533,953 844.93333,953 h -3.13091 l -2.90121,3.10576 L 836,959.21151 v 2.32915 c 0,3.79352 -1.68862,7.14303 -5.63096,11.16941 l -3.71082,3.78993 -2.07911,5.90927 -2.07911,5.90927 -3.97022,1.36462 c -4.57489,1.57246 -8.53787,5.05978 -11.04917,9.72298 -0.96454,1.79106 -3.60477,4.43176 -5.86716,5.86826 -7.0619,4.4838 -15.59294,12.7614 -18.65591,18.1018 -3.31761,5.7843 -3.67613,8.1341 -1.37575,9.0168 2.53756,0.9738 3.01098,0.7891 7.41821,-2.893 2.30407,-1.925 4.844,-3.5 5.64427,-3.5 0.80028,0 2.69681,-0.6421 4.21452,-1.427 l 2.75948,-1.427 1.28926,0.7968 c 0.70909,0.4383 1.12863,1.6429 0.93231,2.677 l -0.35694,1.8802 -2.70065,0.3125 -2.70064,0.3125 -4.13393,4.9375 -4.13392,4.9375 -2.15688,0 c -1.18628,0 -4.76692,1.5764 -7.95696,3.5 -3.19004,1.9236 -5.89004,3.4837 -6,3.467 -0.10996,-0.017 -0.9819,-0.486 -1.93766,-1.0428 z m -328.49677,-150.74495 2.94401,-5.21099 -0.61998,-2.4702 -0.61998,-2.4702 -2.64036,-0.66269 -2.64036,-0.66269 -1.28643,1.75929 c -0.70753,0.96761 -1.58979,4.18737 -1.96057,7.15502 l -0.67416,5.39574 1.26626,1.52574 c 1.84705,2.22556 2.9457,1.45706 6.23157,-4.35902 z M 869,897 c 1.1,-1.1 2,-3.17794 2,-4.61765 v -2.61764 l -3.8923,-3.8923 -3.89229,-3.8923 -1.60771,0.61693 c -1.99219,0.76448 -2.05419,3.36243 -0.16877,7.07192 0.79141,1.55707 1.971,4.29354 2.62132,6.08104 1.37473,3.77868 2.20178,3.98797 4.93975,1.25 z m 114.39787,-1.47528 c 0.60617,-1.0864 2.08811,-3.51433 3.29319,-5.3954 l 2.19106,-3.42012 -0.5223,-8.6046 c -0.59377,-9.78196 -1.53076,-12.91942 -5.57642,-18.67227 l -2.86056,-4.06767 0.6159,-1.60501 c 0.33874,-0.88276 1.2561,-1.85068 2.03858,-2.15095 3.64798,-1.39986 -0.4447,-8.12494 -7.63829,-12.5512 -2.53199,-1.55795 -6.29692,-5.13936 -8.36649,-7.95869 -2.06958,-2.81932 -5.64489,-6.22898 -7.94513,-7.57701 l -4.18226,-2.45097 -1.97258,0.55828 c -1.08491,0.30705 -3.04441,1.89644 -4.35443,3.53197 l -2.38187,2.97369 2.57569,6.68261 c 1.41663,3.67544 2.85107,8.39522 3.18764,10.4884 0.33658,2.09317 1.46244,4.65626 2.50193,5.69575 l 1.88997,1.88997 2.9671,-0.85095 2.96709,-0.85095 2.01062,1.4083 c 1.10585,0.77457 2.54449,3.09441 3.19697,5.1552 0.65249,2.0608 2.07568,5.30079 3.16264,7.19999 l 1.97629,3.4531 -0.68674,7.75798 -0.68674,7.75798 -1.39937,1.16137 c -1.98193,1.64486 -1.73545,4.63575 0.65918,7.99869 l 2.05853,2.89094 3.19147,0.94128 c 4.45707,1.31455 6.80558,0.91109 8.08933,-1.38971 z M 1063.5,895 c -0.3399,-0.55 -1.0415,-1 -1.559,-1 -0.5176,0 -0.941,0.45 -0.941,1 0,0.55 0.7016,1 1.559,1 h 1.559 z m -155.5033,-4.49132 c 1.1552,-3.03839 0.58802,-4.65094 -3.7841,-10.75868 L 900.81239,875 h -1.93758 c -2.84787,0 -3.33632,2.53894 -1.09937,5.71451 1.07919,1.53202 2.29793,3.91049 2.7083,5.28549 0.80223,2.68797 4.32289,7 5.71532,7 0.46775,0 1.27668,-1.12109 1.79764,-2.49132 z m 22.33636,-3.67431 c 0.71797,-2.7455 -0.13446,-4.63656 -2.41649,-5.36085 -2.59555,-0.82379 -3.91657,0.19282 -3.91657,3.01407 0,4.90545 5.16358,6.81887 6.33306,2.34678 z m 163.59434,-1.46923 c 2.4788,-3.15122 2.5617,-5.25162 0.4683,-11.86514 l -1.5826,-5 -0.2411,-14.5 -0.2411,-14.5 1.0283,-2.32298 1.0283,-2.32298 -3.1937,-2.4995 -3.1938,-2.4995 v -2.89233 -2.89234 l 1.9323,-1.03412 c 2.7279,-1.45996 3.4297,-4.39796 3.1843,-13.33037 l -0.2141,-7.79412 1.195,-3.30491 1.1951,-3.30492 -0.6654,-2.65096 L 1093.9619,790 h -2.0057 -2.0057 l -1.0828,2.75 -1.0827,2.75 0.5603,11.7913 c 0.3081,6.48522 0.2951,12.48219 -0.029,13.32661 -0.3241,0.84441 -1.6609,1.94276 -2.9707,2.44076 -1.3099,0.49801 -2.7945,1.99164 -3.2993,3.31918 l -0.9177,2.41371 1.4945,6.35422 1.4944,6.35422 -1.184,12.15856 -1.184,12.15856 2.0152,6.84144 c 1.1084,3.76279 2.3259,8.18892 2.7056,9.83585 1.3865,6.01345 4.1485,7.07678 7.457,2.87073 z m -290.3466,-5.11767 c -1.15374,-1.15374 -1.74564,0.65318 -0.95886,2.92717 l 0.80455,2.32536 0.36756,-2.33586 c 0.20215,-1.28473 0.10619,-2.59723 -0.21325,-2.91667 z m 251.0269,0.32575 L 1053.9619,878 h -1.481 c -1.7475,0 -1.9208,2.30944 -0.3883,5.1731 l 1.0927,2.04162 1.0341,-1.03414 1.0342,-1.03415 z m -172.78815,1.18621 -0.31955,-2.24058 -4.98856,-3.25942 C 870.92038,872.60634 870,872.35402 870,874.47432 c 0,0.81088 1.28318,2.13788 2.8515,2.94889 1.56833,0.81101 3.6037,2.62257 4.52305,4.02568 C 878.29391,882.852 879.74203,884 880.5926,884 h 1.5465 z m 358.49735,-3.48867 0.829,-5.22925 4.4097,-3.88151 4.4096,-3.88151 -1.8113,-1.63925 c -2.4201,-2.19012 -2.8402,-2.10681 -6.1707,1.22374 -1.5747,1.57464 -4.1788,3.12614 -5.7869,3.44777 l -2.924,0.58479 -0.6484,4.055 -0.6484,4.05501 1.4914,3.5695 1.4914,3.56951 2.2648,-0.32228 2.2648,-0.32228 z m -132.4563,0.3972 1.1055,-1.33205 -1.4219,-1.91795 -1.422,-1.91796 -1.7252,1.69981 -1.7252,1.69981 1.2865,1.55019 c 1.5759,1.89877 2.4662,1.94854 3.9023,0.21815 z M 962,876.51356 C 962,874.88069 957.31202,871 955.33946,871 h -1.39082 l 1.52566,2.9503 c 2.34679,4.53819 6.5257,6.17964 6.5257,2.56326 z m -97.21429,-6.35996 1.28571,-0.81577 0.0688,-5.76435 c 0.0757,-6.33553 -0.90132,-8.10148 -3.94723,-7.13475 -2.43568,0.77306 -3.00858,2.14049 -3.83199,9.14635 L 857.72464,871 l 2.88768,-0.0153 c 1.58822,-0.008 3.46625,-0.38241 4.17339,-0.83109 z M 1124.2729,864 c 1.3984,-1.1 3.0014,-2 3.5622,-2 1.8203,0 5.1649,-5.19609 5.1649,-8.02407 0,-1.5149 -0.8517,-3.80612 -1.8926,-5.09161 l -1.8926,-2.33725 -2.5809,1.38129 -2.581,1.38128 -1.1596,3.51375 c -0.6378,1.93257 -2.0087,4.95275 -3.0464,6.71151 l -1.8867,3.19776 0.6269,1.63367 c 0.8343,2.17423 2.6006,2.06043 5.6858,-0.36633 z m -122.476,-6.06457 0.2968,-4.54659 -2.11943,-2.69442 L 997.85484,848 h -2.7782 c -1.52801,0 -4.21965,0.50249 -5.98143,1.11666 l -3.20324,1.11665 6.30401,6.26559 c 3.46721,3.44607 6.97902,6.20203 7.80402,6.12435 l 1.5,-0.14124 z m 221.8288,1.53158 C 1223.3161,858.66015 1222.0702,858 1220.8571,858 h -2.2057 l 2.4045,2.55946 2.4045,2.55947 0.3641,-1.09245 c 0.2003,-0.60085 0.1108,-1.75261 -0.1988,-2.55947 z M 910,856.44098 v -1.55901 L 909,855.5 c -0.55,0.33992 -1,1.04148 -1,1.55902 0,0.51754 0.45,0.94098 1,0.94098 0.55,0 1,-0.70156 1,-1.55902 z m 412.4807,-3.83074 2.3897,-2.38975 -0.5601,-2.14191 c -0.7523,-2.87675 -3.4229,-4.1513 -9.7813,-4.6681 l -5.307,-0.43134 -0.6122,1.59531 -0.6122,1.5953 3.2512,3.50743 c 2.9358,3.16711 5.8717,5.08612 8.0467,5.25943 0.4375,0.0349 1.8708,-1.012 3.1852,-2.32637 z m -449.0937,0.43272 c 1.38447,-0.52637 3.19254,-2.26299 4.01795,-3.85915 1.4784,-2.85892 4.19653,-4.38751 10.09505,-5.67716 l 3,-0.65592 5.25,-5.49352 c 2.8875,-3.02144 5.25,-5.83681 5.25,-6.25639 0,-0.41957 1.2375,-1.38326 2.75,-2.14153 1.5125,-0.75828 4.775,-2.77066 7.25,-4.47198 2.475,-1.70132 5.68805,-3.59977 7.1401,-4.2188 l 2.64011,-1.12549 2.92115,3.67849 c 1.60663,2.02317 4.3777,5.81599 6.15794,8.42849 1.78023,2.6125 3.55266,4.72215 3.93874,4.6881 0.38608,-0.034 2.12066,-2.00959 3.85462,-4.3901 l 3.15266,-4.32821 -3.48555,-4.8599 -3.48556,-4.85989 0.44634,-4.85659 c 0.48988,-5.33027 1.60915,-6.57831 5.27166,-5.87818 l 2.42291,0.46317 0.63271,-1.64881 c 0.73879,-1.92526 -1.25794,-10.07494 -3.26584,-13.32959 l -1.3881,-2.25 -2.72694,0.0222 c -3.52053,0.0287 -6.56072,2.538 -8.70363,7.18375 -0.94019,2.03829 -3.69864,5.41329 -6.1299,7.5 -2.43126,2.0867 -8.68967,7.73151 -13.90758,12.54401 -5.21792,4.8125 -9.92225,8.75 -10.45408,8.75 -0.53184,0 -2.83379,2.47259 -5.11547,5.49464 l -4.14849,5.49465 -4.1339,1.07198 c -2.27365,0.58959 -5.22954,1.38001 -6.56866,1.75649 l -2.43476,0.68451 -2.73663,4.49887 c -1.50516,2.47437 -2.77201,5.51136 -2.81525,6.74886 L 868,854 h 1.4349 c 0.7892,0 2.56764,-0.43067 3.9521,-0.95704 z M 1115,850.05902 c 0,-2.40863 -1.8131,-3.64592 -3.2448,-2.21427 l -1.0704,1.07049 1.28,1.54238 c 1.7478,2.10588 3.0352,1.9368 3.0352,-0.3986 z m 97,-4.11804 v -2.05901 l -1,0.61803 c -0.55,0.33992 -1,1.26648 -1,2.05902 0,0.79254 0.45,1.44098 1,1.44098 0.55,0 1,-0.92656 1,-2.05902 z m -45,-1.04797 c 0,-0.49115 -0.675,-0.89301 -1.5,-0.89301 -0.825,0 -1.5,0.66088 -1.5,1.46862 v 1.46861 l 1.5,-0.5756 c 0.825,-0.31659 1.5,-0.97746 1.5,-1.46862 z m 88.0111,0.0863 C 1256.2372,842.6883 1255.571,841 1253.441,841 H 1252 v 3 c 0,3.45287 1.4371,3.92028 3.0111,0.97933 z m -151.6181,-2.56112 c 0.3339,-0.86998 0.607,-2.84684 0.607,-4.39301 v -2.81122 l -1.5,-0.57561 c -1.8694,-0.71734 -4.1946,0.1235 -4.8155,1.74132 -0.7216,1.88046 2.0354,7.62031 3.6602,7.62031 0.7927,0 1.7145,-0.7118 2.0483,-1.58179 z M 640.5,838 c 0.33992,-0.55 0.14148,-1 -0.44098,-1 -0.58246,0 -1.05902,0.45 -1.05902,1 0,0.55 0.19844,1 0.44098,1 0.24254,0 0.7191,-0.45 1.05902,-1 z m -29.61465,-4.90798 1.38534,-0.87735 -0.62266,-2.48089 c -0.34246,-1.36448 -1.48544,-3.54637 -2.53996,-4.84864 l -1.91729,-2.36776 -2.09539,1.8963 -2.09539,1.8963 v 2.64501 c 0,4.39113 4.09321,6.53863 7.88535,4.13703 z m 15.0271,-2.00761 c 2.52315,-1.60357 6.44763,-3.4068 8.72106,-4.00717 2.27343,-0.60038 4.68835,-1.76013 5.36649,-2.57724 0.67814,-0.81711 3.03427,-1.97068 5.23586,-2.56351 l 4.00288,-1.07786 -0.57663,-3.55335 c -0.31714,-1.95433 -1.3275,-4.38304 -2.24523,-5.39713 l -1.66861,-1.84379 -1.8084,0.96782 c -3.07812,1.64736 -5.75286,1.08152 -8.42437,-1.78218 l -2.56543,-2.75 -0.95972,1.5 c -0.52785,0.825 -0.96662,2.8725 -0.97504,4.55 -0.0182,3.62853 -1.58238,5.45 -4.68013,5.45 h -2.26481 l -1.25732,2.25 c -1.82849,3.27214 -4.66149,12.56823 -4.02436,13.20536 1.16984,1.16984 3.72661,0.42363 8.12376,-2.37095 z m 371.48056,-7.6662 C 997.72686,822.54823 998,819.9295 998,817.59882 v -4.23761 l -4.04674,-5.4306 -4.04674,-5.43061 -3.20326,-0.83476 c -1.76179,-0.45912 -4.63574,-1.92162 -6.38654,-3.25 C 978.56592,797.08686 976.39809,796 975.49933,796 h -1.63411 l 0.6662,2.09898 c 0.3664,1.15444 1.73649,4.51912 3.04463,7.47708 l 2.37845,5.37809 3.27275,1.4698 c 4.26505,1.91544 5.67751,3.19948 9.15875,8.32605 3.12657,4.60426 4.07096,5.10752 5.00701,2.66821 z m 48.00099,0.62208 2.5242,-0.9597 1.9367,-3.79618 c 3.0316,-5.94248 3.1665,-10.28441 0.3194,-10.28441 -1.908,0 -4.6906,2.75099 -7.0804,7 -0.7734,1.375 -1.8569,3.22789 -2.4078,4.11753 -1.0966,1.77072 -0.3207,4.88247 1.2174,4.88247 0.5315,0 2.1022,-0.43187 3.4905,-0.95971 z m -385.08698,-4.15437 1.01127,-1.61407 -0.73616,-1.88593 -0.73616,-1.88592 -2.41802,3 c -1.32991,1.65 -2.42025,3.3688 -2.42298,3.81955 -0.009,1.4104 4.2399,0.26166 5.30205,-1.43363 z m 594.11878,-6.2187 c -0.6769,-1.76392 -2.4258,-2.30393 -2.4258,-0.74901 0,0.50502 0.2848,1.66027 0.6328,2.56722 l 0.6328,1.649 0.9,-0.9 c 0.495,-0.495 0.6121,-1.65024 0.2602,-2.56721 z M 611,810.58179 C 611,808.41332 609.8902,806 608.89301,806 608.40186,806 608,807.35 608,809 v 3 h 1.5 c 0.825,0 1.5,-0.6382 1.5,-1.41821 z M 1177.5,811 l 0.618,-1 h -2.118 -2.118 l 0.618,1 c 0.3399,0.55 1.0149,1 1.5,1 0.4851,0 1.1601,-0.45 1.5,-1 z m -506.51531,-1.75 c -0.008,-0.9625 -0.42413,-2.39606 -0.92379,-3.1857 l -0.90847,-1.4357 -1.5552,1.29071 -1.5552,1.2907 1.01417,1.895 C 667.61399,810.14725 668.72953,811 669.53518,811 H 671 Z m 25.83922,-0.58588 0.3239,-1.67016 -2.99698,-2.99698 c -5.35919,-5.35919 -7.25845,-2.62677 -2.50552,3.60464 2.73206,3.58192 4.61506,3.96825 5.1786,1.0625 z M 1192,806.88197 v -2 l -1,0.61803 c -0.55,0.33992 -1,1.51803 -1,2.61803 v 2 l 1,-0.61803 c 0.55,-0.33992 1,-1.51803 1,-2.61803 z m 75,0.41803 v -2.7 l -1.1328,1.13278 c -0.623,0.62303 -0.8621,1.83803 -0.5314,2.7 0.9155,2.38558 1.6642,1.87592 1.6642,-1.13278 z m -256,-9.37091 v -7.0709 l 6.6318,-7.32237 6.6319,-7.32237 4.1181,-0.65727 c 2.265,-0.36149 5.1307,-1.31989 6.3682,-2.12977 l 2.25,-1.47252 v -2.50169 -2.5017 l -2.5651,-0.97525 C 1033.0241,765.43886 1029.6491,765 1026.9349,765 H 1022 v 1 c 0,0.55 -1.4749,1 -3.2775,1 -3.1758,0 -6.1573,-1.52857 -10.1477,-5.20257 -2.3093,-2.12618 -7.556,-3.25557 -10.61441,-2.28486 l -2.2135,0.70254 0.57614,4.86458 0.57614,4.86459 -0.93572,0.57831 c -0.51465,0.31807 -2.78697,-1.20054 -5.04961,-3.37468 -2.26263,-2.17415 -5.30626,-4.18093 -6.76361,-4.45952 -3.03006,-0.57924 -8.01068,1.23062 -10.00524,3.63569 l -1.355,1.63389 -1.82925,-0.97898 c -3.00364,-1.6075 -5.4725,-1.1276 -7.99109,1.55332 l -2.37898,2.5323 -0.40553,6.36878 -0.40553,6.36878 1.17845,3.57076 1.17846,3.57076 3.68174,1.02258 c 4.94953,1.3747 5.70914,1.30944 7.3093,-0.62796 C 974.87362,789.22426 984.34049,785 987.33217,785 c 1.25133,0 4.65193,1.1844 7.55689,2.63201 l 5.28174,2.632 3.3577,7.368 3.3577,7.36799 h 2.0569 H 1011 Z M 771.29338,786 C 774.00836,786 777,783.19517 777,780.64973 777,778.0252 772.20265,773 769.69712,773 c -1.06078,0 -4.16404,0.7875 -6.89612,1.75 l -4.96743,1.75 0.63376,4 c 0.34856,2.2 1.29726,5.01384 2.10821,6.25297 l 1.47446,2.25298 3.59713,-1.50298 C 767.62554,786.67634 770.16636,786 771.29338,786 Z M 1275,783.5 c 1.2917,-1.375 3.2473,-2.5 4.3456,-2.5 1.0983,0 2.8199,-0.74474 3.8257,-1.65499 L 1285,777.69002 V 774.93 772.16997 l -4.5673,-4.02031 c -4.5144,-3.97376 -9.3623,-5.92923 -11.47,-4.62662 -0.5973,0.36918 -1.4972,1.75253 -1.9996,3.0741 L 1266.0495,769 h -2.6236 c -1.443,0 -4.1344,-0.71692 -5.981,-1.59315 l -3.3573,-1.59315 -2.0523,-3.47852 -2.0524,-3.47853 -1.7415,0.32461 c -0.9578,0.17854 -2.5172,1.89829 -3.4654,3.82168 -0.9482,1.92338 -2.9732,4.20605 -4.5,5.0726 l -2.776,1.57555 -0.332,2.2694 c -0.1826,1.24817 0.2095,3.57667 0.8713,5.17445 L 1239.2426,780 h 1.8597 1.8596 l 0.4891,-2.25 c 0.269,-1.2375 0.6151,-3.3704 0.769,-4.73978 l 0.28,-2.48979 1.7628,-0.336 1.7628,-0.336 5.2372,3.79279 c 2.8805,2.08603 5.4622,4.0424 5.7372,4.34747 2.8552,3.16746 9.8118,8.01131 11.5057,8.01131 1.1801,0 3.2026,-1.125 4.4943,-2.5 z m -616.54271,-4.4309 c 0.31644,-0.512 0.11799,-1.21356 -0.44098,-1.55902 L 657,776.88197 v 1.55901 c 0,1.75653 0.60006,2.01516 1.45729,0.62812 z m 56.29318,-5.8191 0.4162,-1.25 h -2.58334 c -2.52385,0 -3.28827,0.96173 -1.88209,2.3679 1.02877,1.02878 3.56787,0.32779 4.04923,-1.1179 z M 695,770.5 c 0,-0.825 -0.43588,-1.5 -0.96862,-1.5 -0.53273,0 -0.70959,0.675 -0.39301,1.5 0.31659,0.825 0.75246,1.5 0.96862,1.5 0.21615,0 0.39301,-0.675 0.39301,-1.5 z m 262.23319,-6.75 c 0.67273,-1.88049 -0.83085,-14.86015 -2.08514,-18 -1.25586,-3.14379 -3.62713,-3.59186 -5.03978,-0.9523 l -0.9621,1.79769 1.58516,7.45231 c 1.86436,8.76492 5.10647,13.60291 6.50186,9.7023 z m 142.56411,-1.81073 0.2974,-2.54362 -1.9844,-1.79579 c -1.0913,-0.98768 -2.4626,-1.50014 -3.0473,-1.1388 -2.5258,1.561 0.051,8.84491 2.937,8.3033 l 1.5,-0.28146 z M 882.75,759.36971 885,758.76674 v -3.23415 c 0,-3.51646 -1.79868,-9.53487 -2.84783,-9.52885 -0.35869,0.002 -2.11467,0.89544 -3.90217,1.9853 L 875,749.9706 v 2.7922 c 0,3.10843 2.466,7.24461 4.3067,7.22355 0.65632,-0.008 2.2058,-0.285 3.4433,-0.61664 z m 353.3953,-5.2518 0.9369,-2.46429 -1.4829,-1.48286 -1.4828,-1.48286 -1.7001,3.56516 -1.7001,3.56515 0.6537,1.70352 0.6537,1.70352 1.5923,-1.32153 c 0.8758,-0.72684 2.014,-2.43045 2.5293,-3.78581 z M 987.90119,737.0732 c -0.0627,-4.28967 -0.45947,-8.35847 -0.88177,-9.04178 l -0.76783,-1.24237 -2.54183,1.66547 c -3.50361,2.29565 -3.82381,3.66995 -2.25982,9.69927 1.30804,5.04264 3.91546,8.35645 5.70495,7.25048 0.47313,-0.29241 0.80897,-4.04139 0.7463,-8.33107 z m 227.85711,7.09733 c 0.6921,-0.43937 1.8884,-3.01998 2.6584,-5.73469 0.7701,-2.71471 1.7174,-5.94287 2.1051,-7.17369 l 0.7051,-2.23785 -1.768,-0.67844 -1.768,-0.67845 -4.0954,2.16907 c -2.2525,1.19299 -5.108,2.16783 -6.3455,2.1663 L 1205,732 v 2.09571 c 0,1.88452 1.998,6.30639 4.3622,9.65429 0.9914,1.40387 4.4853,1.63359 6.3961,0.42053 z M 970.8,739.8 c 1.72755,-1.72755 1.47622,-4.48003 -0.47754,-5.22976 l -1.67754,-0.64373 -1.42524,1.42524 -1.42524,1.42524 0.67017,2.1115 c 0.74739,2.35482 2.5195,2.7274 4.33539,0.91151 z M 1126.1833,735.78333 1125,734.6 v 1.03333 c 0,1.33478 1.1826,2.51739 1.85,1.85 0.2842,-0.28416 -0.016,-1.04916 -0.6667,-1.7 z M 1053,726.05902 c 0,-1.17986 -1.9504,-2.442 -2.6667,-1.72569 -0.7163,0.71632 0.5459,2.66667 1.7257,2.66667 0.5176,0 0.941,-0.42344 0.941,-0.94098 z m -51.9367,-6.63524 1.3081,-1.57621 -1.345,-0.83127 c -1.48894,-0.9202 -4.15182,-0.2236 -5.21042,1.36301 -1.80588,2.70663 3.06341,3.67587 5.24732,1.04447 z m 217.7531,-3.7509 c 0.1741,-1.47008 -0.1153,-2.67288 -0.643,-2.67288 -1.0699,0 -2.1734,2.3686 -2.1734,4.66512 v 1.50155 l 1.25,-0.41046 c 0.6875,-0.22574 1.3924,-1.61324 1.5664,-3.08333 z M 1011,712 c 0,-0.55 -0.1984,-1 -0.441,-1 -0.2425,0 -0.7191,0.45 -1.059,1 -0.3399,0.55 -0.1415,1 0.441,1 0.5824,0 1.059,-0.45 1.059,-1 z m 126.4737,327.5263 c -4.0522,-4.0522 -5.7476,-7.5263 -3.673,-7.5263 0.4404,0 1.7846,-2.025 2.987,-4.5 l 2.1863,-4.5 h 1.9743 1.9742 l 1.5082,5.0785 c 0.8295,2.7932 1.7881,6.5708 2.1303,8.3947 l 0.6221,3.3162 -1.1267,2.1053 c -1.6758,3.1311 -3.6196,2.5947 -8.5827,-2.3684 z m 158.2426,-3.3029 -2.7838,-1.7234 -1.1237,-3.7473 -1.1237,-3.7472 1.8124,-2.0028 c 2.3894,-2.6401 2.9819,-2.5623 9.2039,1.2086 l 5.2986,3.2113 0,1.5387 c -10e-5,1.5037 -6.104,7.0648 -7.6966,7.0121 -0.4419,-0.015 -2.0561,-0.8021 -3.5871,-1.75 z m -579.10129,-2.6882 c -2.39883,-3.6611 -1.99244,-5.7771 1.81908,-9.4713 l 3.43408,-3.3285 1.70361,0.6538 1.7036,0.6537 -0.57257,5.5476 c -0.31491,3.0512 -1.10697,6.1916 -1.76013,6.9786 -1.79688,2.1651 -4.52352,1.7196 -6.32767,-1.0339 z m 439.41999,-1.4697 -1.0353,-1.9346 0.9668,-2.5428 0.9668,-2.5429 4.7834,-3.0036 c 5.568,-3.4963 7.3578,-3.7218 9.6283,-1.2129 2.4062,2.6588 2.0766,3.5998 -1.9301,5.5105 -1.9718,0.9403 -4.7118,3.0486 -6.0889,4.6852 -2.8777,3.42 -5.7949,3.8366 -7.291,1.0411 z m -477.54708,-7.0851 c -0.34657,-0.5607 -0.18862,-2.4732 0.35099,-4.25 0.53962,-1.7767 0.94661,-4.7202 0.90444,-6.541 l -0.0767,-3.3106 2.57974,-2.5798 2.57974,-2.5797 1.58692,0.609 1.58693,0.6089 v 5.0811 5.081 l -1.49429,2.8897 c -1.40226,2.7116 -5.06288,6.011 -6.6692,6.011 -0.39516,0 -1.00203,-0.4588 -1.34859,-1.0196 z m 352.95898,-0.3956 -1.8891,-1.3813 1.2996,-6.3518 c 1.4972,-7.3179 5.0074,-14.3517 7.1621,-14.3517 h 1.4805 l 0.3092,3.1948 0.3093,3.1947 -1.4641,2.3053 c -0.8052,1.2678 -1.771,4.6451 -2.1462,7.5049 -0.3751,2.8598 -1.2423,5.6647 -1.9272,6.233 l -1.2451,1.0334 z m 211.5684,-3.3348 c 0.024,-2.7464 1.5516,-4.4796 3.6045,-4.0898 l 1.8802,0.3569 0.3164,2.7415 0.3164,2.7414 H 1246.0664 1243 Z m 88.6317,-4.3328 c -0.2302,-0.7795 -0.9254,-3.2875 -1.5449,-5.5735 l -1.1262,-4.1562 -6.9643,-2.1154 -6.9644,-2.1153 -1.079,-2.0162 c -1.9757,-3.6917 1.2261,-8.9406 5.4538,-8.9406 h 2.2792 l 4.8994,5.90957 c 2.6947,3.25023 5.6955,6.13543 6.6686,6.41143 l 1.7691,0.5018 -0.6468,5.8386 c -0.3558,3.2112 -1.0247,6.2513 -1.4864,6.7558 l -0.8395,0.9172 z M 1396.7103,1004 c -0.2877,-1.1 -0.1152,-2 0.3833,-2 0.4985,0 0.9064,0.9 0.9064,2 0,1.1 -0.1725,2 -0.3834,2 -0.2108,0 -0.6187,-0.9 -0.9063,-2 z m -22.4603,-5.11878 c -3.7643,-1.0869 -4.0252,-2.10597 -1.25,-4.88122 2.2795,-2.27948 2.8822,-2.37547 6.4349,-1.02475 L 1382,993.9505 v 2.41776 2.41776 l -1.5818,0.60699 c -1.8595,0.71359 -1.9506,0.70599 -6.1682,-0.51179 z m -450.86167,-4.47014 c -0.93602,-3.72937 0.18059,-12.67679 2.0278,-16.2489 L 927,975.09932 V 969.04966 963 l 1.25,0.0634 c 0.6875,0.0349 3.72029,1.27991 6.73954,2.76678 l 5.48953,2.7034 0.33323,1.73031 0.33323,1.7303 -2.47563,0.94123 c -3.18248,1.20998 -3.36291,1.54436 -5.64221,10.45635 -1.05383,4.12043 -2.62773,8.86792 -3.49755,10.54997 L 927.94864,997 h -1.95527 -1.95527 z m 427.64837,-1.34252 c -0.5685,-1.06229 -1.721,-4.89512 -2.5611,-8.51739 l -1.5274,-6.58596 1.0611,-1.9826 c 1.4293,-2.67066 2.0855,-2.52414 5.6762,1.26739 4.1692,4.40242 8.3145,11.26003 8.3145,13.75488 v 2.04462 l -2.5651,0.97525 c -1.4108,0.53639 -3.645,0.97525 -4.9648,0.97525 h -2.3997 z m -811.36914,-1.19479 -1.83244,-1.06542 -3.40354,0.63851 -3.40355,0.63851 -2.26402,-1.21633 C 527.51881,990.20005 525.15,989.3749 523.5,989.03536 l -3,-0.61735 V 986.959 985.5 l 2.81047,-0.32226 c 1.54576,-0.17724 3.43667,0.19744 4.20201,0.83262 l 1.39154,1.15488 2.21344,-0.70252 c 1.21739,-0.38639 3.30399,-1.99856 4.63688,-3.58262 L 538.17779,980 h 2.6886 c 3.34517,0 7.13484,2.55486 7.12987,4.8067 -0.005,2.40085 -3.72144,8.1992 -5.23156,8.16289 -0.69559,-0.0167 -2.0893,-0.50984 -3.09714,-1.09582 z M 868.52768,991.75 c -0.41702,-1.27281 -1.37171,-8.84194 -1.79419,-14.22499 l -0.23349,-2.97499 1.79804,-0.35759 c 0.98892,-0.19667 2.49216,0.21849 3.34054,0.92258 l 1.54249,1.28016 -0.63087,5.55241 c -0.34697,3.05383 -0.87347,6.78992 -1.16999,8.30242 -0.55887,2.85076 -2.13792,3.6811 -2.85253,1.5 z m 160.07932,-3.33179 c -0.7839,-2.04286 -0.7894,-10.90247 -0.01,-11.68465 0.3298,-0.32987 1.6502,-0.12114 2.9341,0.46385 l 2.3344,1.06362 0.6411,3.79462 0.6411,3.79462 -1.1104,2.07487 c -1.3113,2.45009 -4.5687,2.74571 -5.4331,0.49307 z m -130.01965,-3.59696 -1.52605,-2.17875 3.53787,-3.43593 3.53787,-3.43594 -0.67042,-3.96822 -0.67043,-3.96822 2.35191,0.33291 2.3519,0.3329 -0.0706,7.39553 -0.0706,7.39554 -2.29017,1.85446 c -2.99105,2.42201 -4.61457,2.34078 -6.48125,-0.32428 z M 1194.5688,976.75 c -0.7311,-1.7875 -1.622,-4.21079 -1.9799,-5.38509 l -0.6507,-2.13509 3.1076,-2.61491 c 1.7092,-1.4382 3.4976,-2.61491 3.9742,-2.61491 1.5169,0 3.8501,4.16671 3.2841,5.8648 -1.412,4.23588 -4.5809,10.1352 -5.4443,10.1352 -0.529,0 -1.56,-1.4625 -2.291,-3.25 z M 1000,961.14217 v -7.92819 l 1.4711,-0.5645 c 2.1034,-0.80716 4.5289,2.01671 4.5289,5.27273 0,4.14538 -1.9611,8.98661 -4.1052,10.13408 L 1000,969.07037 Z M 559.99164,965.95836 558.5,965 l 1.49164,-0.95836 1.49164,-0.95836 0.95836,0.95836 L 563.4,965 l -0.95836,0.95836 -0.95836,0.95836 z m 406.69892,-8.32235 c -0.28787,-0.7502 0.10118,-5.54507 0.86456,-10.65527 l 1.38797,-9.29126 2.20277,-2.34474 C 972.35738,934.05513 974.21833,933 975.2813,933 h 1.93268 l -0.58795,1.53215 c -0.32336,0.84269 -1.26622,4.14974 -2.09523,7.34901 C 973.06623,947.53309 968.43683,959 967.6196,959 c -0.22309,0 -0.64116,-0.6138 -0.92904,-1.36399 z M 468.70701,907.30537 c -0.26371,-0.44295 -1.06047,-3.42949 -1.77058,-6.63675 l -1.29111,-5.83138 1.37346,-0.84884 1.37346,-0.84885 1.66673,0.89201 c 0.9167,0.4906 2.23925,2.27419 2.93899,3.96352 l 1.27226,3.07151 -0.92057,3.20984 -0.92057,3.20984 -1.6213,0.31223 c -0.89172,0.17173 -1.83707,-0.0502 -2.10077,-0.49313 z m 880.67409,-10.65401 -2.7382,-2.35523 1.9792,-3.39807 1.9792,-3.39806 2.0239,-0.29656 2.0239,-0.29656 1.3004,3.93998 c 1.3925,4.21938 1.0278,5.55973 -1.9456,7.15105 l -1.8847,1.00867 z m -965.14278,-7.81304 c -1.67813,-1.67813 -1.56354,-5.32352 0.21369,-6.79849 l 1.45201,-1.20507 2.10329,0.66756 2.10329,0.66756 -0.3053,3.66506 -0.3053,3.66506 -2.01168,0.28832 c -1.10642,0.15858 -2.56892,-0.26892 -3.25,-0.95 z M 1630.6875,872.35417 c -1.2539,-1.25389 -0.7119,-4.13082 0.8943,-4.74718 2.4298,-0.93239 2.5738,-0.79923 2.2346,2.06589 -0.3165,2.67397 -1.835,3.9752 -3.1289,2.68129 z M 1453,864 v -2.14665 l 1.75,0.33702 c 0.9625,0.18536 1.75,0.99969 1.75,1.80963 0,0.80994 -0.7875,1.62427 -1.75,1.80963 l -1.75,0.33702 z m -1086.84665,-5.75 -0.91702,-1.75 0.85781,-2.27217 c 0.4718,-1.24969 1.65612,-2.55373 2.63184,-2.89788 0.97571,-0.34414 3.28656,-1.74524 5.13523,-3.11355 l 3.36121,-2.48783 6.83783,0.57326 c 3.76081,0.31529 7.76077,1.0672 8.88879,1.6709 L 395,849.07037 v 3.42586 3.42586 l -2.18856,2.03895 c -2.75476,2.56645 -4.85824,2.57659 -8.08431,0.039 -1.39842,-1.1 -3.87342,-2 -5.5,-2 -1.62658,0 -4.10158,0.9 -5.5,2 -3.13532,2.46624 -6.35673,2.57258 -7.57378,0.25 z M 1370.75,853.60795 c -3.6447,-2.76668 -2.5416,-3.35891 9.75,-5.23478 l 3,-0.45784 3.25,2.02763 c 1.7875,1.11521 3.25,2.70926 3.25,3.54234 V 855 l -8.75,-0.0318 -8.75,-0.0318 z M 321.46041,845.92343 c -0.86206,-1.66702 -1.81944,-5.15923 -2.12751,-7.76045 l -0.56014,-4.7295 1.64323,-1.36376 1.64324,-1.36376 2.41749,1.10148 c 4.02329,1.83313 6.05819,6.26031 5.63397,12.25735 -0.0609,0.86063 -1.67944,2.31287 -3.5968,3.2272 l -3.48611,1.66241 z m 38.20626,-8.5901 C 358.46215,836.12882 358.96991,832.26986 360.5,831 L 362,829.75511 363.5,831 c 1.99539,1.65603 1.89212,3.33516 -0.32874,5.34501 -2.02115,1.82912 -2.52243,1.97049 -3.50459,0.98832 z m 1238.15393,-6.68245 c -3.059,-1.84201 -7.0192,-3.64061 -8.8006,-3.99687 l -3.2387,-0.64775 -2.9674,2.49687 c -3.7043,3.11698 -5.3405,3.12188 -11.1492,0.0334 -2.5482,-1.3549 -6.957,-2.77174 -9.7974,-3.14853 l -5.1644,-0.68508 -1.9451,-1.94518 -1.9452,-1.94517 0.8416,-3.65629 c 0.4629,-2.01096 0.815,-6.227 0.7825,-9.36897 l -0.059,-5.71268 -1.8437,-2.03732 L 1550.69,798 l -2.595,-0.006 c -5.0214,-0.0108 -10.123,-2.12394 -14.7081,-6.09227 l -4.6321,-4.00912 -2.1274,0.30349 -2.1274,0.30348 -0.2956,5.05743 -0.2956,5.05742 4.1426,4.70621 4.1426,4.7062 0.5334,3.9768 0.5334,3.9768 -1.2529,1.50957 c -1.4481,1.74493 -5.2775,1.97085 -8.0704,0.47613 -2.4967,-1.33621 -5.2603,-6.99202 -6.9116,-14.14477 l -1.3109,-5.67821 0.7558,-3.82179 c 0.4156,-2.10198 0.7469,-4.9216 0.7362,-6.26581 l -0.02,-2.44402 -2.5937,-1.88939 c -2.7892,-2.03178 -3.1872,-3.74514 -1.5713,-6.76443 l 1.0224,-1.91038 4.4877,2.1803 4.4877,2.18029 1.6363,-1.63627 c 0.8999,-0.89995 1.9155,-3.35433 2.2568,-5.45417 l 0.6206,-3.81791 h 2.4682 2.4682 l 2.2654,4.77171 2.2655,4.77171 2.7494,1.06346 c 1.5122,0.5849 4.5494,1.8783 6.7494,2.87421 6.4433,2.91682 7.2122,3.01047 12.226,1.48913 6.7371,-2.04423 8.1071,-1.86045 11.2554,1.50992 4.8519,5.19388 10.8097,6.28229 18.9231,3.457 l 4.4045,-1.53376 7.0955,0.11683 c 3.9025,0.0643 9.0245,0.36457 11.3822,0.66737 l 4.2868,0.55053 3.4632,3.36328 3.4633,3.36328 v 4.9619 4.9619 l -2.4451,2.80577 -2.445,2.80576 -5.5281,-5.90347 -5.5281,-5.90348 -4.5036,-0.0965 -4.5037,-0.0965 -2.449,2.5 c -2.4702,2.52153 -2.9323,3.80613 -2.7159,7.54856 l 0.1185,2.04856 5.547,5.45144 c 7.2691,7.14379 9.0948,10.70434 8.5637,16.70144 -0.1891,2.13568 -3.4998,1.38763 -9.2901,-2.09912 z M 483.86348,826.08301 C 478.12665,825.27905 476,823.60081 476,819.87756 V 817 l 1.94725,-1.94725 c 1.94506,-1.94506 4.30978,-2.71494 15.49424,-5.04441 l 5.9415,-1.23748 2.8085,-2.80851 2.80851,-2.8085 v -2.5002 C 505,797.52652 509.53303,792 512.098,792 c 1.05611,0 3.33285,1.35 5.05942,3 3.95448,3.77912 5.61348,3.7623 10.45508,-0.10603 l 3.8875,-3.10602 5.89669,0.60602 c 3.24318,0.33332 7.5782,0.60603 9.63337,0.60603 h 3.73668 l 0.49406,1.8893 c 0.80126,3.06402 -0.68033,4.24898 -5.80086,4.63946 l -4.82253,0.36776 -0.88807,1.58691 c -0.48845,0.8728 -4.03014,4.76029 -7.87044,8.63888 l -6.98236,7.05197 -1.69827,-0.70059 c -0.93405,-0.38533 -2.51177,-0.93383 -3.50604,-1.21888 l -1.80778,-0.51829 -3.00839,2.88174 -3.0084,2.88174 -5.04938,-0.21592 -5.04939,-0.21593 -3.13444,1.60732 c -1.72395,0.88403 -4.20764,2.44369 -5.51931,3.46593 -1.31167,1.02223 -2.88667,1.79847 -3.5,1.72499 -0.61333,-0.0735 -3.20157,-0.42601 -5.75166,-0.78338 z m 1169.93282,-21.93193 -4.1262,-3.84891 0.6181,-1.61091 c 0.9055,-2.35962 8.6585,-7.69126 11.1843,-7.69126 1.1948,0 4.7272,1.3838 7.8499,3.07511 l 5.6776,3.07511 v 2.25058 c 0,4.34009 -7.0738,8.5992 -14.2821,8.5992 h -2.7953 z M 600,777.12244 c 0,-1.58265 0.62732,-3.39818 1.39405,-4.03451 l 1.39406,-1.15696 1.60594,1.60594 c 1.75789,1.75788 1.9108,2.50509 0.99896,4.8813 L 604.78602,780 H 602.39301 600 Z"/>
	</svg>
	<text x="57.00" y="39.00" style="font-size:12.00px;font-style:normal;font-variant:normal;font-weight:bold;font-stretch:condensed;text-anchor:end;fill:#000000;fill-opacity:1;font-family:Nimbus Sans L">1S</text>
</svg>
