<?xml version="1.0" encoding="UTF-8" standalone="no"?>
<svg
   xmlns:svg="http://www.w3.org/2000/svg"
   xmlns="http://www.w3.org/2000/svg" 
   xmlns:xlink="http://www.w3.org/1999/xlink"
   width="48" height="48">
<g id="pf43" transform="translate(8,9) rotate(5,8,44)">
  <polygon id="charge" points="0.7439,0 1.7713,1.417 2.0547,2.4089 -2.0547,2.4089 -1.7713,1.417 -0.7439,0" style="stroke:white;stroke-width:0.2;fill:#3c3c3c" />
  <polygon id="head" points="2.0547,2.4089 2.0547,2.6923 1.0628,7.2267 0.7085,7.7935  0.7085,10.9109 -0.7085,10.9109 -1.0628,7.2267 -2.0547,2.6923 -2.0547,2.4089" style="stroke:none;fill:#2f2f2f" />
  <polygon id="tube" points="0.6085,10.9109 0.6085,35 -0.6085,35 -0.6085,10.9109" style="stroke:white;stroke-width:0.2;fill:none" />
  <line x1="0.6085" y1="34.8" x2="-0.6085" y2="34.8" style="stroke:white;stroke-width:0.1" />
  <polygon id="midband" points="0.6085,15.3036 0.6085,18.1377 -0.6085,18.1377 -0.6085,15.3036" style="stroke:none;fill:#4c4c4c" />
  <polygon id="trigger" points="0.7085,12.6113 1.1336,13.0364 1.1336,19.8381 0.7794,19.8381 0.7794,17.996 0.7085,17.996" style="stroke:none;fill:white" />
  <line x1="0.6085" y1="12.1862" x2="-0.6085" y2="12.1862" style="stroke:white;stroke-width:0.4" />
  <line x1="0.6085" y1="14.4534" x2="-0.6085" y2="14.4534" style="stroke:white;stroke-width:0.4" />

</g>
<g id="PFtext">
  <text style="font-size:11px;font-style:normal;font-variant:normal;font-weight:bold;font-stretch:normal;fill:#ffffff;fill-opacity:1;font-family:Nimbus Sans L" x="31" y="12" >PF</text>
  <text style="font-size:11px;font-style:normal;font-variant:normal;font-weight:bold;font-stretch:normal;fill:#ffffff;fill-opacity:1;font-family:Nimbus Sans L" x="23.5" y="44" >16-1</text>
  <text style="font-size:7px;font-style:normal;font-variant:normal;font-weight:bold;font-stretch:normal;fill:#ffffff;fill-opacity:1;font-family:Nimbus Sans L" x="26.6" y="34.5" >31TK</text>
  <text style="font-size:6px;font-style:normal;font-variant:normal;font-weight:bold;font-stretch:normal;fill:#ffffff;fill-opacity:1;font-family:Nimbus Sans L" x="26" y="18.5" >10/43-</text>
  <text style="font-size:6px;font-style:normal;font-variant:normal;font-weight:bold;font-stretch:normal;fill:#ffffff;fill-opacity:1;font-family:Nimbus Sans L" x="31" y="25" >5/44</text>
 </g>
</svg>
