<svg xmlns:svg="http://www.w3.org/2000/svg" width="48" height="48" xmlns="http://www.w3.org/2000/svg" xmlns:xlink="http://www.w3.org/1999/xlink">
<g id="rupf43" transform="translate(8,9) rotate(5,8,44)">
  <polygon style="stroke:black;stroke-width:0.2;fill:#3c3c3c" points="0.7439,0 1.7713,1.417 2.0547,2.4089 -2.0547,2.4089 -1.7713,1.417 -0.7439,0" id="charge"/>
  <polygon style="stroke:none;fill:#2f2f2f" points="2.0547,2.4089 2.0547,2.6923 1.0628,7.2267 0.7085,7.7935  0.7085,10.9109 -0.7085,10.9109 -1.0628,7.2267 -2.0547,2.6923 -2.0547,2.4089" id="head"/>
  <polygon style="stroke:black;stroke-width:0.2;fill:none" points="0.6085,10.9109 0.6085,35 -0.6085,35 -0.6085,10.9109" id="tube"/>
  <line y2="34.8" style="stroke:black;stroke-width:0.1" x1="0.6085" x2="-0.6085" y1="34.8"/>
  <polygon style="stroke:none;fill:#4c4c4c" points="0.6085,15.3036 0.6085,18.1377 -0.6085,18.1377 -0.6085,15.3036" id="midband"/>
  <polygon style="stroke:none;fill:black" points="0.7085,12.6113 1.1336,13.0364 1.1336,19.8381 0.7794,19.8381 0.7794,17.996 0.7085,17.996" id="trigger"/>
  <line y2="12.1862" style="stroke:black;stroke-width:0.4" x1="0.6085" x2="-0.6085" y1="12.1862"/>
  <line y2="14.4534" style="stroke:black;stroke-width:0.4" x1="0.6085" x2="-0.6085" y1="14.4534"/>

</g>
<g id="PFtext">
  <text x="31" style="font-size:11px;font-style:normal;font-variant:normal;font-weight:bold;font-stretch:normal;text-anchor:left;fill:black;fill-opacity:1;font-family:Nimbus Sans L" y="12">PF</text>
  <text x="23.5" style="font-size:11px;font-style:normal;font-variant:normal;font-weight:bold;font-stretch:normal;text-anchor:left;fill:black;fill-opacity:1;font-family:Nimbus Sans L" y="44">16-1</text>
  <text x="26.6" style="font-size:7px;font-style:normal;font-variant:normal;font-weight:bold;font-stretch:normal;text-anchor:left;fill:black;fill-opacity:1;font-family:Nimbus Sans L" y="34.5">31TK</text>
  <text x="28.5" style="font-size:6px;font-style:normal;font-variant:normal;font-weight:bold;font-stretch:normal;text-anchor:left;fill:black;fill-opacity:1;font-family:Nimbus Sans L" y="18.5">3/44-</text>
  <text x="31" style="font-size:6px;font-style:normal;font-variant:normal;font-weight:bold;font-stretch:normal;text-anchor:left;fill:black;fill-opacity:1;font-family:Nimbus Sans L" y="25">5/44</text>

 </g>
</svg>