<?xml version="1.0" encoding="UTF-8" standalone="no"?>
<svg width="60" height="60" version="1.1" xmlns="http://www.w3.org/2000/svg" xmlns:svg="http://www.w3.org/2000/svg" xmlns:xlink="http://www.w3.org/1999/xlink">
	<!--
		Note #:		84
		Name:		FlaKPz 38(t) <i>SPAA</i>
		Version:	1.0

		Author(s): Gordon Molek, Klas Malmström, Alan Bills
		Tester(s): Alan Bills, Alan Cannamore, Doug Rimmer
		Counter data scraped with permission from: https://www.klasm.com/ASL/Listings/VehicleListings.html
	-->

	<defs id="fonts">
		<style>
			@font-face {
				font-family: Nimbus Sans L;
				font-weight: normal;
				font-style: normal;
				src: url("../../fonts/NimbusSanL-Reg.ttf") format("ttf");
			}
			@font-face {
				font-family: Nimbus Sans L;
				font-weight: bold;
				font-style: normal;
				src: url("../../fonts/NimbusSanL-Bol.ttf") format("ttf");
			}
			@font-face {
				font-family: Nimbus Sans L;
				font-weight: normal;
				font-style: italic;
				src: url("../../fonts/NimbusSanL-RegIta.ttf") format("ttf");
			}
			@font-face {
				font-family: Nimbus Sans L;
				font-weight: bold;
				font-style: italic;
				src: url("../../fonts/NimbusSanL-BolIta.ttf") format("ttf");
			}
		</style>
	</defs>
	<!-- The bevel - is there a better/more efficient way to achieve this? -->
	<defs id="bevel">
		<filter id="highlight_filter" x="-0.058226637" y="-0.058226637" width="1.1144796" height="1.1144796" style="color-interpolation-filters:sRGB;">
			<feGaussianBlur stdDeviation="10 10" result="fbSourceGraphic" id="feGaussianBlur3"/>
			<feColorMatrix result="fbSourceGraphicAlpha" in="fbSourceGraphic" values="0 0 0 -1 0 0 0 0 -1 0 0 0 0 -1 0 0 0 0 1 0" id="feColorMatrix3"/>
			<feGaussianBlur id="feGaussianBlur4" stdDeviation="10 10" result="blur" in="fbSourceGraphic"/>
		</filter>
		<filter id="shadow_filter" x="-0.030508946" y="-0.030508946" width="1.0629916" height="1.0629916" style="color-interpolation-filters:sRGB;">
			<feGaussianBlur id="feGaussianBlur5" stdDeviation="10 10" result="blur"/>
		</filter>
		<clipPath id="counter_clipping">
			<rect x="0" y="0" width="100%" height="100%" ry="4" rx="4" style="display:inline;fill:red;fill-opacity:1;stroke:none;stroke-width:0;stroke-dasharray:none;stroke-dashoffset:0;stroke-opacity:0"/>
		</clipPath>
	</defs>
	<g id="background">
		<rect id="color" x="0" y="0" width="100%" height="100%" ry="4" rx="4" style="display:inline;fill:#000000;fill-opacity:1;stroke:none;stroke-width:0;stroke-dasharray:none;stroke-dashoffset:0;stroke-opacity:0"/>
		<g id="bevel" clip-path="url(#counter_clipping)">
			<path id="shadow" style="display:inline;fill:none;stroke:#707070;stroke-width:25.1286;filter:url(#shadow_filter);stroke-opacity:50" d="m 1023.6424,120.45592 c 10.8149,10.81495 17.4864,25.7734 17.4864,42.34736 v 830.07515 c 0,33.14797 -26.6859,59.83377 -59.83378,59.83377 H 151.21981 c -16.57396,0 -31.54851,-6.6875 -42.34737,-17.4864" transform="matrix(1.0503456,0,0,1.0590455,-36.912259,-39.56161) scale(0.06) translate(490,500)"/>
			<path id="highlight" style="display:inline;fill:none;stroke:#ffffff;stroke-width:25.1286;stroke-opacity:50;filter:url(#highlight_filter)" d="M 108.87244,1035.2258 C 98.057485,1024.4109 91.386017,1009.4524 91.386017,992.87843 V 162.80328 c 0,-33.14792 26.685873,-59.83379 59.833793,-59.83379 h 830.07521 c 16.57394,0 31.53238,6.67147 42.34738,17.48643" transform="matrix(1.0387133,0,0,1.0339712,-12.412385,-8.9484139) scale(0.06) translate(118,54)"/>
		</g>
	</g>
	<!-- Fast Turret -->
	<svg x="0.00" y="0.00" width="60.00" height="60.00" style="overflow:visible">
		<circle cx="30.00" cy="30.00" r="25.00" style="display:inline;fill:none;fill-opacity:1;stroke:#b4b4b4;stroke-width:1.8;stroke-dasharray:none;stroke-opacity:1"></circle>
	</svg>
	<!-- Unit depiction -->
	<svg x="0.00" y="0.00" width="60.00" height="60.00" viewBox="0 0 1800 1800">
		<path style="fill:#ffffff" d="m 683.56496,1105.2329 c -0.14617,-0.1469 -29.31323,-0.3303 -64.81569,-0.4076 l -64.54992,-0.1405 -3.6806,-3.7924 c -2.02433,-2.0858 -5.67451,-4.7576 -8.11152,-5.9373 C 535.8796,1091.7951 525,1081.3343 525,1078.2179 c 0,-1.6846 -1.35007,-3.6844 -4.12555,-6.111 -2.26906,-1.9838 -4.49647,-4.0569 -4.94981,-4.6069 -5.21911,-6.3319 -8.72677,-9.8634 -10.92677,-11.0011 -1.45883,-0.7544 -3.74188,-3.4253 -5.07343,-5.9353 -1.33155,-2.51 -2.83032,-4.5636 -3.33059,-4.5636 -0.50027,0 -3.46662,-2.5875 -6.59187,-5.75 -3.12526,-3.1625 -7.57761,-7.0335 -9.89412,-8.6022 -2.31651,-1.5687 -5.27134,-4.4937 -6.5663,-6.5 -1.29496,-2.0063 -4.94065,-6.3478 -8.10154,-9.6478 -3.16089,-3.3 -6.38159,-7.575 -7.15713,-9.5 -0.77553,-1.925 -2.60705,-4.4971 -4.07005,-5.7158 l -2.66001,-2.21589 0.0781,-97.57759 0.0781,-97.57758 2.52072,-2.70657 c 1.3864,-1.48861 2.9265,-3.98047 3.42245,-5.53747 1.25278,-3.93302 8.10057,-11.97313 12.59779,-14.79131 2.0625,-1.29246 3.75,-2.74745 3.75,-3.23331 0,-0.48586 5.7375,-6.65318 12.75,-13.70516 7.0125,-7.05198 17.50853,-17.69473 23.32451,-23.65055 5.81598,-5.95583 11.72757,-11.5843 13.13688,-12.50771 1.4093,-0.92341 3.51725,-3.22396 4.68433,-5.11234 1.16708,-1.88837 3.46799,-3.99095 5.11312,-4.67238 1.64514,-0.68144 2.99116,-1.69246 2.99116,-2.24671 0,-0.55426 4.29887,-5.15561 9.55304,-10.22524 l 9.55305,-9.2175 94.19695,0.0966 94.19696,0.0965 3.17308,3.25 c 1.74519,1.7875 3.99519,3.26001 5,3.27224 1.0048,0.0122 2.95192,0.90222 4.32692,1.97776 1.85699,1.45256 4.09019,1.96125 8.68261,1.97776 5.19566,0.0187 6.27937,0.32709 6.78873,1.93193 1.50344,4.73694 -4.438,4.53278 137.34542,4.71939 l 133.56564,0.1758 1.8319,2.51476 1.8319,2.51477 68.7269,0.11221 c 37.7998,0.0617 100.8241,0.21148 140.054,0.3328 l 71.327,0.22058 3.423,3.73531 c 1.8826,2.05443 3.4229,4.78092 3.4229,6.05888 0,3.48398 2.096,5.55817 5.962,5.89984 3.162,0.27946 3.5742,0.6958 4.758,4.80597 0.7128,2.475 2.3049,5.2631 3.538,6.19578 2.1652,1.63766 2.2402,2.25237 2.1897,17.93409 -0.043,13.26297 -0.3175,16.32238 -1.5,16.69719 -1.6085,0.50986 -13.6202,12.74369 -17.477,17.80029 -3.1222,4.09341 -3.1154,6.45297 0.029,10.19028 2.6485,3.14754 3.0196,6.11225 1.8413,14.70898 -0.6072,4.42977 -1.4286,5.57837 -10.5,14.68151 l -9.8413,9.87577 -0.1575,20.20806 c -0.087,11.11443 -0.074,20.88305 0.028,21.70805 0.102,0.825 0.113,19.725 0.024,42 -0.2588,65.15911 -0.3564,62.66288 2.587,66.16086 1.385,1.64593 2.5181,3.63304 2.5181,4.41584 0,1.6555 0.5019,1.7651 8.5,1.8555 5.9949,0.068 6.0001,0.07 6.0645,3.1235 0.051,2.4252 1.6718,4.6946 7.8553,11 4.2849,4.3694 8.1261,8.8443 8.5359,9.9443 0.4099,1.1 0.8247,10.4154 0.9219,20.701 l 0.1768,18.701 -3.6958,3.299 c -2.0326,1.8144 -4.4074,4.1412 -5.2772,5.1705 -0.8698,1.0293 -4.2528,4.6293 -7.5178,8 l -5.9364,6.1285 -13.5636,0.5673 c -15.7023,0.6567 -262.5056,0.1188 -265.6941,-0.5791 -1.1718,-0.2565 -2.352,-1.3135 -2.6228,-2.3489 -0.6722,-2.5703 -2.0654,-2.6105 -104.45425,-3.0146 l -86.20756,-0.3403 -3.68982,2.2804 c -2.0294,1.2543 -5.97244,2.6413 -8.76231,3.0823 -2.78987,0.4411 -6.37203,1.7627 -7.96037,2.937 -3.39041,2.5066 -11.85083,2.901 -62.43218,2.9103 -28.99685,0.01 -30.3311,0.089 -31.96855,2.0013 -0.93981,1.0976 -3.29791,2.2771 -5.24021,2.6211 -1.9423,0.344 -4.6892,1.7037 -6.10423,3.0216 -2.52433,2.3511 -2.96371,2.4006 -23.33463,2.6289 -11.41902,0.128 -20.88146,0.1125 -21.02763,-0.034 z m -0.87962,-18.2 c 3.70226,-2.9122 15.18972,-2.9334 17.81466,-0.033 1.50981,1.6683 3.07997,2 9.4679,2 7.13855,0 7.84569,-0.196 10.42655,-2.8898 1.52275,-1.5894 3.20728,-4.8421 3.74339,-7.2281 0.53611,-2.3861 1.84941,-5.1532 2.91845,-6.1492 3.05769,-2.8486 2.46173,-6.8384 -1.61125,-10.7867 l -3.55496,-3.4462 -19.19504,-0.2799 c -10.55727,-0.1539 -44.09165,-0.3789 -74.52084,-0.5 l -55.32579,-0.2201 -3.42421,3.7353 c -2.20662,2.4071 -3.4242,4.7382 -3.4242,6.5557 0,1.5513 -1.125,4.3453 -2.5,6.209 -1.375,1.8637 -2.5,4.371 -2.5,5.5718 0,3.9842 2.28597,4.6934 16.00405,4.9649 12.2966,0.2434 13.11915,0.3892 16.03337,2.8413 l 3.07182,2.5848 41.99586,-0.4485 c 40.34851,-0.431 42.09723,-0.5283 44.58024,-2.4814 z m 82.77781,-9.9324 c 2.43489,-2.308 4.17353,-2.9662 8.77135,-3.3206 3.396,-0.2617 6.48122,-1.1176 7.56562,-2.099 1.00711,-0.9114 3.23257,-1.9374 4.94545,-2.28 1.71289,-0.3426 4.1243,-1.6979 5.3587,-3.0119 1.81949,-1.9367 3.24921,-2.389 7.55248,-2.389 4.93101,0 5.64279,-0.3207 10.01857,-4.5134 2.87609,-2.7558 6.29036,-4.9324 8.76756,-5.5894 2.23142,-0.5918 4.95712,-1.8767 6.05712,-2.8554 1.1,-0.9786 3.31977,-2.0926 4.93282,-2.4755 1.61304,-0.3829 4.23507,-1.792 5.82672,-3.1312 1.59165,-1.3393 3.70153,-2.4351 4.68863,-2.4351 0.98709,0 4.09759,-2.2313 6.91221,-4.9585 3.19483,-3.0955 6.6086,-5.36 9.08633,-6.0272 2.18287,-0.5877 4.24619,-1.5174 4.58516,-2.0659 1.55796,-2.5208 -1.15607,-7.0779 -9.06593,-15.2225 -8.31007,-8.5567 -8.56638,-8.7258 -13.22016,-8.7193 -3.05291,0 -5.81591,0.7153 -7.74578,1.9934 -1.65,1.0928 -4.43036,1.9898 -6.17857,1.9934 -3.05908,0.01 -6.32143,2.1223 -6.32143,4.1001 0,1.209 -8.92068,6.9065 -10.81377,6.9065 -0.78221,0 -2.95977,1.35 -4.83901,3 -1.87925,1.65 -4.54252,3 -5.91838,3 -1.60556,0 -4.18991,1.6205 -7.21521,4.5242 -3.30217,3.1694 -5.85992,4.7087 -8.54172,5.1403 -2.70455,0.4353 -4.07619,1.2686 -4.6734,2.8394 -0.91496,2.4066 -2.89875,3.4961 -6.36551,3.4961 -1.3883,0 -3.85036,1.859 -6.65545,5.0253 -3.07664,3.4729 -5.66329,5.3515 -8.37281,6.0811 -5.26878,1.4188 -9.60474,5.8545 -9.60474,9.8258 0,2.0646 -0.99291,4.125 -3,6.2252 -3.21268,3.3618 -3.91449,7.2403 -1.54581,8.5429 0.7998,0.4398 6.07072,0.9075 11.71315,1.0393 10.07698,0.2353 10.31284,0.1885 13.29581,-2.6391 z M 756,1072.1036 c 0,-2.1489 6.64338,-8.442 8.0162,-7.5936 1.2726,0.7865 0.11004,3.536 -2.84988,6.74 -2.95252,3.196 -5.16632,3.5618 -5.16632,0.8536 z m 76.69291,-44.8039 c -2.11609,-0.5484 -1.88143,-3.497 0.30709,-3.8586 0.825,-0.1363 2.28371,-0.563 3.24157,-0.9482 2.58239,-1.0385 3.60527,2.4147 1.22978,4.1517 -1.01948,0.7455 -2.1051,1.3032 -2.41248,1.2394 -0.30738,-0.064 -1.37206,-0.3267 -2.36596,-0.5843 z m -20.06646,47.8982 c -1.08401,-1.084 -1.86277,-1.1418 -3.50979,-0.2603 -2.71315,1.452 -2.67666,2.4946 0.13334,3.81 1.76625,0.8268 2.52085,0.7082 3.50978,-0.5517 1.02073,-1.3004 0.99543,-1.8693 -0.13333,-2.998 z m -259.92406,0.6059 c 2.39222,-2.3186 3.29761,-4.0845 3.29761,-6.4319 0,-2.4539 0.72489,-3.7519 3,-5.3719 2.76283,-1.9673 3,-2.6107 3,-8.1381 v -6.0019 l -12.25,-12.2741 c -6.7375,-6.7507 -12.98551,-13.1317 -13.88447,-14.18 -4.17871,-4.8727 -28.69665,-28.12712 -30.3069,-28.74503 -0.99747,-0.38276 -3.9987,-0.40607 -6.66939,-0.0518 -4.19589,0.5566 -5.35506,1.25341 -8.52926,5.1271 -3.0734,3.75072 -3.66226,5.22212 -3.60502,9.00832 0.0444,2.9355 0.80204,5.5176 2.15672,7.3499 1.14858,1.5535 2.08832,3.6455 2.08832,4.6488 0,1.0033 1.53713,4.2841 3.41585,7.2905 1.87872,3.0065 4.6142,7.3791 6.07884,9.717 1.72437,2.7525 3.60449,4.4483 5.33415,4.8111 5.64281,1.1838 9.21241,3.4568 10.86249,6.9171 0.91819,1.9255 2.5861,3.7918 3.70648,4.1474 1.12038,0.3556 4.39978,2.9476 7.28756,5.7601 2.88777,2.8125 6.27743,6.0349 7.53256,7.161 1.25514,1.1261 4.40015,4.3886 6.98891,7.25 2.58875,2.8614 5.26733,5.2026 5.95239,5.2026 0.68505,0 2.72948,-1.4383 4.54316,-3.1962 z m 464.95131,-5.9125 c 4.8064,0.2414 6.3983,-2.0294 6.0997,-8.7011 l -0.2534,-5.6601 -4,-0.6829 c -2.2,-0.3755 -11.2113,-0.8005 -20.02508,-0.9445 l -16.02508,-0.2616 -2.67946,2.6794 c -1.47371,1.4737 -3.7904,2.6795 -5.1482,2.6795 -1.3578,0 -3.8559,1.1672 -5.55134,2.5938 -2.89185,2.4334 -3.80936,2.6079 -14.82672,2.8196 -6.45927,0.1242 -15.69539,-0.039 -20.52473,-0.3632 C 925.75628,1063.449 924,1063.9474 924,1067.0925 c 0,1.4979 2.01601,1.7765 17.53096,2.4229 9.64203,0.4017 19.20453,0.4945 21.25,0.2062 2.04547,-0.2882 7.09404,-0.1547 11.21904,0.2968 4.125,0.4515 14.925,0.5719 24,0.2677 9.075,-0.3043 17.9192,-0.4819 19.6537,-0.3948 z m 156.4208,-0.4374 c 0.509,-0.3145 0.9255,-1.2 0.9255,-1.9676 0,-2.1494 -5.5103,-2.7494 -26.3859,-2.8731 -18.6281,-0.1103 -19.1217,-0.1667 -19.4146,-2.2181 -0.266,-1.8628 0.309,-2.1623 5,-2.6041 7.4383,-0.7005 35.7859,-0.337 38.8005,0.4976 1.867,0.5168 3.2596,0.063 5.5,-1.7933 l 3,-2.4854 -6.5,-0.043 c -3.575,-0.024 -17.3,-0.304 -30.5,-0.6226 -13.2,-0.3186 -27.5029,-0.5033 -31.7841,-0.4103 l -7.7842,0.1689 -1.0637,-3.0512 c -0.585,-1.6782 -1.5821,-3.1239 -2.2158,-3.2127 -5.3781,-0.7531 -61.4006,-0.3819 -62.4022,0.4135 -1.8045,1.4332 -1.5406,7.2616 0.4019,8.8755 1.1739,0.9753 5.6589,1.4725 15.5,1.7183 12.7067,0.3174 13.8481,0.4991 13.8481,2.2047 0,2.3159 -3.765,3.0633 -13.6368,2.707 -5.849,-0.2111 -7.5182,0.086 -9.25,1.6474 -1.1623,1.0477 -2.1132,2.2771 -2.1132,2.7319 0,1.43 127.7698,1.7415 130.0745,0.317 z m -55.7387,-6.0211 c -0.7911,-2.0617 1.2825,-4.2145 2.697,-2.8 1.1452,1.1452 0.2811,4.3672 -1.1712,4.3672 -0.5084,0 -1.195,-0.7052 -1.5258,-1.5672 z m 115.0615,4.8917 c 2.5459,-2.9598 0.9952,-2.8078 38.1027,-3.7338 21.1624,-0.528 20.912,-0.5113 20.0896,-1.3407 -1.534,-1.5469 -16.6724,-2.7956 -25.2669,-2.0841 -4.8525,0.4017 -15.7856,0.3077 -24.2958,-0.2089 -13.1174,-0.7964 -15.6954,-0.7171 -16.9332,0.5207 -1.28,1.2801 -1.2525,1.6893 0.2231,3.3199 0.9258,1.0229 1.6832,2.5369 1.6832,3.3645 0,3.6945 3.2873,3.778 6.3973,0.1624 z m -401.67924,0.6892 c 0.66994,-0.01 1.79964,-1.1237 2.51045,-2.4803 3.75525,-7.1672 14.60396,-9.9351 20.84748,-5.3191 2.64451,1.9552 4.5128,2.2616 15.96439,2.6184 14.26458,0.4444 15.95962,-0.074 15.95962,-4.88 0,-1.9926 1.22795,-3.9766 4.25,-6.8667 5.28144,-5.0508 8.12502,-5.2596 10.76212,-0.79 3.92384,6.6504 6.4474,7.6343 19.37022,7.5519 10.75593,-0.069 11.75041,-0.2416 14.14501,-2.4608 2.43872,-2.2602 3.26307,-2.3871 15.50112,-2.3871 12.68364,0 12.95607,-0.047 14.56349,-2.5 1.60908,-2.4558 1.86946,-2.5 14.7193,-2.5 12.38028,0 13.27768,-0.1361 16.7472,-2.5405 2.01627,-1.3973 5.41544,-2.7764 7.55374,-3.0648 6.9679,-0.9396 8.3878,-1.4122 8.3878,-2.7918 0,-0.7474 -1.0063,-2.0271 -2.2363,-2.8438 -1.9316,-1.2826 -2.0512,-1.7078 -0.8775,-3.122 0.7473,-0.9004 2.2466,-1.6371 3.3319,-1.6371 1.0852,0 3.1676,-0.8456 4.6275,-1.8792 1.4599,-1.0335 5.0554,-2.206 7.9899,-2.6056 3.8309,-0.5215 6.2983,-1.5718 8.75,-3.7244 4.2638,-3.7437 4.5603,-6.7826 0.6645,-6.8104 -1.5125,-0.011 -7.025,-0.1783 -12.25,-0.3722 -5.225,-0.1939 -21.0875,-0.41 -35.25,-0.4804 -23.80215,-0.1181 -25.75116,-0.2602 -25.76531,-1.8778 -0.0367,-4.192 -0.63714,-4.2938 -26.2325,-4.4457 l -24.59905,-0.1459 -3.61137,3.1708 c -3.43709,3.0178 -4.01298,3.1708 -11.93373,3.1708 h -8.32237 l -6.00136,7.3121 c -6.61234,8.0564 -14.15546,13.6879 -18.33443,13.6879 -2.08038,0 -3.0024,0.7126 -3.98197,3.0775 -1.51034,3.6463 -4.12933,5.4637 -9.1369,6.3404 -2.79245,0.4889 -4.16148,1.477 -5.73042,4.1362 -1.72335,2.9208 -2.46754,3.3919 -4.53773,2.8723 -2.03039,-0.5096 -3.46899,0.3174 -7.98908,4.5923 -5.58389,5.281 -7.25474,8.0705 -6.02547,10.0595 0.37257,0.6028 1.63912,0.838 2.81455,0.5226 1.17543,-0.3154 2.68527,-0.5796 3.3552,-0.5871 z m 377.13194,-12.02 c 3.4807,-2.5214 4.15,-3.5614 4.15,-6.4485 0,-2.2475 -0.8623,-4.4145 -2.4845,-6.2437 -1.3664,-1.5408 -2.9592,-3.364 -3.5394,-4.0515 -0.6275,-0.7436 -3.4827,-1.25 -7.0469,-1.25 -6.5115,0 -8.3292,1.5286 -6.087,5.1189 1.643,2.631 1.4457,4.2431 -0.8422,6.8811 -2.249,2.5931 -2.5986,6.0014 -0.8,7.8 0.66,0.66 3.7425,1.2 6.85,1.2 4.6933,0 6.3526,-0.509 9.8,-3.0063 z m 70.0395,-8.5499 c 0.2625,-0.2624 -0.014,-0.9682 -0.6141,-1.5684 -1.5999,-1.5999 -40.6294,-1.6564 -42.551,-0.062 -1.1342,0.9413 -2.2196,0.8772 -5.0295,-0.2968 -1.9707,-0.8234 -4.2833,-1.2285 -5.139,-0.9001 -1.5252,0.5853 -2.0786,2.527 -1.0215,3.5842 0.6524,0.6524 53.6843,-0.086 54.3551,-0.7573 z m -628.6368,-2.7442 3.75271,-2.0709 2.03625,2.1856 c 2.69353,2.8912 6.7721,2.7742 10.95834,-0.3143 2.5484,-1.8802 4.62609,-2.5 8.37983,-2.5 3.74835,0 5.56761,-0.5414 7.30572,-2.1743 l 2.31445,-2.1743 2.44751,2.2993 c 3.94941,3.7103 7.04708,3.0065 12.43697,-2.8257 2.60499,-2.8187 5.4063,-5.125 6.22513,-5.125 2.37173,0 1.1046,7.0515 -1.74346,9.7023 -5.25804,4.8938 -3.44532,5.3563 20.20049,5.1544 l 18.93336,-0.1617 5.16396,-5.3475 c 3.48074,-3.6045 5.96292,-5.3475 7.61514,-5.3475 1.34815,0 3.62987,-0.9272 5.07049,-2.0603 1.44062,-1.1332 4.20723,-2.3181 6.14802,-2.633 3.27202,-0.531 4.72277,-1.7733 10.5766,-9.0567 0.55255,-0.6875 2.35984,-1.25 4.0162,-1.25 2.1982,0 3.94609,-1.0128 6.47178,-3.75 4.77179,-5.1714 4.22328,-6.6768 -2.57156,-7.058 -4.32906,-0.2429 -6.07965,-0.8712 -8.2749,-2.9699 -2.74119,-2.6208 -3.03511,-2.6677 -19,-3.0373 l -16.21573,-0.3753 -3.68286,2.8452 c -2.02557,1.5649 -4.23911,3.8578 -4.91898,5.0953 -0.89859,1.6356 -2.14567,2.25 -4.56714,2.25 -3.8434,0 -4.09109,-0.764 -1.36942,-4.2241 1.72965,-2.1988 1.95204,-4.0181 1.88068,-15.38482 -0.0445,-7.09009 -0.52785,-13.44818 -1.07409,-14.12908 -0.77039,-0.96031 -1.63931,-0.77789 -3.87385,0.81324 -4.77728,3.40172 -5.35863,1.15211 -0.94082,-3.64064 4.55832,-4.9452 4.96784,-7.33192 1.97839,-11.53023 C 724.19049,964.45878 723.17503,964 719.50333,964 c -5.5762,0 -7.71272,2.01022 -7.30628,6.87438 0.26165,3.13138 0.75031,3.75727 3.58473,4.59136 3.67483,1.0814 4.08598,3.96327 0.59081,4.1412 -3.28588,0.16728 -4.37259,1.27362 -4.37259,4.45156 0,2.28277 -3.11664,9.75308 -5.80437,13.91254 -0.81788,1.26572 -1.98953,-2.84365 -2.5596,-8.97736 -0.99736,-10.73119 -0.47837,-10.28287 -11.35311,-9.80725 -6.79143,0.29704 -9.67249,0.81633 -10.33445,1.86271 -1.737,2.74572 -0.96574,9.32147 1.57762,13.45086 1.60612,2.60769 2.46545,5.48795 2.46879,8.2748 0.004,3.6707 -0.35729,4.4125 -2.55998,5.25 -1.4108,0.5363 -3.15794,0.9752 -3.88251,0.9752 -1.85547,0 -2.60142,-10.01181 -2.74494,-36.84126 -0.0975,-18.23134 -0.37911,-22.44088 -1.53069,-22.88278 -3.13446,-1.2028 -3.78377,1.5668 -3.42855,14.62435 l 0.34821,12.80003 -2.78118,2.18767 c -2.70393,2.12692 -2.78565,2.47948 -2.94233,12.69395 -0.17488,11.40174 -1.03229,13.66744 -3.95153,10.44164 -1.18411,-1.3084 -3.10192,-2.02901 -5.42637,-2.03891 -1.97725,-0.008 -4.27001,-0.46692 -5.09501,-1.01887 -1.26269,-0.8448 -1.06494,-1.33018 1.25,-3.0681 2.25018,-1.6893 2.75,-2.84255 2.75,-6.34513 0,-3.83027 -0.3945,-4.54659 -3.75,-6.80913 -2.0625,-1.3907 -5.38309,-3.04384 -7.37908,-3.67364 -1.996,-0.62981 -4.42824,-2.02817 -5.40499,-3.10747 -2.21579,-2.44842 -6.6356,-2.53734 -8.77215,-0.17648 -1.21075,1.33787 -1.68864,4.28258 -1.90499,11.73842 -0.25268,8.70808 -0.51691,9.99621 -2.11319,10.30178 -1.00343,0.19208 -2.7127,-0.45466 -3.7984,-1.4372 -1.63925,-1.4835 -3.97101,-1.80915 -13.75043,-1.92038 -6.47705,-0.0737 -12.27244,-0.44049 -12.87865,-0.81515 -0.60622,-0.37466 -1.64368,-2.36243 -2.30549,-4.41727 C 592.24876,983.97675 591.2218,983 587.38603,983 c -2.28608,0 -3.77059,-0.64291 -4.6181,-2 -0.68696,-1.1 -1.834,-2 -2.54897,-2 -2.22133,0 -7.26209,4.29598 -10.56029,9 -3.07765,4.38945 -3.16325,4.81086 -3.48448,17.1542 -0.32406,12.452 -0.28412,12.7237 2.49824,17 1.55517,2.3902 3.72757,5.0999 4.82757,6.0215 2.1142,1.7714 1.62738,2.2789 -2.89282,3.0158 -1.04105,0.1697 -2.35867,1.0483 -2.92805,1.9525 -1.16329,1.8475 1.19272,5.1706 7.74375,10.9224 l 3.72038,3.2666 27.67837,-0.1445 c 15.2231,-0.08 29.47837,0.2387 31.67837,0.7071 4.66769,0.9938 6.64026,0.6253 11.7527,-2.196 z m 487.2588,-2.1152 c 2.458,-1.6105 6.1856,-8.2206 5.1946,-9.2116 -0.3883,-0.3884 -2.1686,-0.655 -3.9561,-0.5926 -6.4938,0.2268 -9.601,-0.7184 -9.9348,-3.0223 -0.1972,-1.3617 -1.2507,-2.3952 -2.8152,-2.762 -1.6142,-0.3784 -2.5,-1.2787 -2.5,-2.541 0,-1.6715 0.7974,-1.9925 5.5,-2.2141 6.6989,-0.3158 10,-1.0089 10,-2.0998 0,-1.5981 -7.5854,-3.1991 -13.8442,-2.9219 -6.3096,0.2794 -6.3509,0.3006 -7.5866,3.8986 -0.6834,1.9898 -2.2277,5.2116 -3.4316,7.1597 -1.8816,3.0445 -2.8796,3.637 -7.1052,4.2181 -5.8161,0.8 -8.6556,0.077 -10.0686,-2.5632 -1.3534,-2.5288 -4.605,-2.4712 -5.9842,0.1059 -1.1265,2.1049 -2.4035,2.2337 -20.1865,2.0371 -4.6007,-0.051 -4.7216,0.027 -5.3633,3.4473 -0.7848,4.1833 0.547,6.1505 4.946,7.3061 1.7183,0.4514 17.0678,0.8818 34.1099,0.9566 24.3583,0.1068 31.4221,-0.1501 33.0258,-1.2009 z m 35.5112,0.4034 c 1.0402,-0.5566 2.1864,-2.5856 2.5472,-4.5087 0.3608,-1.9231 1.5267,-4.6035 2.591,-5.9565 1.9181,-2.4385 1.9171,-2.4754 -0.1129,-4.2136 -1.526,-1.3065 -2.048,-2.9542 -2.048,-6.4639 0,-5.748 -1.4884,-6.5083 -9.4892,-4.8473 -5.9021,1.2252 -7.7218,2.6157 -4.8242,3.6863 3.9614,1.4636 4.4596,5.4726 0.8826,7.1024 -1.8713,0.8526 -2.5906,2.1731 -3.1251,5.7375 -0.6365,4.2444 -0.8911,4.5806 -3.0571,4.037 -2.8664,-0.7194 -6.387,1.2836 -6.387,3.6339 0,1.7602 -0.4004,1.6999 17.3157,2.6092 2.0987,0.1078 4.6668,-0.2596 5.707,-0.8163 z m 95.9076,-5.5317 c 24.7539,-0.599 27.8516,-1.0785 30.9299,-4.7877 0.9717,-1.1707 0.7864,-2.2848 -0.9264,-5.5709 -1.1775,-2.2591 -2.4318,-4.287 -2.7874,-4.5063 -0.5214,-0.3217 -43.8631,-0.6671 -79.6464,-0.6346 -8.0975,0.01 -9.2498,0.5424 -10.0772,4.6794 -0.8954,4.4771 1.4807,6.364 8.0138,6.364 3.9772,0 6.0037,0.5596 8.1487,2.25 2.8385,2.2371 13.2703,3.9136 19.4147,3.1202 1.375,-0.1776 13.4936,-0.5889 26.9303,-0.9141 z M 558.22957,1022.25 c 1.99951,-2.0625 3.93145,-4.9549 4.2932,-6.4277 0.55768,-2.2703 0.2061,-2.9111 -2.31134,-4.213 -3.06446,-1.5847 -4.21143,-3.3974 -4.21143,-6.6559 0,-2.5476 -2.44581,-3.6783 -9.74197,-4.5037 -10.64863,-1.20477 -13.07002,0.6542 -10.30951,7.9149 1.08515,2.8542 15.74548,17.6354 17.49116,17.6354 0.63493,0 2.79038,-1.6875 4.78989,-3.75 z m 525.54553,-2.3139 c 0.2631,-1.3719 -1.447,-1.5225 -13.928,-1.2263 -7.8253,0.1857 -14.4122,0.522 -14.6376,0.7474 -0.2254,0.2253 -0.1054,0.9022 0.2665,1.504 0.4504,0.7287 5.2405,1.0015 14.3377,0.8165 11.4524,-0.2328 13.71,-0.5306 13.9614,-1.8416 z m 55.3247,-10.1226 c 1.4275,-2.6672 0.3564,-6.5339 -2.0185,-7.2877 -1.0528,-0.3341 -2.3783,-1.9391 -2.9457,-3.56666 -0.9072,-2.60247 -1.5057,-2.95914 -4.9649,-2.95914 -3.104,0 -4.591,-0.67262 -7.052,-3.18984 -1.7153,-1.75441 -3.1187,-3.48442 -3.1187,-3.84446 0,-0.36004 -1.1245,-1.96211 -2.4988,-3.56016 -1.3743,-1.59805 -2.4993,-3.53072 -2.5,-4.29483 -9e-4,-1.08557 -1.1322,-1.25534 -5.1746,-0.77658 -2.8454,0.337 -5.5914,1.03071 -6.1023,1.54158 -0.9129,0.91284 -1.0741,28.10779 -0.172,29.00989 0.6832,0.6832 24.1126,1.6689 30.2125,1.271 4.022,-0.2624 5.5175,-0.8155 6.335,-2.3431 z m 145.9807,2.1877 c 0.3192,-7e-4 2.0067,-1.9873 3.75,-4.4147 2.3834,-3.3188 3.1695,-5.4797 3.1695,-8.71241 0,-3.49163 0.5164,-4.71067 2.75,-6.49129 l 2.75,-2.19234 0.2876,-74.54752 0.2877,-74.54752 -2.497,-1.63609 c -3.3407,-2.18888 -7.94,-1.15558 -9.432,2.119 -0.6215,1.36406 -1.9589,2.80446 -2.9719,3.20089 -1.0131,0.39643 -3.2161,2.29757 -4.8957,4.22476 -2.9864,3.42651 -3.0541,3.73601 -3.0662,14 -0.01,5.77281 -0.1699,28.49602 -0.3625,50.49602 l -0.35,40 -26.8289,-0.16221 c -14.7559,-0.0892 -27.0975,-0.43084 -27.4258,-0.75915 -0.3283,-0.32831 -0.5296,-24.31187 -0.4474,-53.29681 l 0.1496,-52.69988 4.0047,-4.00477 4.0048,-4.00476 10.2715,-0.40587 c 6.1029,-0.24115 10.5697,-0.8646 11.0062,-1.53621 1.1654,-1.79296 0.8882,-8.63034 -0.3498,-8.63034 -0.6134,0 -2.5578,1.575 -4.321,3.5 -4.6773,5.10639 -8.8814,4.47871 -9.7181,-1.4509 l -0.3458,-2.4509 -14.7353,-0.11773 c -8.1044,-0.0648 -14.9665,-0.3489 -15.249,-0.63144 -0.2825,-0.28254 -0.8025,-4.58252 -1.1555,-9.55552 l -0.6418,-9.04182 3.8908,-0.47501 c 5.1958,-0.63433 6.3882,-0.0608 6.4045,3.08031 0.021,4.15979 1.0978,7.14301 2.5773,7.14301 1.467,0 4.409,-4.94792 4.409,-7.41516 0,-1.59013 3.3437,-3.9078 4.2829,-2.96864 0.3002,0.30021 1.4843,0.0435 2.6315,-0.57036 2.362,-1.26415 2.9177,-6.81378 0.8856,-8.84584 -1.8238,-1.82376 -5.9201,-1.43575 -8.2836,0.78461 -1.1619,1.09154 -3.4751,2.25712 -5.1404,2.59019 -2.5102,0.50205 -3.3179,0.1628 -4.725,-1.98462 -2.6906,-4.1064 -5.8815,-3.40634 -9.991,2.19191 -1.9307,2.63015 -3.4316,5.66765 -3.3352,6.75 0.1566,1.75881 -0.5594,1.99973 -6.7383,2.26733 -6.1484,0.26628 -6.7711,0.12795 -5.6275,-1.25 0.7072,-0.85218 2.2079,-1.54942 3.3347,-1.54942 3.3857,0 5.7063,-2.90972 5.7063,-7.15499 V 797 h -5.5 c -4.0345,0 -5.5,0.37118 -5.5,1.39301 0,1.73129 -2.1717,2.60699 -6.4652,2.60699 -2.49,0 -3.4336,-0.50513 -3.8389,-2.05501 -0.4711,-1.80125 -1.1955,-2.01734 -5.8667,-1.75 -5.1316,0.2937 -5.3403,0.41815 -5.6277,3.35611 -0.3904,3.98995 2.3492,6.45384 7.9709,7.1687 6.6822,0.84972 7.4685,2.02483 3.7726,5.63819 l -3.1248,3.05511 -1.6601,-2.14984 c -1.1002,-1.42479 -3.003,-2.25328 -5.6419,-2.45655 -4.1703,-0.32123 -4.5359,-0.81213 -6.0004,-8.05671 -0.3057,-1.5125 -1.1412,-2.75 -1.8565,-2.75 -0.7154,0 -2.2788,-1.125 -3.4744,-2.5 -1.1955,-1.375 -2.5974,-2.5 -3.1152,-2.5 -2.0034,0 -6.0833,2.0116 -8.0318,3.96007 -1.7255,1.72554 -3.3191,2.03993 -10.3399,2.03993 -5.1222,0 -8.7594,0.45944 -9.5,1.2 -1.645,1.64504 -1.5085,5.29907 0.2526,6.76067 1.164,0.966 1.8969,0.79162 3.6886,-0.87756 1.7742,-1.65293 3.5345,-2.08311 8.5243,-2.08311 5.6352,0 6.4617,0.26457 7.9574,2.54725 l 1.669,2.54724 2.9283,-2.79724 c 2.8886,-2.75925 2.9486,-2.77008 4.4162,-0.79725 0.9186,1.23483 1.2727,3.09994 0.9257,4.875 -0.3092,1.58125 -0.5621,4.58661 -0.5621,6.67857 0,6.34638 -1.371,6.94643 -15.8714,6.94643 -8.5667,0 -13.121,0.39237 -13.9286,1.2 -0.66,0.66 -1.2,3.74931 -1.2,6.86514 0,4.36214 -0.5175,6.32199 -2.25,8.52093 -2.1112,2.67959 -2.2808,4.05036 -2.75,22.21749 -0.4372,16.9283 -0.7199,19.52227 -2.25,20.63931 -2.314,1.68938 -2.2156,3.78526 0.25,5.32506 1.1,0.68696 2,1.87206 2,2.63356 0,1.51403 2.104,2.59851 5.0413,2.59851 1.0328,0 2.9085,1.02031 4.1682,2.26734 7.4747,7.39923 6.2157,7.02037 24.0175,7.22761 8.9502,0.10419 18.5462,0.53158 21.3245,0.94974 4.6366,0.69785 5.3265,0.52885 8.4005,-2.05779 l 3.3492,-2.81809 4.5994,5.21596 c 2.7427,3.11042 5.4305,5.21581 6.6583,5.21559 1.1323,-2e-4 2.9323,0.67494 4,1.50031 1.9087,1.47559 1.9035,1.53256 -0.3089,3.41029 -2.8259,2.39842 -2.8313,3.84141 -0.025,6.82823 2.1737,2.3138 2.2177,2.842 1.9206,23.03841 -0.1672,11.36868 -0.4857,20.96419 -0.7077,21.32337 -0.222,0.35917 -2.4665,1.17249 -4.9879,1.80738 -3.472,0.87425 -4.5053,1.57134 -4.2587,2.87299 0.2236,1.17989 1.4747,1.81453 3.9912,2.02449 2.0161,0.1682 4.1804,0.92613 4.8096,1.68428 0.6737,0.81173 1.3564,7.05854 1.6606,15.19417 0.4912,13.13792 0.6431,13.94952 3.0967,16.54232 l 2.5802,2.7265 16.5853,0.2735 c 9.122,0.1504 27.6104,0.1614 41.0854,0.025 13.475,-0.1369 24.7612,-0.2494 25.0805,-0.25 z m -72.6016,-168.39299 c -1.642,-1.20062 -1.7146,-1.6193 -0.5287,-3.04825 2.1173,-2.5511 5.49,-1.5794 5.8662,1.69004 0.2457,2.13486 -0.103,2.75 -1.5588,2.75 -1.0315,0 -2.7319,-0.6263 -3.7787,-1.39179 z m -20.1805,-2.52866 -2.2017,-1.8218 2.3776,-2.23364 c 1.3077,-1.22851 2.861,-1.93494 3.4517,-1.56986 1.4456,0.89346 1.3578,3.79074 -0.176,5.8053 -1.153,1.51443 -1.4208,1.50047 -3.4516,-0.18 z m -8.8701,167.17045 3.5544,-3.75 0.01,-10.19931 0.01,-10.19932 -3.25,-3.04606 c -4.334,-4.06208 -7.2987,-3.90185 -11.9563,0.64618 -2.6987,2.63514 -4.0998,3.39243 -4.8635,2.62868 -0.7638,-0.76375 -0.3781,-1.61926 1.3386,-2.96962 1.9454,-1.53029 2.5227,-3.12446 2.9875,-8.25012 l 0.5761,-6.35331 -4.9313,-2.08339 c -5.3855,-2.27531 -5.8868,-3.98382 -1.324,-4.51222 4.7162,-0.54616 5.4229,-1.78038 5.4229,-9.47105 v -7.06464 l 2.8047,2.68709 c 1.5426,1.4779 3.2489,2.68709 3.7918,2.68709 0.5429,0 2.8808,-1.92953 5.1953,-4.28785 L 1187,940.4243 v -8.1931 c 0,-7.69468 -0.1369,-8.22085 -2.25,-8.6494 -1.2375,-0.25097 -3.4104,-0.69875 -4.8286,-0.99508 -1.4555,-0.30412 -3.0794,-1.63802 -3.7285,-3.06274 -1.132,-2.48453 -1.3288,-2.52398 -12.5897,-2.52398 -6.2918,0 -12.1514,0.27314 -13.0214,0.60699 -2.7737,1.06437 -1.7231,3.68703 3.6608,9.13868 l 5.2426,5.30857 -4.4926,-0.18134 c -2.4709,-0.0997 -8.9583,-0.0691 -14.4164,0.0681 -9.5643,0.24042 -10.0161,0.35467 -12.4727,3.15422 -1.4292,1.62876 -3.5612,2.90477 -4.8535,2.90477 -1.4519,0 -3.9673,1.75739 -6.7986,4.75 -4.3884,4.63839 -4.4789,4.86644 -3.8506,9.70568 0.3539,2.72562 1.479,6.10062 2.5002,7.5 1.6137,2.21126 2.4376,7.4861 2.867,18.35504 0.018,0.4459 3.0401,3.74572 6.7167,7.33295 l 6.6848,6.52222 13.2463,-0.31851 c 7.2855,-0.17518 13.5665,0.002 13.9578,0.39289 1.1905,1.19047 -1.4324,3.48149 -4.744,4.14382 -3.6772,0.73544 -9.7269,7.09821 -9.788,10.29451 -0.091,4.7849 1.8713,5.3214 19.4669,5.3214 h 16.3655 z m -22.9554,-18.2938 c -0.8066,-1.30517 1.3039,-3.9562 3.1495,-3.9562 1.6966,0 1.7984,2.17918 0.1776,3.8 -1.4756,1.47557 -2.4824,1.52284 -3.3271,0.1562 z m 4.7771,-50.53977 C 1161.1969,936.22209 1161.0123,934 1164.8,934 c 3.5534,0 5.2,1.64657 5.2,5.2 0,3.44117 -0.6223,3.46952 -4.75,0.21643 z M 1086.316,1007.5 c 0.5399,-1.65 2.0397,-4.272 3.3329,-5.8267 2.1267,-2.55693 2.3511,-3.79168 2.3511,-12.93557 0,-9.01811 -0.2358,-10.3598 -2.1852,-12.43487 -1.8629,-1.983 -2.1948,-3.5255 -2.25,-10.45939 -0.055,-6.92592 0.2692,-8.58604 2.1852,-11.18269 2.0023,-2.71358 2.25,-4.2243 2.25,-13.7202 0,-9.15667 -0.2838,-11.03166 -2,-13.21345 -2.4961,-3.17331 -2.5524,-6.74338 -0.1551,-9.84227 1.0147,-1.31167 2.1491,-3.95049 2.5209,-5.86403 0.3926,-2.02102 2.2287,-5.06941 4.3809,-7.27349 3.2598,-3.33827 3.5552,-4.03422 2.4585,-5.79042 -0.9521,-1.52448 -1.2415,-13.55172 -1.2249,-50.90404 0.019,-43.16128 -0.163,-49.09269 -1.5507,-50.4804 -1.168,-1.168 -3.8048,-1.60101 -10.251,-1.6834 -18.2016,-0.23263 -22.5499,0.13923 -25.3881,2.17113 -1.4902,1.06688 -3.8272,1.93979 -5.1933,1.93979 -5.2131,0 -5.5958,2.07761 -5.6125,30.47251 -0.01,14.31512 -0.3459,26.47749 -0.75,27.02749 -0.4041,0.55 -1.6347,1.49755 -2.7347,2.10567 -1.7261,0.95427 -2.0399,2.31386 -2.2915,9.9293 -0.2773,8.39157 -0.1679,8.92504 2.2347,10.89434 2.496,2.04586 2.5326,2.29131 3.0476,20.46869 l 0.5213,18.39801 -4.126,3.80914 c -3.9564,3.65254 -4.0987,3.99157 -3.4606,8.24651 0.366,2.44055 0.6654,16.29512 0.6654,30.78792 v 26.35056 l 2.9546,2.69856 c 2.5791,2.35571 2.9545,3.38894 2.9545,8.13248 0,7.84342 0.5872,8.12402 16.4015,7.83822 12.2736,-0.2218 13.3507,-0.091 15.096,1.8379 2.4814,2.7419 4.6105,2.194 5.8185,-1.4973 z m -121.92235,-2.4937 c 0.55361,-0.5536 1.00847,-7.90031 1.04378,-16.85848 l 0.0626,-15.87731 3.32039,-3.10222 3.32039,-3.10222 -0.64557,-15.78304 c -0.53476,-13.07388 -0.96399,-16.23192 -2.50062,-18.39817 -1.02028,-1.43833 -2.56449,-4.31306 -3.43157,-6.38828 l -1.57652,-3.77313 -6.20111,0.56229 c -4.29109,0.38911 -6.59792,1.10497 -7.4894,2.32415 -1.76682,2.41626 -1.78442,79.09671 -0.0186,81.22431 0.87956,1.0598 2.63412,1.2509 7.15033,0.7789 3.29162,-0.3441 6.42631,-1.0671 6.96597,-1.6068 z m 63.25385,-0.5389 c 0.8607,-1.1771 1.3525,-4.66267 1.3525,-9.58605 0,-7.36972 0.1395,-7.84647 2.9427,-10.05887 l 2.9428,-2.32248 0.5711,-35 c 0.3141,-19.25 0.1989,-36.33541 -0.256,-37.96758 -0.665,-2.38568 -1.6229,-3.17002 -4.8852,-4 -2.2319,-0.56783 -4.6784,-1.54296 -5.4367,-2.16695 -2.2722,-1.86983 -7.8265,-2.66426 -18.1287,-2.59295 -5.3625,0.0371 -10.39047,0.10348 -11.17327,0.14748 -0.78281,0.044 -2.71398,1.16606 -4.29151,2.49346 -1.57753,1.3274 -4.19956,2.5649 -5.82673,2.75 -3.68218,0.41886 -4.44856,3.63057 -1.50251,6.2967 1.61281,1.45958 2.04402,3.07801 2.04402,7.67177 0,5.04686 -0.3205,6.03196 -2.40735,7.39932 l -2.40736,1.57736 0.0647,22.46941 c 0.0637,22.13633 0.0994,22.50687 2.40735,24.99721 3.3688,3.63499 3.2913,11.14397 -0.1573,15.2424 -2.77783,3.30127 -3.41173,9.60747 -1.25,12.43527 1.72516,2.2567 5.52863,2.5927 26.1475,2.3097 16.0919,-0.2208 18.034,-0.4322 19.25,-2.0952 z m -123.85701,-0.3791 c 2.18616,-1.5425 5.02735,-2.0037 14.70951,-2.3881 6.6,-0.2619 12.74958,-0.7853 13.66573,-1.1629 0.91616,-0.3776 2.81069,-2.34051 4.21008,-4.36195 l 2.54434,-3.67535 0.66064,-32.63788 0.66064,-32.63788 -2.87072,-5.14586 c -1.75042,-3.1377 -3.75592,-5.37192 -5.13905,-5.72513 -3.73449,-0.95368 -44.07778,0.0866 -45.07968,1.1624 -0.5042,0.54139 -1.25461,11.33435 -1.66759,23.98435 -0.86108,26.37616 -0.86281,27.65179 -0.0606,44.5 l 0.5952,12.5 3.95177,3.75 c 4.58853,4.3543 9.35512,4.9883 13.8197,1.8383 z m -33.60321,-2.6535 c 0.86751,-3.19719 1.76689,-69.89591 1.0138,-75.1848 -0.25452,-1.7875 -0.89065,-3.25 -1.41363,-3.25 -0.52297,0 -2.93909,1.62921 -5.36915,3.62046 L 860,930.24092 v 16.87954 C 860,962.9664 860.11497,964 861.87756,964 c 2.57302,0 3.77331,1.75404 4.59015,6.70783 0.85459,5.18276 0.0426,7.99544 -2.5455,8.81686 -1.08652,0.34485 -2.66587,1.68065 -3.50967,2.96844 -2.09173,3.19239 -0.27928,9.8948 3.6745,13.58818 2.03692,1.90277 2.91296,3.6781 2.91296,5.90319 0,3.954 2.06178,3.5984 3.18728,-0.5497 z M 787.0546,1000.25 c 0.03,-0.4125 0.22801,-2.775 0.43996,-5.25 0.82133,-9.59066 1.3209,-51.80696 0.68044,-57.5 l -0.675,-6 h -4.92805 c -4.58408,0 -4.99869,0.2094 -5.93996,3 -1.59557,4.73043 -1.07622,64.60176 0.56944,65.6457 1.6275,1.0323 9.77933,1.1187 9.85317,0.1043 z m 14.39317,-6.60686 2.35685,-2.35685 0.12001,-31.16597 c 0.13129,-34.0976 0.18862,-33.7816 -5.58673,-30.79505 -6.48442,3.35322 -6.34277,2.63851 -6.60184,33.31092 -0.21381,25.31354 -0.0689,28.20315 1.53699,30.65585 2.18209,3.33268 5.06915,3.45667 8.17472,0.3511 z M 526,991.83516 c 2.06015,-1.47765 4.75785,-1.82049 15.33298,-1.94861 14.07861,-0.17056 15.30889,-0.7318 12.15512,-5.54506 -1.48817,-2.27123 -1.72116,-5.17091 -1.65615,-20.61158 l 0.0756,-17.96851 5.29621,-6.08865 5.2962,-6.08864 0.23224,-63.04206 c 0.12774,-34.67313 -0.13292,-63.61927 -0.57924,-64.32477 -0.57113,-0.9028 -5.28212,-1.46624 -15.90544,-1.90231 -13.54399,-0.55597 -15.14358,-0.80933 -15.57714,-2.46728 -0.9588,-3.66648 -4.58909,-1.94155 -12.64781,6.0096 -4.37998,4.32151 -8.33711,8.93401 -8.79363,10.25 -0.45652,1.31599 -0.73397,15.98691 -0.61657,32.60204 0.19277,27.28136 0.0405,30.54866 -1.57143,33.7103 -1.6544,3.245 -1.66631,3.66837 -0.16294,5.79067 1.43755,2.02936 1.62196,7.3667 1.62196,46.9429 v 44.65319 l 2.5,2.40066 c 1.375,1.32035 4.18166,4.31908 6.23701,6.66384 3.85331,4.39586 3.96195,4.40781 8.76299,0.96427 z M 771.53413,993.25 c 0.41146,-0.9625 0.95222,-14.50945 1.20168,-30.10433 l 0.45357,-28.35434 -4.30467,-3.89566 C 764.5853,927.00475 764.56957,927 755.99297,927 h -8.58707 l -3.83701,3.92945 c -4.31382,4.41775 -4.23859,6.48661 0.26866,7.38806 2.79056,0.55811 7.66765,4.51062 6.72676,5.45152 -0.22802,0.22801 -2.04322,-0.17435 -4.03378,-0.89415 -5.55928,-2.01026 -6.9678,-0.57469 -7.32593,7.46661 -0.28539,6.40807 -0.19529,6.69357 2.66032,8.43017 2.34372,1.4253 2.75694,2.15266 1.9957,3.51291 -0.528,0.94348 -1.59681,1.71543 -2.37513,1.71543 -0.77832,0 -1.85687,0.82541 -2.39678,1.83425 -1.31086,2.44935 -0.15882,27.42016 1.31026,28.40044 0.60557,0.40408 7.69039,0.74158 15.74404,0.75 13.00281,0.0136 14.72681,-0.18071 15.39112,-1.73469 z m 41.93626,-5 c 0.48827,-4.00599 1.41905,-6.51016 3.06877,-8.25623 2.31952,-2.45499 2.374,-2.94971 2.66439,-24.19347 l 0.29645,-21.68723 -3.44617,-3.55653 c -3.44102,-3.55123 -7.45374,-4.66994 -8.27334,-2.30654 -0.23842,0.6875 -0.39542,15.33117 -0.34888,32.54148 0.0719,26.58726 0.30889,31.43329 1.5765,32.23469 2.91552,1.84325 3.76649,0.93243 4.46228,-4.77617 z m -324.00356,-3.00802 c 1.91348,-2.05809 3.50853,-4.19198 3.54457,-4.74198 0.036,-0.55 0.1607,-4.07769 0.27705,-7.8393 0.18415,-5.95349 0.53535,-7.10132 2.71155,-8.86227 l 2.5,-2.02297 0.27732,-68.98582 0.27732,-68.98582 -4.77732,-4.8027 c -2.62753,-2.64149 -6.49622,-6.87235 -8.59709,-9.40191 -4.48369,-5.39861 -8.26599,-6.10436 -12.1106,-2.25975 l -2.33946,2.33946 0.13492,88.74103 c 0.13301,87.49357 0.16302,88.76214 2.13491,90.24288 1.46597,1.10083 3.4002,1.34422 7.24389,0.91149 4.39403,-0.49468 5.80773,-1.19681 8.72294,-4.33234 z M 828.5804,986.75 c 0.95812,-3.01434 0.96158,-58.62691 0.004,-61.55505 -1.02542,-3.13502 -2.80068,-2.28266 -3.90119,1.87307 -1.03946,3.92522 -0.39908,58.96439 0.70687,60.75385 1.12921,1.8271 2.40531,1.39838 3.19049,-1.07187 z m 26.65861,-3.83182 c 0.77783,-5.70284 0.77731,-62.51878 -5.9e-4,-64.66818 -0.71887,-1.98627 -2.58698,-1.46737 -5.40016,1.5 -1.43391,1.5125 -3.30261,3.30081 -4.15267,3.97403 -1.3213,1.04641 -1.55564,5.07805 -1.61502,27.78405 l -0.0695,26.56003 3.49944,2.06472 c 2.64276,1.55926 3.49945,2.73416 3.49945,4.79928 0,1.50401 0.30938,3.04393 0.6875,3.42206 1.58906,1.58906 2.85831,-0.35367 3.55151,-5.43599 z M 620.97364,980.37724 C 625.04987,975.73467 623.94059,974.5 615.69323,974.5 H 609.5 l -0.30226,-5.25 c -0.30106,-5.22911 -0.29037,-5.25 2.6849,-5.25 8.2273,0 10.2911,-4.25467 2.78393,-5.73928 -4.69597,-0.92867 -5.8738,-3.26926 -3.15626,-6.27211 C 614.32038,948.88352 612.43613,948 603.00396,948 h -8.878 l -3.55431,3.75 c -3.47113,3.66224 -3.55451,3.9402 -3.56298,11.87756 -0.009,8.7728 0.56132,9.90397 5.6774,11.25344 2.17126,0.57272 3.12109,1.69881 4.15882,4.93062 L 598.18979,984 h 9.80151 9.80152 z m -54.58063,-6.95903 c 1.00319,-2.61427 0.68369,-16.40639 -0.42819,-18.48395 -1.1921,-2.22746 -5.73319,-2.60836 -8.15756,-0.68426 -2.29845,1.82416 -3.1712,15.78539 -1.16577,18.64855 1.84306,2.63134 8.79895,3.00202 9.75152,0.51966 z M 582.171,964.5 c -0.48262,-2.93383 -3.10937,-6.65612 -4.21493,-5.97285 -1.10626,0.68371 -1.29882,6.79677 -0.24722,7.84837 0.38987,0.38986 1.62737,0.57736 2.75,0.41666 1.41746,-0.2029 1.94062,-0.90329 1.71215,-2.29218 z m 57.96714,-2.25 c 2.4074,-2.90926 4.13804,-6.99411 3.44103,-8.12189 -1.04694,-1.69399 -6.80716,-0.11704 -9.82917,2.69088 -2.64165,2.45452 -3.49011,5.10756 -2.08333,6.51434 1.35611,1.35612 7.05601,0.62721 8.47147,-1.08333 z m -10.50462,-11.46603 c 0.41335,-0.66882 1.01358,-2.80632 1.33385,-4.75 0.57457,-3.48702 0.64839,-3.53448 5.55747,-3.5723 13.44992,-0.10363 13.15011,-0.002 13.77898,-4.69017 0.31194,-2.32567 1.05423,-4.39085 1.64953,-4.58928 1.88447,-0.62816 4.15064,-3.37014 3.75902,-4.54829 -0.2073,-0.62366 -2.44094,-1.51345 -4.96365,-1.97731 -6.49533,-1.19433 -10.14993,0.66131 -10.53726,5.35033 -0.50719,6.14014 -0.97603,6.5844 -3.99101,3.78177 -2.84898,-2.64833 -8.96743,-4.18116 -11.19477,-2.80459 -1.60801,0.9938 -1.49206,15.74899 0.1392,17.71454 1.35714,1.63525 3.4856,1.67588 4.46864,0.0853 z m 631.10838,-7.38003 c 2.3303,-0.35332 3.3684,-1.11195 3.6917,-2.69774 1.2385,-6.07613 1.6087,-17.18681 1.6372,-49.13861 l 0.031,-34.93241 -3.5652,-3.56759 -3.5652,-3.56759 -13.7357,-0.60279 c -14.9139,-0.65449 -15.7301,-0.56072 -16.7987,1.93011 -1.1297,2.63311 -1.5118,89.16446 -0.4029,91.23644 0.5288,0.98811 1.975,1.97761 3.2137,2.19888 2.7028,0.48282 24.9106,-0.16375 29.4941,-0.8587 z m -147.2676,-2.35428 c 0.8391,-1.62269 1.5257,-3.79759 1.5257,-4.83312 0,-1.29546 1.9155,-2.87065 6.1405,-5.04966 3.3772,-1.74178 6.9125,-3.16688 7.8562,-3.16688 2.2561,0 11.0033,-6.70852 11.0033,-8.43882 0,-2.09138 -1.4331,-2.28792 -18.0791,-2.47938 -20.2726,-0.23318 -19.8101,-0.55239 -20.1641,13.9182 -0.1412,5.775 0.1073,11.0625 0.5522,11.75 0.446,0.68911 2.7902,1.25 5.2243,1.25 3.878,0 4.601,-0.35905 5.941,-2.95034 z M 590.46984,939.0141 c 3.84116,-1.79588 6.6412,-3.7886 7.02568,-5 0.91603,-2.88613 9.30474,-2.89618 11.77245,-0.0141 2.31127,2.69936 4.56327,2.52057 5.30153,-0.42091 1.38576,-5.5213 0.65213,-6.03895 -9.32403,-6.57909 -8.47703,-0.45897 -9.44372,-0.72566 -11.78061,-3.25 -1.51586,-1.63744 -3.59407,-2.75 -5.13691,-2.75 -1.73602,0 -4.07003,-1.47892 -7.07259,-4.48148 -5.07735,-5.07735 -5.18913,-7.43165 -0.61119,-12.87222 2.02859,-2.41085 2.3909,-3.64582 1.87553,-6.39297 -0.56261,-2.99899 -0.21443,-3.80508 2.92077,-6.76196 C 588.9794,887.15374 589,887.08492 589,878.60234 c 0,-7.50852 0.23991,-8.66037 2,-9.60234 1.1,-0.5887 2,-1.72953 2,-2.53518 0,-0.80565 -0.9,-2.36482 -2,-3.46482 -1.1,-1.1 -2,-3.33226 -2,-4.96057 0,-1.62832 -0.69062,-3.54082 -1.5347,-4.25 -3.91991,-3.29342 -4.4653,-4.10856 -4.4653,-6.67377 0,-1.74071 1.09514,-3.79068 3,-5.61566 1.65,-1.5808 3.00194,-3.80249 3.00432,-4.93709 0.002,-1.1346 2.02737,-4.29404 4.5,-7.02097 C 595.97694,826.815 598,824.24007 598,823.81987 c 0,-0.4202 2.475,-1.4835 5.5,-2.36289 3.025,-0.87939 5.5,-1.96237 5.5,-2.40662 0,-0.9845 4.58312,-2.8486 8,-3.25385 2.4191,-0.28692 2.5095,-0.56995 2.79368,-8.74667 0.16152,-4.64759 0.77912,-9.03509 1.37244,-9.75 0.79909,-0.96285 5.04696,-1.29984 16.3849,-1.29984 12.81058,0 15.57171,0.26559 16.93506,1.62894 0.89592,0.89592 1.37806,2.28272 1.07143,3.08179 -0.30663,0.79906 -0.55751,2.30024 -0.55751,3.33595 0,1.75737 -0.72609,1.85186 -10.87514,1.4153 -9.27843,-0.39912 -11.07699,-0.22458 -12.25,1.1888 -1.87767,2.26246 -1.85741,13.12394 0.0267,14.28836 0.77084,0.4764 4.73905,0.87927 8.81825,0.89527 5.63738,0.0221 7.82416,-0.37438 9.11498,-1.65266 0.93404,-0.92496 2.92833,-2.47962 4.43175,-3.4548 1.50343,-0.97518 2.7335,-2.66268 2.7335,-3.75 0,-3.88614 2.94964,-2.06259 4.1086,2.54005 0.62556,2.48435 1.55847,4.77724 2.07312,5.09531 1.5109,0.93379 8.80044,-4.69306 9.45418,-7.29775 0.32966,-1.31348 0.33618,-3.70414 0.0145,-5.31258 -0.63616,-3.18077 1.0203,-5.13114 2.44609,-2.8801 0.48009,0.75797 0.87978,3.99641 0.8882,7.19655 0.0148,5.60618 0.18402,5.98007 4.64051,10.25 C 684.24667,826.0383 685.98973,827 688.65731,827 697.01418,827 703,821.67101 703,814.23116 703,809.38406 704.84763,802 706.06046,802 c 1.55123,0 2.63416,5.72491 2.1589,11.41299 -0.41228,4.93429 -0.19141,6.13428 1.33442,7.25 1.99357,1.45773 16.05977,1.86963 18.16508,0.53193 0.81776,-0.51961 1.35688,-5.03933 1.63829,-13.73469 l 0.41944,-12.96023 -3.02429,-5 C 721.94939,781.55944 709.18026,769.16631 705,768.38822 c -5.09882,-0.94907 -6.55873,-1.93095 -9.10784,-6.12557 -2.84608,-4.68331 -3.62573,-5.22826 -7.5073,-5.24734 -1.71333,-0.008 -4.4038,-1.02781 -5.97882,-2.26531 -3.08796,-2.42622 0.44486,-2.27448 -62.40604,-2.68046 -20.07546,-0.12967 -24.73425,0.33217 -27.2569,2.70208 C 591.18438,756.23596 589.1195,757 586.72073,757 582.23154,757 581,758.91577 581,765.89907 581,771.19127 579.51963,773 575.18819,773 c -4.53685,0 -4.45846,-1.5363 -4.34645,85.18662 0.0845,65.44436 0.36578,82.32791 1.38219,82.97294 2.9848,1.8942 11.83025,0.8541 18.24591,-2.14546 z m 80.92317,-3.59589 c 0.81129,-2.11417 0.77295,-6.91891 -0.0619,-7.75373 -1.09829,-1.09829 -4.33115,2.47744 -4.33115,4.79051 0,2.07787 1.67896,4.54501 3.09301,4.54501 0.38116,0 0.96616,-0.7118 1.3,-1.58179 z M 613.6111,914.38192 c 1.43416,-1.78675 0.60801,-6.52412 -1.41812,-8.13192 -0.86638,-0.6875 -2.81267,-1.25 -4.32509,-1.25 -5.93212,0 -4.51562,-3.88446 1.79027,-4.90945 3.4159,-0.55524 3.87637,-1.0136 5.03356,-5.01042 0.70054,-2.41959 2.18149,-5.24499 3.29099,-6.27865 2.31963,-2.16106 2.6695,-7.0153 0.62777,-8.70979 -1.75028,-1.4526 -24.08965,-2.74342 -24.8961,-1.43856 -0.3206,0.51874 -0.72499,5.25788 -0.89864,10.53143 -0.30285,9.19686 -0.21368,9.67167 2.18426,11.63088 2.88627,2.35819 2.06248,3.85446 -2.39914,4.35761 -3.74857,0.42274 -5.05017,2.61836 -4.20932,7.10051 0.80514,4.29176 1.79666,4.54894 15.10846,3.91872 6.03184,-0.28556 9.36644,-0.88261 10.1111,-1.81036 z M 599,887.41667 c 0,-0.87084 0.53437,-1.40521 1.1875,-1.1875 C 602.04172,886.84724 602.34926,889 600.58333,889 599.7125,889 599,888.2875 599,887.41667 Z m 82.67883,27.00788 c 1.73429,-2.37178 1.68221,-5.88003 -0.10937,-7.3669 -1.57142,-1.30417 -24.4396,-2.96465 -31.31946,-2.27414 l -4.25,0.42656 v -6.91794 c 0,-6.25839 -0.26219,-7.16249 -2.75,-9.48285 -5.52844,-5.15633 -9.08689,-5.97239 -12.25,-2.80928 -1.65347,1.65347 -2,3.33333 -2,9.69528 0,7.01311 -0.2413,7.94714 -2.72194,10.53638 -2.17443,2.26961 -2.50488,3.18578 -1.64282,4.55471 0.59352,0.9425 1.93089,1.87259 2.97194,2.06687 1.04105,0.19428 2.56782,0.93532 3.39282,1.64676 2.34837,2.02511 4.12076,2.15011 27.42883,1.93435 19.85471,-0.18379 22.05379,-0.37388 23.25,-2.0098 z m 51.90835,0.12534 c 2.36677,-3.23675 1.74263,-6.92993 -1.58718,-9.39177 -2.62244,-1.93885 -3,-2.83385 -3,-7.11133 0,-3.76061 0.57871,-5.5811 2.5,-7.86442 1.375,-1.6341 2.5,-3.40279 2.5,-3.93044 0,-0.55028 -7.60226,-1.25944 -17.82894,-1.66311 C 697.52052,883.85262 689,884.80277 689,887.61871 c 0,0.75971 0.40555,1.38129 0.90122,1.38129 0.49568,0 1.8305,1.575 2.96628,3.5 1.8996,3.21958 2.44832,3.50123 6.84877,3.51531 5.93419,0.019 7.53373,0.98355 7.53373,4.54297 0,3.6074 -2.60942,5.44172 -7.74113,5.44172 -4.78093,0 -6.50887,1.34796 -6.50887,5.07756 0,5.19095 2.56226,5.77578 24.33718,5.55495 13.41017,-0.13601 14.97307,-0.33631 16.25,-2.08262 z m 43.24298,-0.38801 c 0.96773,-1.20907 1.15706,-3.48604 0.69488,-8.35676 -0.56113,-5.9134 -0.39539,-6.93477 1.41984,-8.75 2.84993,-2.84993 2.56923,-5.69485 -0.90465,-9.16874 -2.92601,-2.92601 -3.07146,-2.9565 -12.75,-2.67308 L 755.5,885.5 l -0.60627,12 c -0.72494,14.34909 -0.31377,17.39338 2.49822,18.49628 3.61103,1.4163 17.91694,0.0662 19.43821,-1.8344 z m 252.93594,-21.02986 c 6.7106,-7.46237 6.4378,-5.2284 6.0687,-49.69683 -0.2607,-31.413 -0.6225,-40.62363 -1.6352,-41.63567 -1.8439,-1.8426 -44.52091,-1.87887 -46.35999,-0.0394 -0.83605,0.83622 -1.31386,4.91182 -1.42038,12.11553 -0.13772,9.31336 -0.46041,11.26515 -2.27164,13.73987 -1.98704,2.71495 -2.12688,4.27524 -2.37935,26.54886 -0.25987,22.92605 -0.20189,23.73726 1.85821,26 1.16955,1.28458 2.41896,3.97789 2.77646,5.98513 0.35751,2.00723 1.35999,4.23874 2.22773,4.9589 0.86774,0.72016 1.95821,2.31018 2.42327,3.53338 1.0774,2.83377 3.55915,3.13059 21.44609,2.56495 l 14,-0.44272 z m -91.56521,-8.93124 c 1.01342,-1.01351 1.35636,-10.13983 1.55943,-41.5 l 0.26033,-40.20078 -3.26868,-3.83314 -3.26868,-3.83314 -18.17491,0.0122 c -19.07772,0.0128 -19.90686,0.17238 -25.96902,4.99646 l -3.16064,2.51514 -0.0925,40.07122 c -0.0509,22.03917 0.24643,40.56625 0.66064,41.17128 1.40028,2.04538 3.7077,2.22179 26.95399,2.06071 17.52076,-0.12141 23.51894,-0.47885 24.5,-1.45999 z M 967.20854,880.97644 972,875.95289 v -36.77645 c 0,-27.27056 -0.31017,-37.08661 -1.2,-37.97644 -0.72939,-0.72939 -4.27677,-1.2 -9.04545,-1.2 -6.88008,0 -8.13185,0.2864 -10.17294,2.32748 l -2.32747,2.32747 -0.13862,36.27279 c -0.085,22.23541 0.26052,37.75506 0.89276,40.10301 1.10036,4.08644 2.1121,4.66751 8.45026,4.85325 3.51487,0.103 4.49557,-0.44704 8.75,-4.90756 z m -112.24372,2.0893 c 1.25153,-2.33852 1.41005,-57.92628 0.17076,-59.88061 -0.53661,-0.84622 -2.37867,-1.20264 -5.16813,-1 -3.79535,0.27572 -4.42721,0.66468 -5.08128,3.12797 -0.41082,1.5472 -0.6573,14.87576 -0.54773,29.619 0.15487,20.83746 0.50062,27.16905 1.55284,28.4369 1.93518,2.33175 7.76765,2.13682 9.07354,-0.30326 z M 871,856.48801 c 0.79223,-34.83905 0.0462,-63.53306 -1.66898,-64.19123 -0.7795,-0.29912 -1.66886,-0.29228 -1.97634,0.0152 -0.30749,0.30749 -0.59278,15.75 -0.63398,34.31669 l -0.0749,33.75762 -3.3229,3.67805 c -1.8276,2.02293 -3.3229,4.39824 -3.3229,5.27846 0,2.14927 7.11227,9.49253 9,9.29231 1.2661,-0.13429 1.57797,-3.58776 2,-22.14711 z m -42.503,20.51685 c 0.89999,-1.45622 1.75758,-46.59135 1.00237,-52.75486 -0.5173,-4.22179 -1.00769,-5.25 -2.50394,-5.25 -1.02336,0 -2.1126,0.79381 -2.42053,1.76402 -0.77307,2.43571 0.0984,53.32198 0.95021,55.48598 0.76645,1.9471 2.03578,2.26951 2.97189,0.75486 z m -156.21485,-4.8002 c 3.10977,-2.92148 6.83427,-2.80606 9.5309,0.29534 2.07509,2.38656 2.67847,2.5 13.29736,2.5 h 11.12363 l 3.88298,-4.00114 c 3.51927,-3.62637 3.88298,-4.49776 3.88298,-9.303 0,-4.35078 -0.55367,-6.05474 -3.08651,-9.49886 -1.69758,-2.30835 -3.83508,-4.20195 -4.75,-4.20801 -0.91492,-0.006 -3.23849,-0.26883 -5.16349,-0.58395 -2.75156,-0.45042 -4.33975,-0.001 -7.42703,2.10101 l -3.92703,2.67395 -20.07297,6.1e-4 c -24.80619,7.6e-4 -24.98122,0.067 -24.39745,9.23493 0.69133,10.85711 4.61997,13.65333 18.54217,13.1974 4.85239,-0.1589 6.73301,-0.68772 8.56446,-2.40828 z m 98.71147,1.79875 c 2.15429,-1.15294 2.43721,-6.70593 2.17221,-42.6351 -0.12482,-16.9227 0.11986,-21.36052 1.22843,-22.28055 1.17039,-0.97134 1.42429,2.13943 1.64315,20.13169 0.14237,11.7043 0.16175,24.51574 0.0431,28.46986 -0.1216,4.05117 0.30479,8.19794 0.97683,9.5 2.02325,3.92 5.18899,6.81069 7.45873,6.81069 2.79673,0 4.11186,-4.62898 4.3819,-15.42327 0.20817,-8.32144 0.61749,-9.99425 2.20533,-9.01291 0.53079,0.32804 0.92274,3.59788 0.871,7.26631 -0.11547,8.18796 1.0185,12.34584 3.7388,13.70891 1.1405,0.57147 2.8157,1.6549 3.72267,2.40762 3.50905,2.91225 3.97212,0.0732 4.35626,-26.70806 0.46012,-32.07881 -0.28346,-44.48302 -2.63941,-44.02984 -1.18601,0.22814 -1.8376,1.83012 -2.30792,5.67419 -0.36044,2.94597 -1.38635,6.08731 -2.27979,6.98076 -1.49927,1.49926 -1.66722,1.46091 -2.17942,-0.49773 -0.30523,-1.1672 -1.64182,-2.61739 -2.9702,-3.22264 C 789.20029,810.13413 789,809.46903 789,803.12293 v -6.91995 l -6.75,-0.6776 c -3.7125,-0.37268 -14.34674,-0.77696 -23.63165,-0.89841 -13.18032,-0.1724 -17.18166,0.0792 -18.25,1.14753 C 739.29198,796.85088 739,801.92374 739,819.54838 v 22.40551 l 2.5,1.63807 c 3.12002,2.04431 3.16071,3.20634 0.15232,4.35013 -2.02693,0.77064 -2.42375,1.75775 -2.90456,7.22525 -0.30933,3.51762 -0.009,8.99982 0.67606,12.33266 1.11465,5.42431 1.51327,6.06061 4.15457,6.63169 4.81354,1.04074 25.41098,0.94436 27.41523,-0.12828 z m 44.69926,0.38124 c 1.37125,-0.36771 2.42831,-1.65992 2.82121,-3.4488 0.34558,-1.57342 0.75201,-15.25266 0.90317,-30.39831 L 819.69211,813 h -2.17967 c -1.19881,0 -4.0524,1.7289 -6.3413,3.842 l -4.16163,3.842 0.0959,21.908 c 0.0834,19.06299 0.6019,25.75921 2.41263,31.158 0.45143,1.34597 2.67141,1.57414 6.17489,0.63465 z M 604.57422,855.52706 c 1.02524,-1.56471 2.96185,-2.71028 5.27306,-3.11919 2.03893,-0.36074 5.08859,-2.00569 6.90272,-3.72323 2.84317,-2.69181 3.25,-3.71814 3.25,-8.19902 0,-4.23288 -0.55794,-5.848 -3.214,-9.30384 C 615.0183,828.8818 612.81109,827 611.88108,827 c -1.85544,0 -13.19374,10.63757 -16.68556,15.65437 -2.89344,4.15709 -2.77769,5.63912 0.85252,10.91545 3.47286,5.04763 6.10533,5.65193 8.52618,1.95724 z m 124.00801,1.3399 c 0.38514,-0.62318 0.69442,-5.69314 0.68728,-11.26659 -0.012,-9.33831 -0.22395,-10.44442 -2.70137,-14.09509 -3.30144,-4.86495 -4.2152,-5.47059 -8.28296,-5.48997 -3.54399,-0.0169 -5.28518,2.09023 -5.28518,6.3959 0,3.01193 -3.59875,5.74235 -7.05668,5.35399 -3.86726,-0.43433 -3.38923,2.55359 1.13184,7.07467 3.12476,3.12476 4.94655,4.16013 7.31998,4.16013 3.86445,0 7.11837,2.15855 9.13625,6.0607 1.55867,3.01414 3.80733,3.81829 5.05084,1.80626 z M 1280.5,839.91667 c 0,-3.8189 -0.3045,-4.45992 -2.25,-4.73622 -2.0007,-0.28415 -2.25,0.10912 -2.25,3.55 0,3.90971 1.5566,6.58402 3.4625,5.94872 0.5706,-0.19021 1.0375,-2.33334 1.0375,-4.7625 z m -16.75,-2.47182 c 0.6875,-0.21014 1.25,-1.12872 1.25,-2.04127 0,-1.39008 -0.6845,-1.54975 -4.22,-0.98439 -4.0746,0.65155 -6.1575,2.16099 -5.1752,3.75031 0.4228,0.68413 4.8146,0.29341 8.1452,-0.72465 z m 55.6524,-12.93824 c 7.0456,-5.37389 7.2124,-10.89256 0.357,-11.81206 -2.9387,-0.39415 -4.7446,-1.32685 -6.0567,-3.12808 -1.6408,-2.2525 -2.5891,-2.56647 -7.7513,-2.56647 -5.2099,0 -6.3046,0.37125 -9.5834,3.25 -2.0358,1.7875 -3.964,3.25 -4.2847,3.25 -0.3208,0 -0.496,1.70839 -0.3894,3.79642 0.2364,4.62616 4.7584,9.35395 9.5973,10.0339 7.974,1.12049 14.216,0.14731 18.1112,-2.82371 z M 503,807.90506 c 2.92468,-1.74434 8.04619,-6.50956 21.55453,-20.05506 1.95879,-1.96418 7.52121,-7.52258 12.63419,-12.62506 2.15082,-2.1464 4.11873,-5.35796 4.7201,-7.70304 0.56725,-2.21205 2.28232,-5.23808 3.81127,-6.72453 1.52895,-1.48644 6.00088,-5.82937 9.93762,-9.65095 7.94117,-7.70887 7.63177,-6.09083 2.84845,-14.89642 -0.82161,-1.5125 -1.49661,-4.63321 -1.5,-6.9349 -0.0126,-8.54904 -2.64377,-10.92418 -9.29882,-8.39393 -1.87863,0.71426 -2.55035,1.8717 -2.99045,5.15291 -0.64617,4.81756 -3.99902,8.23684 -9.71689,9.90941 -4.1862,1.22453 -20.94844,15.98861 -22.59294,19.89972 -0.62546,1.48754 -3.56042,4.70367 -6.52213,7.14696 -6.60304,5.44722 -6.66128,5.52407 -7.96131,10.50574 -0.81691,3.13032 -2.01585,4.64491 -5.34328,6.75 -2.35953,1.49275 -4.71472,2.71409 -5.23375,2.71409 -1.41066,0 -9.34681,7.88683 -9.3452,9.28713 7.7e-4,0.66708 3.59736,4.92537 7.99242,9.46287 8.87017,9.15763 10.80047,9.85626 17.00619,6.15506 z m 746.8002,-2.50739 c 0.1996,-1.39788 -0.9219,-3.17537 -3.347,-5.30464 -4.8442,-4.25327 -6.8655,-3.78664 -7.2612,1.67636 -0.2644,3.64956 0.019,4.38667 2,5.20152 3.9249,1.6145 8.2663,0.82106 8.6082,-1.57324 z M 1264,804.5 c 0,-2.55315 -1.3649,-3.33666 -2.5296,-1.45211 -0.8319,1.34598 0.1561,3.95211 1.4982,3.95211 0.5673,0 1.0314,-1.125 1.0314,-2.5 z m -417.32963,-7.48897 c 3.09535,-2.27635 4.20743,-3.87059 4.66444,-6.68677 0.5922,-3.64934 -0.72577,-6.8187 -2.40418,-5.78138 -0.46352,0.28647 -1.59145,-0.62179 -2.50652,-2.01836 -1.12384,-1.71519 -2.92293,-2.74056 -5.54393,-3.15967 C 837.92344,778.89205 837,778.28374 837,776.80883 c 0,-1.58059 0.59473,-1.87808 3.24305,-1.62219 2.40402,0.23229 3.58849,1.03763 4.5783,3.11289 1.25561,2.63254 1.61392,2.76291 6.00696,2.18566 C 860.92963,779.15787 861,779.12396 861,775.58465 c 0,-2.22436 -1.15602,-4.74023 -3.64752,-7.93818 -3.33964,-4.28658 -3.92321,-4.63003 -6.9139,-4.06897 -2.64464,0.49614 -3.47622,0.22069 -4.3688,-1.44711 -0.60633,-1.13294 -2.96757,-2.6187 -5.2472,-3.30169 -2.27963,-0.683 -5.17683,-2.27386 -6.43823,-3.53525 C 833.12296,754.03205 831.3819,753 830.51534,753 c -0.86656,0 -4.49307,-2.475 -8.05892,-5.5 -3.56584,-3.025 -7.29244,-5.5 -8.28132,-5.5 -0.98889,0 -2.73018,-0.86848 -3.86954,-1.92995 -1.13935,-1.06147 -3.81171,-2.39994 -5.93856,-2.97438 -2.12685,-0.57444 -4.43331,-1.95596 -5.12547,-3.07005 C 798.43774,732.73186 796.91467,732 795.026,732 c -1.94678,0 -4.02147,-1.04051 -6.07263,-3.04558 -3.10869,-3.03884 -3.134,-3.0441 -11.42703,-2.3712 -8.19515,0.66495 -8.33555,0.6376 -10.0339,-1.95442 -1.95891,-2.98967 -4.61472,-3.39131 -6.6008,-0.99823 -1.16846,1.40791 -1.03111,1.85169 1.00587,3.25 4.44097,3.04854 8.26609,7.12864 7.85089,8.37424 -0.94331,2.82993 -5.39976,0.68275 -12.46294,-6.00481 -1.42423,-1.34849 -3.63116,-2.25 -5.50809,-2.25 -2.30569,0 -3.8426,-0.85152 -5.82689,-3.22839 -2.34116,-2.80432 -2.90898,-3.05094 -4.32283,-1.87755 -2.63692,2.18845 -2.07537,7.6086 1.04237,10.06102 2.20039,1.73082 2.74958,3.10675 3.12233,7.82258 0.51399,6.50277 1.22314,7.75843 4.90334,8.6821 1.43751,0.36079 5.0535,2.83058 8.03553,5.48842 2.98203,2.65784 6.78357,5.10478 8.44787,5.43764 1.66431,0.33286 3.91252,1.73222 4.99604,3.10969 1.08352,1.37747 2.51151,2.50449 3.17331,2.50449 0.66181,0 4.45725,2.025 8.43432,4.5 3.97706,2.475 8.16853,4.5 9.31436,4.5 1.14584,0 3.26794,1.35 4.71579,3 1.44785,1.65 3.50227,3 4.56538,3 1.06311,0 3.40788,1.125 5.2106,2.5 1.80272,1.375 4.40205,2.5 5.77629,2.5 1.63488,0 3.23709,1.03707 4.63482,3 1.60973,2.26065 2.92288,3 5.32831,3 1.91931,0 4.18489,0.90432 5.68191,2.26797 8.30336,7.56362 11.53392,8.24833 17.66015,3.74306 z m -285.11463,-3.10122 c 0.34851,-0.5639 0.70354,-4.86051 0.78896,-9.54801 0.13464,-7.38868 -0.10299,-8.71162 -1.78583,-9.94226 -3.9302,-2.87413 -6.97395,-1.78175 -13.45939,4.83046 -6.70024,6.83121 -7.72469,8.97538 -6.20191,12.9806 0.99254,2.61056 1.15894,2.65294 10.51651,2.6785 5.44534,0.0149 9.77876,-0.41211 10.14166,-0.99929 z m 715.24946,-2.07668 c 13.1741,0.23037 18.7102,-0.016 19.75,-0.87896 0.8571,-0.7113 1.4448,-2.97977 1.4448,-5.57661 V 781 l -5.25,-0.10177 c -2.8875,-0.056 -8.175,-0.27697 -11.75,-0.49111 -3.575,-0.21414 -10.55,0.0666 -15.5,0.62391 -8.5136,0.9585 -9.1756,1.20716 -12.25,4.60153 -4.9111,5.42229 -4.206,8.12669 1.75,6.71187 1.925,-0.45727 11.7374,-0.68736 21.8052,-0.5113 z m -235.7927,-4.61037 c 5.1645,-5.16445 5.3233,-8.66403 0.6194,-13.65156 -2.4359,-2.58278 -4.2148,-3.5712 -6.4274,-3.5712 -2.0497,0 -3.6909,-0.80288 -4.973,-2.43289 -1.8454,-2.34599 -2.4135,-2.44166 -15.9068,-2.67855 l -13.9931,-0.24566 -1.52897,-2.66407 c -1.34958,-2.35151 -2.33693,-2.74036 -8.41579,-3.31434 -3.78776,-0.35765 -8.53981,-0.65347 -10.56011,-0.65738 -2.45169,-0.005 -4.66135,-0.83852 -6.64436,-2.50711 -2.79341,-2.35049 -3.66096,-2.5 -14.50717,-2.5 -11.13682,0 -11.54716,-0.0765 -11.85565,-2.20901 -0.43608,-3.01457 -3.10318,-3.57365 -17.60939,-3.69131 -9.92874,-0.0805 -13.00262,-0.4622 -16,-1.98664 -3.00538,-1.52851 -6.49918,-1.9582 -18.39235,-2.26198 -13.69976,-0.34993 -14.84691,-0.52977 -17.14396,-2.68774 -2.15594,-2.02539 -2.72342,-2.14931 -4.56781,-0.99747 -1.15832,0.72338 -2.10604,1.657 -2.10604,2.0747 0,1.36356 -2.44701,0.75643 -5,-1.24055 -2.08264,-1.62907 -4.11404,-1.95924 -12.16821,-1.97776 -13.97928,-0.0322 -15.26587,0.86706 -9.80117,6.85014 1.83045,2.00409 3.6172,3.093 4.51185,2.7497 2.0864,-0.80063 6.30661,1.32705 7.00658,3.53247 0.36914,1.16305 2.23763,2.26655 5.02718,2.96896 3.38287,0.85182 5.38991,2.25287 8.43165,5.8859 2.95954,3.53485 4.94346,4.94648 7.67092,5.45815 5.13163,0.96271 10.30953,6.30219 10.35915,10.68244 0.0312,2.75831 0.7414,3.83664 4.02071,6.10524 l 3.98276,2.75525 42.27956,0.14867 c 38.48283,0.13533 42.51569,-0.006 44.90912,-1.57427 2.46943,-1.61803 2.78612,-1.62037 5.20054,-0.0384 1.41404,0.92652 3.13747,2.87008 3.82984,4.31903 1.20166,2.51478 1.71269,2.66278 11.24922,3.25791 5.4946,0.3429 15.5084,0.5027 22.2528,0.35511 l 12.2626,-0.26834 z m 34.7982,2.08469 c 0.2073,-1.44974 -0.4578,-2.57779 -2,-3.3919 -1.2709,-0.67087 -3.3017,-2.27632 -4.513,-3.56766 -1.2112,-1.29134 -3.3306,-2.34789 -4.7098,-2.34789 -2.0558,0 -2.7218,0.71499 -3.6965,3.96827 -1.5887,5.30253 -0.2485,6.82304 6.44,7.30631 7.5748,0.54731 8.1383,0.41658 8.4793,-1.96713 z m -295.70907,-5.37026 c 0.65439,-0.40444 0.90911,-1.46681 0.56605,-2.36083 -0.44921,-1.17061 -1.33096,-1.44799 -3.15091,-0.99121 -2.18535,0.54849 -2.72352,0.16428 -3.97911,-2.84078 -1.21526,-2.90851 -2.09224,-3.57743 -5.37925,-4.10305 -2.71742,-0.43453 -5.49725,-2.03953 -9.02349,-5.20992 -2.80291,-2.52006 -6.65403,-5.01206 -8.55805,-5.53779 -1.91853,-0.52973 -3.72516,-1.78547 -4.05248,-2.81676 -0.58824,-1.85338 -3.27807,-3.03722 -6.95994,-3.0632 -1.06455,-0.008 -2.88111,-0.90196 -4.03679,-1.98766 -2.45162,-2.30318 -3.08194,-2.39373 -15.20623,-2.18443 C 710.11584,753.01773 708,754.07231 708,758.98284 c 0,2.2279 1.45117,4.16971 6.73334,9.00986 3.70333,3.39343 7.43453,7.23879 8.29155,8.54525 0.85703,1.30646 3.33953,3.73061 5.51667,5.387 l 3.95844,3.01162 23.20591,-0.13202 c 12.76325,-0.0726 23.74132,-0.46292 24.39572,-0.86736 z M 1118,778.05978 c 2.3431,-2.77255 3.0452,-2.98659 11.1848,-3.40968 9.8999,-0.51459 10.8152,-0.86466 10.8152,-4.13654 0,-1.33636 1.0913,-3.22685 2.5045,-4.33843 1.3775,-1.08352 2.7878,-3.47868 3.1341,-5.32258 0.5699,-3.0345 3.7119,-8.21874 7.0752,-11.67398 0.7074,-0.72678 1.2862,-1.79867 1.2862,-2.38196 0,-1.9644 -4.0843,-7.68951 -5.7997,-8.12955 -2.9354,-0.75305 -65.0018,-0.19887 -65.7881,0.58741 -0.4113,0.41131 -0.9524,3.21459 -1.2024,6.22951 -0.4264,5.1416 -0.2609,5.65163 2.6678,8.22153 3.0127,2.64359 3.1224,3.02367 3.1224,10.81717 0,4.94903 0.4648,8.54207 1.2,9.27732 0.66,0.66 3.7254,1.2 6.8119,1.2 5.076,0 5.8238,0.28653 7.83,3 1.9696,2.66407 2.8025,3.00101 7.438,3.00901 4.5592,0.008 5.5366,-0.36551 7.7201,-2.94923 z m 42.4391,-3.65044 c 0.9736,-4.63042 -1.4209,-6.2653 -5.9871,-4.08783 -1.8986,0.90537 -3.452,2.08719 -3.452,2.62626 0,1.40977 7.2944,6.16848 8.1076,5.28923 0.375,-0.40535 0.9741,-2.1278 1.3315,-3.82766 z m 135.7811,-0.23357 c 1.0403,-1.04348 0.8295,-1.62403 -1.1263,-3.1018 -3.1582,-2.38637 -2.203,-5.07397 1.8033,-5.07397 1.628,0 3.6671,-0.70714 4.5314,-1.57143 1.6325,-1.63257 2.0828,-6.11685 0.8061,-8.02887 -1.1866,-1.77702 -5.2751,-3.59818 -6.7808,-3.02038 -0.7644,0.29333 -1.668,0.0833 -2.008,-0.4668 -1.1064,-1.79021 1.7186,-3.91252 5.2079,-3.91252 4.2632,0 5.3605,-2.28759 2.5429,-5.30088 -1.1788,-1.26059 -2.193,-3.90622 -2.3765,-6.19912 l -0.3202,-4 -17.5,-0.52384 c -23.8909,-0.71515 -27,0.15539 -27,7.55998 0,1.89617 -0.807,3.8842 -2.0236,4.98524 -1.113,1.00725 -1.6755,2.17123 -1.25,2.58661 0.4255,0.41539 5.2736,0.84731 10.7736,0.95981 11.538,0.23602 13.5,0.5791 13.5,2.3607 0,0.85696 -2.0668,1.48113 -6.1221,1.84885 -5.3793,0.48778 -6.5925,1.01453 -10,4.34184 -2.9541,2.88462 -3.8779,4.57214 -3.8779,7.08376 0,1.96372 -0.8088,4.10585 -2,5.29705 -1.1,1.1 -2,2.82282 -2,3.8285 0,1.71883 1.3176,1.82257 21.9702,1.72976 16.4442,-0.0739 22.2922,-0.42163 23.25,-1.38249 z m -83.6507,-1.59668 c 0.8567,-3.41327 0.1624,-6.07909 -1.5832,-6.07909 -1.5548,0 -2.5728,4.52934 -1.5923,7.08447 0.8432,2.19716 2.5037,1.67143 3.1755,-1.00538 z M 1224,773 c 0,-1.33333 -0.6667,-2 -2,-2 -1.3333,0 -2,0.66667 -2,2 0,1.33333 0.6667,2 2,2 1.3333,0 2,-0.66667 2,-2 z m -649,-6 c 0,-0.55 -0.45,-1 -1,-1 -0.55,0 -1,0.45 -1,1 0,0.55 0.45,1 1,1 0.55,0 1,-0.45 1,-1 z m 596.4021,-4.49092 c 1.1148,-1.70138 2.9193,-2.69674 5.6931,-3.14029 4.4963,-0.71899 5.9048,-2.8406 5.9048,-8.89446 0,-3.29874 -0.5788,-4.21667 -4.2618,-6.75844 -0.969,-0.66874 -2.104,-3.24089 -2.5221,-5.71589 -0.6975,-4.12817 -1.0216,-4.52548 -3.9218,-4.8084 -4.1269,-0.40259 -4.9286,1.1913 -5.8369,11.6045 -0.6087,6.97759 -1.1659,8.82041 -3.589,11.86946 -2.7767,3.49412 -3.5796,6.28995 -2.2017,7.66777 0.3666,0.36667 2.5649,0.66667 4.885,0.66667 3.3919,0 4.538,-0.48797 5.8504,-2.49092 z m 151.9676,0.24092 c 0.9636,-3.59543 0.6929,-20.10373 -0.3565,-21.75 -0.7399,-1.16053 -1.3588,-1.24952 -2.7347,-0.3932 -1.5104,0.93992 -1.821,2.86228 -2.0602,12.75 L 1317.9365,765 h 2.4151 c 1.6593,0 2.6039,-0.7042 3.0181,-2.25 z m -111.592,-4 c 0.5624,-0.6875 1.18,-3.95 1.3725,-7.25 0.313,-5.36806 0.1479,-6 -1.5669,-6 -2.5785,0 -3.9656,4.46476 -3.1262,10.06251 0.6835,4.55803 1.5326,5.37309 3.3206,3.18749 z m -215.51157,-2.65969 c 0.46587,-1.78149 1.50377,-1.89897 15.46097,-1.75 11.398,0.12165 15.356,-0.16721 16.6173,-1.21275 1.2963,-1.07458 1.6556,-3.16411 1.6556,-9.62756 0,-9.79589 -0.9014,-11 -8.2343,-11 -3.3411,0 -5.3033,-0.5107 -6.0963,-1.58666 -2.4689,-3.34982 -5.2837,-3.81785 -22.76431,-3.78507 -9.5728,0.018 -26.85509,0.0194 -38.40509,0.003 -32.90269,-0.046 -33.07099,-0.0272 -37.24429,4.14606 -5.70262,5.70262 -4.39357,6.72237 8.6295,6.72237 10.79064,0 10.97678,0.0395 12.95249,2.75 1.9885,2.72805 2.09753,2.75 13.65986,2.75 11.56118,0 11.67157,0.0222 13.66191,2.74945 1.98606,2.72139 2.09125,2.74295 10.30422,2.11165 11.31893,-0.87004 13.09142,-0.28577 15.65078,5.15904 2.28621,4.8637 3.37554,5.53807 4.15166,2.57017 z m 248.48387,-2.349 c 3.0497,-2.40608 0.6813,-4.74131 -4.8087,-4.74131 -1.9847,0 -3.4103,-0.7862 -4.5333,-2.5 -2.082,-3.17757 -3.0227,-3.1142 -7.8361,0.52782 -2.1605,1.6347 -4.973,2.97218 -6.25,2.97218 -2.9636,0 -3.024,2.39479 -0.1119,4.43455 1.8004,1.26106 4.0709,1.43166 12.25,0.92046 5.522,-0.34513 10.6025,-1.07129 11.29,-1.6137 z m -175.1105,-1.26295 c 2.9917,-4.09147 1.0356,-8.47836 -3.7805,-8.47836 -3.9014,0 -4.4547,-1.71862 -1.4497,-4.50352 5.0355,-4.66676 2.6806,-6.39924 -9.158,-6.73747 -4.986,-0.14246 -9.4138,0.085 -9.8395,0.50546 -0.4258,0.42046 -1.0785,2.89546 -1.4505,5.5 -0.3721,2.60454 -1.0123,5.51924 -1.4227,6.4771 -0.7767,1.81293 -0.3879,2.07703 4.6962,3.19014 1.7955,0.39311 2.9441,1.43278 3.3442,3.02719 0.6709,2.67289 2.6722,3.15725 12.3105,2.97949 4.0225,-0.0742 5.7345,-0.57133 6.75,-1.96003 z M 733.77749,741.4433 c 2.88424,-2.0202 2.82005,-5.24567 -0.17367,-8.72659 -1.31655,-1.53081 -2.68037,-4.3112 -3.0307,-6.17865 -0.40979,-2.18438 -2.63809,-5.56077 -6.2477,-9.46671 L 718.71469,711 l -6.60734,0.007 c -4.91136,0.005 -7.3774,0.51657 -9.60735,1.99341 -4.17523,2.76514 -11.1421,2.68486 -14.17386,-0.16334 -2.29161,-2.15284 -2.52352,-2.16326 -47.84122,-2.14916 -45.20618,0.0141 -45.55515,0.0299 -47.82614,2.16333 -3.0864,2.89953 -10.78787,2.97939 -14.38591,0.14917 -1.39842,-1.1 -3.74448,-2 -5.21345,-2 -2.58058,0 -8.59953,3.6738 -10.23233,6.24553 -1.88563,2.96995 -0.51284,9.21157 2.74183,12.46624 0.68917,0.68918 1.01702,2.15561 0.72854,3.25875 -0.28848,1.10313 -0.22803,3.58605 0.13433,5.51759 0.50433,2.6883 1.15001,3.51189 2.75328,3.51189 1.15194,0 2.66563,-0.78114 3.36374,-1.73587 1.19424,-1.63322 1.52599,-1.60447 5.61024,0.48613 l 4.34095,2.222 74.52749,0.0139 c 65.84959,0.0122 74.78628,-0.16739 76.75,-1.54283 z" id="path1" transform="translate(-40,-60) rotate(60,900,900)"/>
	</svg>
	<!-- MA, text position adjusts to account for any overlined/underlined text. -->
	<svg x="3.00" y="47.00" width="54.00" height="10.00" style="overflow:visible">
		<text x="0.00" y="100.00%" dominant-baseline="auto" text-anchor="start" style="font-size:12.00px;font-weight:bold;font-family:Nimbus Sans L;fill:white">20L<tspan style="font-size:8.40px">(6)</tspan></text>
	</svg>
	<!-- ROF -->
	<svg x="3.00" y="33.28" width="11.22" height="11.22" style="overflow:visible">
		<text x="50%" y="75%" dominant-baseline="auto" text-anchor="middle"><tspan style="font-size:8.40px;font-weight:bold;font-family:Nimbus Sans L;font-family:Nimbus Sans L;fill:white;fill-opacity:1;stroke-width:0.2">2</tspan></text>
		<rect x="0.25" y="0.25" width="10.72" height="10.72" style="display:inline;fill:none;fill-opacity:1;stroke:white;stroke-width:0.50px;stroke-dasharray:none;stroke-opacity:1"/>
	</svg>
	<!-- Front Armor -->
	<svg x="40.00" y="15.00" width="18.00" height="12.00" style="overflow:visible">
		<text x="66%" y="79%" dominant-baseline="auto" text-anchor="middle"><tspan style="font-size:9.50px;font-weight:bold;font-family:Nimbus Sans L;fill:white;fill-opacity:1;stroke:none;stroke-width:0.2">2</tspan></text>
		<circle cx="66%" cy="50%" r="5.5" style="display:inline;fill:none;fill-opacity:0.0;stroke:white;stroke-width:0.75;stroke-dasharray:none;stroke-opacity:1"></circle> <!-- Inferior Turret Armor -->
	</svg>
	<!-- Side/Rear Armor -->
	<svg x="40.00" y="26.00" width="18.00" height="12.00" style="overflow:visible">
		<text x="66%" y="79%" dominant-baseline="auto" text-anchor="middle"><tspan style="font-size:9.50px;font-weight:bold;font-family:Nimbus Sans L;fill:white;fill-opacity:1;stroke:none;stroke-width:0.2">1</tspan></text>
		<circle cx="66%" cy="50%" r="5.5" style="display:inline;fill:none;fill-opacity:0.0;stroke:white;stroke-width:0.75;stroke-dasharray:none;stroke-opacity:1"></circle> <!-- Inferior Turret Armor -->
	</svg>
	<!-- Movement -->
	<svg x="30.00" y="3.00" width="27.00" height="12.00" style="overflow:visible">
		<rect x="6.00" width="21.00" height="12.00" y="0.00" ry="6.00" style="display:inline;fill:#8ccdf5;fill-opacity:1;stroke:none;stroke-width:1;stroke-dasharray:none;stroke-opacity:1"></rect>
		<text x="97%" y="84.00%" dominant-baseline="auto" text-anchor="end" style="font-size:11.00px;font-weight:bold;font-family:Nimbus Sans L;fill:black">15</text>
	</svg>
	<!-- Ground Pressure -->
	<svg x="2.00" y="2.00" width="10.00" height="10.00" style="overflow:visible">
		<rect x="1.00" y="1.00" width="8.00" height="8.00" style="display:inline;fill:none;fill-opacity:1;stroke:white;stroke-width:0.50;stroke-dasharray:none;stroke-opacity:1"/>
	</svg>
	<text id="name" x="35" y="20" style="font-size:5.00px;font-style:normal;font-variant:normal;font-weight:bold;font-stretch:normal;text-anchor:middle;fill:white;fill-opacity:1;font-family:Nimbus Sans L" transform="rotate(60,35,20)">FlaKPz 38(t)</text>
</svg>
