<?xml version="1.0" encoding="UTF-8" standalone="no"?>
<svg width="60" height="60" version="1.1" xmlns="http://www.w3.org/2000/svg" xmlns:svg="http://www.w3.org/2000/svg" xmlns:xlink="http://www.w3.org/1999/xlink">
	<!--
		Note #:		16v
		Name:		PzKpfw IIIN <i>MT</i> w/ Opt AAMG
		Version:	1.0

		Author(s): Gordon Molek, Klas Malmström, Alan Bills
		Tester(s): Alan Bills, Alan Cannamore, Doug Rimmer
		Counter data scraped with permission from: https://www.klasm.com/ASL/Listings/VehicleListings.html
	-->

	<defs id="fonts">
		<style>
			@font-face {
				font-family: Nimbus Sans L;
				font-weight: normal;
				font-style: normal;
				src: url("../../fonts/NimbusSanL-Reg.ttf") format("ttf");
			}
			@font-face {
				font-family: Nimbus Sans L;
				font-weight: bold;
				font-style: normal;
				src: url("../../fonts/NimbusSanL-Bol.ttf") format("ttf");
			}
			@font-face {
				font-family: Nimbus Sans L;
				font-weight: normal;
				font-style: italic;
				src: url("../../fonts/NimbusSanL-RegIta.ttf") format("ttf");
			}
			@font-face {
				font-family: Nimbus Sans L;
				font-weight: bold;
				font-style: italic;
				src: url("../../fonts/NimbusSanL-BolIta.ttf") format("ttf");
			}
		</style>
	</defs>
	<!-- The bevel - is there a better/more efficient way to achieve this? -->
	<defs id="bevel">
		<filter id="highlight_filter" x="-0.058226637" y="-0.058226637" width="1.1144796" height="1.1144796" style="color-interpolation-filters:sRGB;">
			<feGaussianBlur stdDeviation="10 10" result="fbSourceGraphic" id="feGaussianBlur3"/>
			<feColorMatrix result="fbSourceGraphicAlpha" in="fbSourceGraphic" values="0 0 0 -1 0 0 0 0 -1 0 0 0 0 -1 0 0 0 0 1 0" id="feColorMatrix3"/>
			<feGaussianBlur id="feGaussianBlur4" stdDeviation="10 10" result="blur" in="fbSourceGraphic"/>
		</filter>
		<filter id="shadow_filter" x="-0.030508946" y="-0.030508946" width="1.0629916" height="1.0629916" style="color-interpolation-filters:sRGB;">
			<feGaussianBlur id="feGaussianBlur5" stdDeviation="10 10" result="blur"/>
		</filter>
		<clipPath id="counter_clipping">
			<rect x="0" y="0" width="100%" height="100%" ry="4" rx="4" style="display:inline;fill:red;fill-opacity:1;stroke:none;stroke-width:0;stroke-dasharray:none;stroke-dashoffset:0;stroke-opacity:0"/>
		</clipPath>
	</defs>
	<g id="background">
		<rect id="color" x="0" y="0" width="100%" height="100%" ry="4" rx="4" style="display:inline;fill:#000000;fill-opacity:1;stroke:none;stroke-width:0;stroke-dasharray:none;stroke-dashoffset:0;stroke-opacity:0"/>
		<g id="bevel" clip-path="url(#counter_clipping)">
			<path id="shadow" style="display:inline;fill:none;stroke:#707070;stroke-width:25.1286;filter:url(#shadow_filter);stroke-opacity:50" d="m 1023.6424,120.45592 c 10.8149,10.81495 17.4864,25.7734 17.4864,42.34736 v 830.07515 c 0,33.14797 -26.6859,59.83377 -59.83378,59.83377 H 151.21981 c -16.57396,0 -31.54851,-6.6875 -42.34737,-17.4864" transform="matrix(1.0503456,0,0,1.0590455,-36.912259,-39.56161) scale(0.06) translate(490,500)"/>
			<path id="highlight" style="display:inline;fill:none;stroke:#ffffff;stroke-width:25.1286;stroke-opacity:50;filter:url(#highlight_filter)" d="M 108.87244,1035.2258 C 98.057485,1024.4109 91.386017,1009.4524 91.386017,992.87843 V 162.80328 c 0,-33.14792 26.685873,-59.83379 59.833793,-59.83379 h 830.07521 c 16.57394,0 31.53238,6.67147 42.34738,17.48643" transform="matrix(1.0387133,0,0,1.0339712,-12.412385,-8.9484139) scale(0.06) translate(118,54)"/>
		</g>
	</g>
	<!-- Fast Turret -->
	<svg x="0.00" y="0.00" width="60.00" height="60.00" style="overflow:visible">
		<circle cx="30.00" cy="30.00" r="25.00" style="display:inline;fill:none;fill-opacity:1;stroke:#b4b4b4;stroke-width:1.8;stroke-dasharray:none;stroke-opacity:1"></circle>
	</svg>
	<!-- Unit depiction -->
	<svg x="0.00" y="0.00" width="60.00" height="60.00" viewBox="0 0 1800 1800">
		<path style="fill:#ffffff" d="m 1320.0695,1129.5838 c -1.2261,-1.4774 -23.2475,-1.5688 -263.9536,-1.096 -144.43874,0.2837 -321.52203,0.7728 -393.51841,1.0869 -71.99638,0.3141 -133.05436,0.2751 -135.6844,-0.087 -2.92992,-0.4029 -5.59385,-1.4962 -6.87839,-2.8228 -5.23095,-5.4024 -7.83353,-9.4674 -8.42873,-13.1652 -0.35411,-2.2 -0.81614,-19.0487 -1.02672,-37.4416 -0.35631,-31.1216 -0.51109,-33.5353 -2.23106,-34.7918 -2.51627,-1.8381 -2.86254,-8.3805 -3.21407,-60.72657 -0.18665,-27.79395 -0.66329,-43.68015 -1.35015,-45 C 503.20005,934.41801 500.40783,930.8 497.57902,927.5 491.83204,920.79576 490,917.28778 490,912.98774 c 0,-1.86531 -1.17256,-4.25538 -3.25,-6.62457 l -3.25,-3.70641 -0.006,-13.41315 c -0.005,-12.10612 -0.19428,-13.55105 -1.94113,-14.82838 C 480.48869,873.63685 478.59426,873 477.34335,873 c -3.65202,0 -7.98243,-5.04755 -9.09815,-10.60487 -1.32675,-6.6084 -1.09089,-104.96259 0.2548,-106.25621 0.55,-0.52871 10.59379,-1.16112 22.31954,-1.40536 18.25887,-0.38031 21.56079,-0.68562 23,-2.12663 1.48724,-1.4891 1.68046,-4.65557 1.68046,-27.53861 0,-24.22628 0.12284,-25.99186 1.94888,-28.01069 1.62465,-1.79617 1.9729,-3.77249 2.09323,-11.87893 0.21299,-14.34957 -0.003,-14.1389 14.74307,-14.37077 6.71815,-0.10564 13.33982,-0.12958 14.71482,-0.0532 7.15691,0.39755 47.03088,0.20274 64.5,-0.31513 11,-0.3261 22.7,-0.48388 26,-0.35063 5.16655,0.20861 47.63983,0.25582 81.5,0.0906 5.775,-0.0282 17.475,0.0193 26,0.10549 12.75658,0.12898 56.51158,0.007 72.5,-0.2026 2.2,-0.0288 10.3,-0.26894 18,-0.53364 16.78556,-0.57703 15.72065,-0.56569 42,-0.44728 11.55,0.052 23.7,0.0422 27,-0.0218 3.3,-0.0641 11.625,-0.1266 18.5,-0.13899 14.93485,-0.0269 147.8482,-0.89952 150,-0.98478 6.1931,-0.2454 20.1572,1.52855 21.1148,2.68235 1.9859,2.39287 9.6879,1.70551 13.1047,-1.16952 1.9254,-1.62009 3.6858,-2.31618 4.8907,-1.93378 1.0354,0.32861 7.8466,0.57781 15.1361,0.55377 7.2895,-0.024 25.6287,0.008 40.7537,0.0708 29.5356,0.12299 36.8621,0.0762 47,-0.30035 3.575,-0.13278 13.7,-0.11947 22.5,0.0296 8.8,0.14905 27.025,0.0566 40.5,-0.20534 24.5299,-0.47691 30.7291,0.0803 33.1343,2.97842 1.5081,1.81713 3.8283,1.68198 6.0781,-0.35406 1.7765,-1.60769 2.0551,-1.50695 5.5787,2.01709 l 3.7089,3.70929 0.09,43.73292 c 0.05,24.10605 -0.3325,45.60974 -0.8516,47.91491 -0.9466,4.20313 -2.1418,5.27763 -6.7138,6.0361 -1.3613,0.22583 -3.0291,0.87039 -3.7062,1.43234 -0.6771,0.56196 -1.6735,0.74832 -2.2142,0.41413 -0.5407,-0.33418 -2.9055,-0.30022 -5.2549,0.0755 -3.2119,0.51359 -5.398,1.79345 -8.8107,5.15805 l -4.5389,4.47497 -0.1697,88.61347 c -0.093,48.7374 -0.1796,89.96346 -0.1918,91.61346 -0.012,1.65 0.2892,16.06293 0.6697,32.02872 l 0.6918,29.02868 4.0882,3.6915 4.0882,3.6915 10.6062,0.3568 c 10.2943,0.3464 10.6992,0.4477 13.7653,3.4453 3.0566,2.9885 3.1763,3.4284 3.6944,13.5803 0.4886,9.5736 0.3441,10.8014 -1.6518,14.0307 -2.109,3.4124 -2.1944,4.6111 -2.3888,33.5101 -0.111,16.4841 -0.4834,30.2525 -0.8278,30.5965 -0.3444,0.344 -2.1652,0.8752 -4.0464,1.1805 -2.4408,0.3961 -3.8034,0.093 -4.758,-1.0568 z m -314.0923,-16.5716 c 3.3967,-1.8179 4.0051,-5.1593 3.8771,-21.2944 -0.067,-8.3698 -0.038,-19.1286 0.064,-23.9085 l 0.1842,-8.6906 -3.6674,-4.0594 -3.6673,-4.0593 h -8.88366 c -5.53595,0 -8.88364,0.3956 -8.88364,1.0497 0,2.4641 3.22797,6.9449 7.0031,9.7212 4.77097,3.5086 3.95824,4.2291 -4.77044,4.2291 -4.43518,0 -6.10308,-0.4692 -7.99818,-2.25 -2.01898,-1.8972 -3.74639,-2.3066 -11.01686,-2.6109 -7.99739,-0.3348 -8.81809,-0.5704 -11.32124,-3.25 -3.34531,-3.5812 -6.77252,-3.7056 -10.71401,-0.3891 -1.6341,1.375 -3.8312,2.5 -4.88245,2.5 -1.05125,0 -3.43621,1.125 -5.29992,2.5 -4.93543,3.6412 -5.63879,3.0642 -1.77177,-1.4535 4.16841,-4.8699 6.34232,-8.8093 5.38793,-9.7637 -1.13041,-1.1304 -22.9636,-1.1676 -24.36616,-0.042 -0.6875,0.552 -1.25,2.382 -1.25,4.0667 0,1.7277 -0.90832,4.03 -2.08351,5.2809 -2.39251,2.5467 -4.08613,8.8612 -3.26176,12.1611 1.01124,4.0479 -0.376,6.8289 -3.95431,7.9271 -4.03621,1.2388 -9.20681,0.6226 -10.7907,-1.2859 -0.63503,-0.7652 -2.46447,-1.3912 -4.06541,-1.3912 -3.2217,0 -11.94347,4.0828 -15.19712,7.1141 -3.10573,2.8934 -5.00507,1.9565 -6.21855,-3.0674 l -1.07136,-4.4355 -8.42864,-0.2817 c -15.6996,-0.5246 -17.3531,-0.3993 -18.70746,1.4168 -1.79146,2.4022 -0.58036,7.3182 2.42534,9.8447 l 2.48762,2.0911 -2.56707,1.682 c -2.31635,1.5177 -2.56707,2.3112 -2.56707,8.1238 0,5.1204 0.35895,6.629 1.75,7.355 0.9625,0.5022 6.17864,0.8163 11.59143,0.698 9.83942,-0.2151 11.78625,0.3418 12.90255,3.6912 0.31519,0.9458 4.89276,1.3365 18.01627,1.5378 17.58632,0.2698 17.59486,0.2689 20.31276,-2.25 3.3616,-3.1154 6.07921,-3.1952 9.19327,-0.2699 2.34589,2.2037 2.90818,2.2518 27.31993,2.3388 13.70861,0.049 25.1094,0.2739 25.3351,0.5 0.98115,0.9832 37.56789,-0.013 39.55589,-1.0766 z m -90.031,-40.6127 c -1.24976,-2.3352 -1.1965,-2.7433 0.52215,-4 3.16936,-2.3175 11.58463,-1.6162 11.48932,0.9575 -0.055,1.4863 -6.57993,5.643 -8.85803,5.643 -0.96892,0 -2.38797,-1.1702 -3.15344,-2.6005 z m 108.0432,40.1132 c 1.3213,-1.592 0.724,-4.5127 -0.9228,-4.5127 -1.3628,0 -3.3013,3.8112 -2.5538,5.0207 0.8582,1.3886 2.0467,1.215 3.4766,-0.508 z M 1092.7627,1112 c 0.4523,-2.3964 -2.8155,-3.779 -6.5806,-2.7842 -3.7242,0.9839 -3.7761,2.8727 -0.108,3.9248 3.5922,1.0303 6.3682,0.5569 6.6886,-1.1406 z m 169.0221,-2.1423 c 1.8066,-1.5718 3.8834,-2.8577 4.6151,-2.8577 0.7317,0 2.5161,-0.9327 3.9652,-2.0726 3.2315,-2.5419 3.5908,-6.8647 0.6349,-7.6377 -2.3693,-0.6195 -2.5945,-2.5515 -0.5,-4.2897 1.9075,-1.583 1.9257,-4.4018 0.039,-5.9679 -2.7453,-2.2784 -2.7371,-4.9405 0.032,-10.4098 2.8074,-5.5445 2.8352,-9.0732 0.093,-11.8154 -0.7331,-0.7331 -1.6461,-3.9975 -2.0288,-7.2541 -0.3828,-3.2566 -1.1151,-6.4261 -1.6273,-7.0433 -0.6504,-0.7836 -7.5998,-1.0382 -23.028,-0.8436 -21.2824,0.2684 -22.2017,0.3625 -24.9491,2.5564 -1.5689,1.2527 -3.6313,3.9549 -4.5832,6.0047 -2.5372,5.464 -1.1968,6.486 9.6167,7.3319 5.3531,0.4188 8.9984,1.1485 9.0922,1.8201 0.086,0.6165 0.2354,3.371 0.3319,6.121 0.097,2.75 0.5207,5.9822 0.9426,7.1826 0.6083,1.7311 -0.029,3.0258 -3.082,6.2587 -3.0948,3.2773 -4.762,4.1965 -8.5083,4.6909 -3.8665,0.5102 -5.0392,0.2608 -6.8927,-1.466 -1.9799,-1.8446 -2.1595,-2.7098 -1.582,-7.6235 0.5961,-5.0713 0.4836,-5.5427 -1.3221,-5.5427 -1.0854,0 -2.4698,-0.9273 -3.0764,-2.0607 -0.7055,-1.3183 -1.889,-1.9487 -3.2852,-1.75 -3.0416,0.433 -3.4132,4.9031 -0.7113,8.5576 l 2.0955,2.8343 -4.5333,4.9376 c -4.3641,4.7535 -4.5376,5.1808 -4.6517,11.4594 -0.191,10.5166 0.6693,12.6432 3.9236,9.6982 2.4053,-2.1768 3.3683,-2.1144 6.5998,0.4274 3.545,2.7886 9.169,1.9254 10.8016,-1.6577 1.3521,-2.9676 1.9407,-3.0413 3.5614,-0.4461 1.5406,2.4669 5.0493,2.5946 6.8725,0.25 1.2752,-1.6397 1.4931,-1.5937 3.458,0.7315 2.4538,2.9035 8.9554,4.0501 18.4016,3.2451 4.7274,-0.4028 6.6967,-1.1174 9.2848,-3.3689 z m -555.65716,0.8923 c 2.91412,-2.1521 3.94552,-2.2551 23.70951,-2.3675 52.27283,-0.2973 60.74554,-0.4656 61.95104,-1.2304 0.96428,-0.6118 0.4498,-1.7326 -2.04614,-4.4576 l -3.33433,-3.6402 -15.45386,-0.2772 c -14.94039,-0.2679 -15.48666,-0.3519 -16.44099,-2.5271 -1.2655,-2.8845 -2.08367,-2.8347 -4.10483,0.25 l -1.63806,2.5 H 723.45009 C 698.15395,1099 693,1099.5882 693,1102.4752 c 0,2.1746 -0.92402,1.8988 -3.71002,-1.1073 -2.26583,-2.4449 -2.87837,-2.5923 -8.61053,-2.0725 -4.74408,0.4301 -6.4894,1.0388 -7.54728,2.6321 -2.06113,3.1042 -4.13217,2.6064 -4.13217,-0.9932 0,-3.5325 -1.5627,-6.9343 -3.18544,-6.9343 -1.4645,0 -9.81456,8.8599 -9.81456,10.4138 0,0.6622 0.57657,1.9924 1.28127,2.9562 1.1474,1.5691 3.28893,1.7444 20.49826,1.6776 18.0721,-0.07 19.31971,0.045 20.94098,1.9389 2.21107,2.5824 3.65249,2.5364 7.40713,-0.2365 z m 369.62236,1.6197 c 3.5525,-0.952 2.6331,-2.8543 -1.9737,-4.0839 -4.7289,-1.2622 -5.7763,-0.9709 -5.7763,1.6066 0,3.1055 2.4652,3.8936 7.75,2.4773 z m 32.6779,-1.5702 c 1.1468,-1.6373 1.2391,-2.3873 0.3606,-2.9302 -1.758,-1.0865 -4.7885,0.917 -4.7885,3.1659 0,2.6294 2.5148,2.4956 4.4279,-0.2357 z m 75.2616,-2.4341 4.7011,-4.6345 0.1431,-10.1155 c 0.079,-5.5635 0.4904,-11.1887 0.9149,-12.5004 0.4245,-1.3118 0.4523,-7.0737 0.062,-12.8042 -0.5448,-7.9933 -1.1209,-10.8139 -2.4746,-12.1149 -0.9705,-0.9328 -2.2913,-2.7084 -2.9353,-3.9459 -1.1357,-2.1827 -1.6237,-2.25 -16.307,-2.25 h -15.1362 l -4.4432,4.6372 c -4.2051,4.3886 -4.4157,4.881 -3.9301,9.1891 0.5725,5.0794 3.1091,7.9223 5.3841,6.0343 0.7326,-0.608 1.332,-2.0854 1.332,-3.283 0,-2.2034 1.6877,-4.5776 3.2541,-4.5776 0.4697,0 0.7446,3.9375 0.6109,8.75 -0.1337,4.8125 -0.082,15.8575 0.114,24.5444 0.296,13.0906 0.6279,15.9527 1.9391,16.7195 0.87,0.5089 6.1918,0.939 11.8261,0.9557 l 10.2442,0.03 z m 127.785,3.006 c 0.754,-0.2893 1.6714,-1.2787 2.0388,-2.1987 0.9092,-2.2769 1.7904,-45.7405 1.0115,-49.8922 -0.3429,-1.8278 -2.0372,-4.9335 -3.7652,-6.9015 l -3.1417,-3.5782 -7.5589,0.6589 c -9.6005,0.8369 -13.559,2.0892 -15.8633,5.0186 -1.6938,2.1534 -1.8136,4.3937 -1.5515,29.0319 0.2101,19.748 0.6144,27.0964 1.5529,28.2273 1.0722,1.2919 3.1783,1.4228 13.5877,0.8444 6.7753,-0.3764 12.9357,-0.9212 13.6897,-1.2105 z m -266.9474,-0.4152 c 0.3548,-0.5741 0.1048,-1.6947 -0.5554,-2.4903 -1.9169,-2.3097 -7.8951,-0.2178 -7.9564,2.7841 -0.024,1.1567 7.7818,0.8873 8.5118,-0.2938 z m 80.7764,-1.2062 1.5474,-2.25 1.6312,2.25 c 1.784,2.4607 4.9501,2.9732 6.1772,1 0.4276,-0.6875 0.8718,-3.8107 0.9873,-6.9405 0.2024,-5.4883 0.1147,-5.7015 -2.4684,-6 -3.8911,-0.4497 -4.2327,-5.4028 -0.665,-9.6428 2.7724,-3.2949 3.5512,-8.1793 1.6661,-10.4506 -0.7295,-0.879 -3.6166,-1.3995 -8.2391,-1.4852 -9.4651,-0.1755 -10.8903,-1.3847 -6.9379,-5.8863 3.4499,-3.9292 3.5039,-4.1769 1.5251,-7.002 -1.1763,-1.6794 -2.9668,-2.2425 -8.8978,-2.7983 l -7.4252,-0.6958 -0.6635,-4.4242 c -1.1135,-7.4254 -5.5286,-4.8329 -5.5519,3.26 -0.01,2.0986 -0.2781,5.4302 -0.6045,7.4034 -0.5459,3.2999 -0.9663,3.6765 -5.239,4.6934 -6.2852,1.4958 -47.9383,1.3548 -48.8973,-0.1655 -0.387,-0.6136 -0.5877,-5.2781 -0.4461,-10.3656 l 0.2575,-9.25 h -8.4531 c -7.6656,0 -8.7437,0.2446 -11.5736,2.6258 -3.1803,2.676 -7.0329,9.1156 -7.0329,11.7554 0,2.6216 8.8254,10.4954 12.5463,11.1935 4.0364,0.7572 11.4537,5.8143 11.4537,7.8091 0,0.7542 -0.675,1.9315 -1.5,2.6162 -1.9483,1.6169 -1.9044,3.8956 0.1179,6.1303 0.8899,0.9833 1.9183,3.2687 2.2853,5.0787 0.5724,2.8227 1.135,3.3363 3.9529,3.6096 1.9463,0.1888 4.3775,-0.4034 5.9647,-1.4529 4.1899,-2.7705 11.8578,-2.2685 16.9638,1.1105 3.9867,2.6382 4.6026,2.7409 14.1469,2.3575 8.6059,-0.3456 10.3034,-0.7057 12.3381,-2.6172 2.9178,-2.7412 4.7338,-2.7936 7.5,-0.2165 2.8483,2.6536 4.6784,2.5228 8.8116,-0.6297 2.8533,-2.1763 4.1558,-2.5348 7.5544,-2.0789 5.9758,0.8015 6.6503,1.9315 4.055,6.7937 -1.2048,2.2571 -2.1906,4.7364 -2.1906,5.5094 0,2.2128 3.5945,1.6404 5.3035,-0.8445 z m -575.52922,-1 c 0.56054,-0.6875 1.57587,-3.1258 2.25628,-5.4184 1.21614,-4.0977 1.17129,-4.2502 -2.64673,-9 -2.13611,-2.6574 -4.47327,-5.2953 -5.19371,-5.862 -0.87136,-0.6854 -1.20613,-2.8614 -1,-6.5 0.29449,-5.1979 0.46979,-5.5167 3.5289,-6.4177 4.03981,-1.1898 4.3408,-2.0087 4.8387,-13.1647 l 0.40672,-9.1128 -5.23222,-0.6285 c -14.16778,-1.7019 -16.72321,-0.6892 -16.75446,6.6393 -0.0155,3.6306 -0.61629,5.9743 -1.97776,7.7148 -2.37372,3.0346 -2.54788,6.7371 -0.42715,9.0805 0.86507,0.9559 1.65117,3.7617 1.7469,6.2352 0.14488,3.7435 -0.28639,4.924 -2.57285,7.0431 -2.11391,1.9591 -2.7469,3.4676 -2.7469,6.5464 0,5.5158 1.53863,8.3915 5.6843,10.6241 5.53174,2.9791 18.3192,4.3925 20.08998,2.2207 z M 648.5,1108.2659 c 3.77142,-1.1289 4.6248,-5.3922 1.72548,-8.62 -1.0601,-1.1803 -2.20798,-2.9402 -2.55084,-3.9109 -0.34286,-0.9708 -1.87242,-2.2399 -3.39901,-2.8203 -2.44014,-0.9278 -2.56683,-1.1722 -1.04816,-2.0221 2.2075,-1.2354 7.77253,-9.285 7.77253,-11.2426 0,-1.1746 -2.14871,-1.642 -10.15673,-2.2098 -9.67235,-0.6857 -10.02472,-0.7892 -7.38848,-2.1705 1.75826,-0.9213 3.99913,-1.2195 6.14192,-0.8175 3.88777,0.7293 11.31689,-0.9895 11.90594,-2.7546 0.21981,-0.6587 0.62679,-3.5232 0.90439,-6.3656 0.45312,-4.6395 0.19359,-5.5599 -2.53782,-9 -1.67341,-2.1076 -3.18058,-3.9715 -3.34926,-4.142 -0.31396,-0.3174 -27.87593,-0.5547 -37.19853,-0.3202 -3.18152,0.08 -5.77295,0.7246 -6.71985,1.6715 -1.38836,1.3883 -1.85507,1.379 -4.70433,-0.094 -2.20537,-1.1405 -6.09193,-1.6828 -12.83661,-1.7913 -9.20194,-0.148 -9.833,-0.022 -12.94383,2.5944 -1.79864,1.5125 -4.16532,2.75 -5.25928,2.75 -4.37401,0 -5.85753,1.7944 -5.85753,7.0848 0,6.559 2.22344,10.9152 5.57113,10.9152 1.38588,0 3.59332,1.0735 4.90544,2.3857 l 2.38565,2.3856 -2.02159,4.086 c -1.60548,3.245 -2.71607,4.2163 -5.39548,4.719 -1.85564,0.3481 -3.87998,1.2427 -4.49853,1.988 -1.61629,1.9475 -0.53704,16.5308 1.3241,17.8917 1.77985,1.3015 80.83545,1.1252 85.22928,-0.1901 z m -45.86574,-20.1175 c -2.24923,-2.4854 -3.15271,-8.3111 -1.70766,-11.0112 0.97795,-1.8274 2.03562,-2.1372 7.29567,-2.1372 h 6.15191 l -2.69704,2.8151 c -1.48338,1.5483 -3.26496,4.7766 -3.95906,7.174 -1.46225,5.0505 -2.68476,5.8102 -5.08382,3.1593 z M 619.5,1076 c -0.33992,-0.55 -0.14148,-1 0.44098,-1 0.58246,0 1.05902,0.45 1.05902,1 0,0.55 -0.19844,1 -0.44098,1 -0.24254,0 -0.7191,-0.45 -1.05902,-1 z m 211.92588,28.7449 c 1.31393,-3.756 -0.27269,-5.1023 -6.10615,-5.1812 -4.50487,-0.061 -4.73642,0.074 -5.37489,3.1251 -0.88713,4.2399 0.56047,5.4655 6.03098,5.106 3.8765,-0.2547 4.61724,-0.6693 5.45006,-3.0499 z m -24.88693,-1.158 c 5.56264,-0.08 6.34107,-0.3801 9.86959,-3.8041 5.71396,-5.5447 4.65388,-6.5844 -7.1012,-6.9652 -14.27777,-0.4624 -14.81297,-0.335 -16.09089,3.8288 -0.79465,2.5892 -0.78189,4.2133 0.0474,6.0334 0.98211,2.1555 1.54512,2.3898 4.18545,1.7423 1.67788,-0.4115 5.76822,-0.7873 9.08964,-0.8352 z m -98.43224,-15.0416 C 728.46275,1087.9836 731,1087.3757 731,1083.0599 c 0,-1.9385 -0.6842,-3.3557 -1.94608,-4.031 -2.81024,-1.504 -35.51739,-2.2328 -49.31002,-1.0988 -14.54981,1.1963 -17.2439,2.303 -17.2439,7.0834 0,3.3809 0.13629,3.5038 4.5,4.0574 2.475,0.3141 8.775,0.4335 14,0.2656 5.225,-0.168 17.42302,-0.5241 27.10671,-0.7912 z M 781.75,1087.581 c 2.98623,-0.95 2.83825,-2.6582 -0.5,-5.7717 -5.15621,-4.8092 -6.51876,-5.0897 -20.96492,-4.316 -12.86744,0.6892 -13.46999,0.8184 -14.51541,3.1129 -1.7981,3.9464 0.31802,7.2001 4.93002,7.5804 6.77592,0.5588 28.73655,0.1304 31.05031,-0.6056 z m 24.33707,-0.2484 c 3.15567,-0.6311 4.42661,-3.1498 3.48417,-6.9048 -0.42943,-1.711 -1.30495,-2.4278 -2.96529,-2.4278 -1.29577,0 -3.68878,-0.2666 -5.3178,-0.5924 -4.30841,-0.8617 -8.86656,3.1517 -7.90965,6.9643 0.76954,3.0661 3.96851,4.7911 7.48816,4.0379 1.30167,-0.2785 3.65085,-0.7633 5.22041,-1.0772 z m 344.72473,-4.5941 c 0.2286,-1.1868 -0.3044,-1.7385 -1.6795,-1.7385 -2.2933,0 -3.5633,1.4935 -2.5981,3.0554 0.9733,1.5748 3.8939,0.6757 4.2776,-1.3169 z M 870,1072.5392 c 4.675,-0.1762 9.7375,-0.8084 11.25,-1.405 2.52763,-0.997 2.75,-1.5223 2.75,-6.4967 0,-5.1756 -0.23374,-5.6572 -5.35007,-11.0248 -5.64094,-5.9179 -8.49483,-6.8856 -12.96567,-4.3967 -1.20134,0.6688 -5.66993,1.4886 -9.9302,1.8218 -6.03817,0.4724 -8.2571,1.0862 -10.06445,2.7841 -1.36883,1.2859 -3.60893,2.1781 -5.46888,2.1781 -2.22389,0 -3.49717,0.648 -4.32964,2.2035 -1.04931,1.9606 -0.80735,2.4842 2.19518,4.75 1.85596,1.4006 4.7333,3.9796 6.3941,5.7311 3.49705,3.688 8.53327,5.4371 13.51963,4.6954 1.925,-0.2863 7.325,-0.6647 12,-0.8408 z m -202.60699,-3.121 c 0.33385,-0.87 0.60699,-3.3195 0.60699,-5.4433 0,-4.5641 -2.65354,-6.9749 -7.67719,-6.9749 -2.91483,0 -3.298,0.3509 -3.90255,3.5734 -0.58934,3.1414 -0.26891,3.9875 2.65085,7 3.51972,3.6314 7.31359,4.4724 8.3219,1.8448 z m 467.00829,-1.6682 c 0.9922,-1.5424 1.2731,-3.7438 0.893,-7 -0.6718,-5.7558 -2.8074,-6.3058 -6.6683,-1.7174 -2.1625,2.5701 -2.396,3.442 -1.531,5.7172 2.1566,5.6724 4.8704,6.7868 7.3063,3.0002 z m -390.12446,-1.6268 c 1.02118,-1.0212 -1.30727,-6.0736 -3.72305,-8.0786 -2.05659,-1.7068 -20.49687,-2.4173 -35.05379,-1.3506 l -11,0.806 -0.32033,3.3435 c -0.6276,6.5507 -0.0838,6.6852 25.94001,6.4148 12.79509,-0.133 23.66582,-0.6438 24.15716,-1.1351 z m 60.46349,-0.3466 c 1.464,-1.1868 0.67138,-5.4923 -1.46437,-7.9545 -1.20079,-1.3843 -3.75777,-1.7228 -14.61569,-1.9347 -15.83831,-0.3091 -24.7136,-0.117 -30.41649,0.6584 -3.47771,0.4728 -4.71496,1.2531 -6.76423,4.2664 -2.29169,3.3697 -2.36532,3.7924 -0.85364,4.9005 1.07742,0.7898 5.64679,1.1984 13.10239,1.1715 6.29641,-0.023 11.60945,0.1202 11.80675,0.3175 0.82503,0.8251 28.06949,-0.5044 29.20528,-1.4251 z m -120.91199,-2.1057 c 0.19183,-1.006 0.068,-2.9477 -0.27513,-4.3149 -0.91235,-3.6351 -4.93326,-2.9035 -5.37778,0.9785 -0.17852,1.5589 -0.068,3.503 0.24553,4.3201 0.78698,2.0509 4.97399,1.2892 5.40738,-0.9837 z M 819,1064.5 c 0,-0.825 -0.42344,-1.5 -0.94098,-1.5 -1.26098,0 -2.1641,1.5616 -1.36517,2.3605 1.12619,1.1262 2.30615,0.6859 2.30615,-0.8605 z m 84.06731,-0.081 c 1.34879,-1.6252 1.69703,-10.3732 0.49064,-12.3251 -0.37179,-0.6016 -2.43359,-1.0938 -4.58178,-1.0938 -2.8381,0 -4.18878,0.5288 -4.94099,1.9343 -1.14563,2.1406 -1.4193,11.3482 -0.36851,12.399 1.3188,1.3188 8.0942,0.6598 9.40064,-0.9144 z M 986,1061.952 c 0,-0.4587 -0.48921,-1.1363 -1.08713,-1.5059 -1.38848,-0.8581 -3.34604,1.044 -2.49371,2.4231 0.70978,1.1484 3.58084,0.4131 3.58084,-0.9172 z m 219.5455,-0.4065 c 3.0974,-3.0975 3.1103,-5.5808 0.044,-8.4617 -3.8297,-3.5978 -6.0321,-2.4627 -6.399,3.2981 -0.1704,2.6752 -0.072,5.4837 0.2186,6.241 0.8074,2.104 3.4127,1.6465 6.1367,-1.0774 z m -149.706,-3.0926 c 0.6383,-1.4008 1.1605,-3.8758 1.1605,-5.5 0,-2.5959 -0.3528,-2.9529 -2.9182,-2.9529 -6.2467,0 -7.5385,2.2824 -4.5561,8.0497 1.8748,3.6254 4.7616,3.8098 6.3138,0.4032 z m 30.2262,1.5119 c 1.306,-0.6989 1.9343,-2.0956 1.9343,-4.3 0,-6.7996 -5.2466,-7.5584 -11.8947,-1.7203 -5.8591,5.1453 -5.2014,7.0555 2.4291,7.0555 3.0784,0 6.4675,-0.4658 7.5313,-1.0352 z M 971,1054.5 c 0,-1.4702 -0.5738,-2.5 -1.39301,-2.5 -1.87297,0 -2.72383,2.4832 -1.32885,3.8781 1.78778,1.7878 2.72186,1.3149 2.72186,-1.3781 z m -232.00665,-3.4964 c 1.1705,-0.6265 1.95014,-1.671 1.73253,-2.3213 -0.28892,-0.8634 -6.51882,-1.1823 -23.09618,-1.1823 -22.12901,0 -22.69335,0.05 -22.41512,2 0.2118,1.4841 1.31723,2.1667 4.28542,2.6464 6.37067,1.0294 37.09567,0.1404 39.49335,-1.1428 z m 58.65836,-0.542 c 0.74618,-1.0204 0.97294,-2.237 0.50432,-2.7056 -0.74268,-0.7426 -17.69418,-1.1027 -39.48936,-0.8388 -7.4429,0.09 -8.30299,1.1997 -3.09516,3.9927 2.43019,1.3033 6.36999,1.5735 21.84467,1.498 17.16886,-0.084 19.00261,-0.2601 20.23553,-1.9463 z M 602,1049.0674 c 0,-1.2153 -3.68878,-2.3778 -4.99105,-1.5729 -1.97924,1.2232 -0.96026,2.5055 1.99105,2.5055 1.65,0 3,-0.4197 3,-0.9326 z m -62.04633,-12.5116 c 0.65921,-0.7943 1.82943,-4.4594 2.60049,-8.1447 0.77107,-3.6853 1.64151,-6.9401 1.93432,-7.2329 0.29281,-0.2928 1.82377,0.7048 3.40213,2.217 2.19915,2.1069 3.6572,2.6741 6.23957,2.4271 L 557.5,1025.5 l -0.20763,-21.406 -0.20763,-21.40599 2.45763,-2.92073 C 561.89176,976.97519 562,976.24099 562,963.09759 c 0,-13.4825 -0.0499,-13.79589 -2.57726,-16.17017 -2.07144,-1.94602 -2.45285,-3.01062 -1.94337,-5.42432 1.68029,-7.9604 1.70118,-10.5786 0.10388,-13.01639 C 556.6871,927.11902 555.06427,926 553.97695,926 552.88963,926 552,925.55 552,925 c 0,-0.55 0.57077,-1 1.26838,-1 0.69761,0 1.98068,-1.17392 2.85126,-2.60871 l 1.58287,-2.60871 2.1984,3.55708 c 1.20911,1.9564 2.96355,3.78478 3.89874,4.06308 0.93519,0.2783 14.23212,0.42962 29.54873,0.33628 l 27.84838,-0.16971 5.41027,5.96535 c 7.79285,8.59237 12.4947,19.04836 9.42014,20.94855 -0.53505,0.33068 -1.4419,2.26973 -2.01521,4.30901 -0.57332,2.03928 -2.15245,4.96096 -3.50918,6.49262 -2.33471,2.63574 -2.59407,2.70145 -4.84388,1.22732 -3.01233,-1.97376 -5.14796,-1.15988 -6.6834,2.54699 -0.66419,1.60349 -1.55954,2.69793 -1.98967,2.43209 -0.8485,-0.5244 -1.97957,-10.68581 -2.16957,-19.49124 -0.0864,-4.00404 -0.77734,-6.49518 -2.5403,-9.15885 -3.82282,-5.77592 -5.35166,-6.13599 -25.19362,-5.93355 -6.36478,0.0649 -8.8669,0.49244 -10.25972,1.75292 -1.61558,1.46209 -2.16142,1.49612 -4.43975,0.2768 -2.38159,-1.27459 -2.75514,-1.19581 -4.49028,0.947 -2.42564,2.99553 -2.39468,5.51711 0.10934,8.90617 2.15254,2.91335 2.28261,4.67665 3.48104,47.18816 0.47649,16.90225 0.6812,18.53795 2.39967,19.17365 1.03331,0.3822 8.19287,1.0155 15.91014,1.4072 13.3425,0.6773 14.20508,0.6049 17.5689,-1.474 5.40003,-3.3374 7.63832,-7.7193 7.63832,-14.95353 0,-6.78356 2.05422,-10.11873 6.25,-10.14728 3.56174,-0.0242 4.90279,-1.41293 6.39437,-6.62148 l 1.39267,-4.86321 -0.47672,5.29485 c -0.62844,6.98005 0.57938,9.78431 5.13896,11.93137 3.1166,1.46757 3.87209,2.42114 4.37638,5.52378 1.15113,7.0824 -0.16355,10.8968 -4.83773,14.036 -2.33086,1.5654 -4.23793,3.2508 -4.23793,3.7453 0,0.4945 -1.39662,2.4898 -3.10359,4.4339 -3.33714,3.8008 -7.08008,4.5561 -12.45375,2.513 -1.86881,-0.7105 -4.55424,-0.6726 -8.8151,0.1244 -3.37016,0.6304 -12.50965,1.2027 -20.30999,1.2718 l -14.18243,0.1256 -3.10758,2.9754 c -1.8797,1.7998 -2.99299,3.7754 -2.81757,5 0.27483,1.9186 1.04888,2.0321 14.79001,2.1686 16.7108,0.166 23.28443,0.2103 27.5,0.1854 1.65,-0.01 4.125,0.044 5.5,0.119 8.47002,0.4631 37.08384,-0.644 37.84506,-1.4643 0.50234,-0.5412 1.46597,-2.7121 2.14141,-4.8242 0.90834,-2.8402 2.43648,-4.6064 5.86949,-6.7835 4.91293,-3.1157 5.96036,-4.6896 6.07375,-9.1264 0.0387,-1.5125 0.46404,-2.75 0.94529,-2.75 1.3302,0 2.17992,5.6773 1.23286,8.2373 -1.12222,3.0335 0.38963,6.3428 5.23786,11.4653 l 3.97761,4.2026 21.08833,0.1338 c 11.59859,0.074 21.98834,0.1319 23.08834,0.1293 1.1,-0 17.43855,-0.043 36.3079,-0.091 18.86934,-0.047 35.06934,0.311 36,0.7964 0.93065,0.4853 6.76671,0.5751 12.96901,0.1995 15.53943,-0.9411 15.02407,-0.2608 15.34008,-20.2514 C 820.36885,1000.8893 819.80497,998 816.44365,998 c -0.7213,0 -2.58772,-1.90031 -4.14759,-4.2229 -3.54073,-5.27203 -7.54624,-7.73619 -10.03743,-6.17497 -2.38072,1.49199 -2.75066,4.99799 -0.83576,7.9205 2.13086,3.25211 2.02513,3.89136 -1.27244,7.69257 -1.56726,1.8066 -3.17218,4.6074 -3.56649,6.2238 -0.3943,1.6165 -1.587,4.1609 -2.65043,5.6544 -1.06343,1.4934 -1.93351,4.0331 -1.93351,5.6436 0,2.1829 -0.95456,3.6932 -3.75,5.9333 -6.84287,5.4835 -7.20174,5.5577 -23.09057,4.7731 -18.09396,-0.8935 -14.25104,-0.8835 -36.48225,-0.095 -15.52822,0.5512 -19.89286,0.3908 -24.93627,-0.916 -4.69687,-1.2171 -6.67804,-1.3269 -8.55001,-0.474 -1.92053,0.875 -2.94002,0.7803 -4.81373,-0.4474 -2.09476,-1.3726 -3.6153,-4.3947 -1.57744,-3.1353 1.16225,0.7183 29.75408,0.7991 51.20027,0.1447 10.175,-0.3105 20.075,-0.4787 22,-0.3737 7.29525,0.3976 16.59401,0.1798 19,-0.445 2.80953,-0.7296 7.00381,-7.2671 6.99341,-10.9003 -0.004,-1.2661 -0.90066,-3.6519 -1.99341,-5.3019 -2.60469,-3.9329 -2.57072,-10.34346 0.0818,-15.43238 1.14498,-2.19669 1.8626,-4.34805 1.59471,-4.7808 -0.26789,-0.43275 -6.47164,-0.93669 -13.78612,-1.11987 -12.35287,-0.30936 -13.50341,-0.50501 -16.17143,-2.75 C 756.13912,984.08763 753.7807,983 752.478,983 c -1.64562,0 -5.32932,-2.90358 -12.06892,-9.51298 l -9.70036,-9.51298 0.62816,-7.43107 c 0.58514,-6.92222 0.45816,-7.6331 -1.85436,-10.38138 C 727.70743,944.05202 727,942.02259 727,939.0399 c 0,-7.43476 -0.97575,-8.20148 -10.32547,-8.11356 -4.49599,0.0423 -10.55384,-0.19341 -13.46188,-0.52376 -8.08978,-0.919 -9.83655,-0.15601 -10.60201,4.63091 -0.40794,2.5511 -1.05304,3.81113 -1.7353,3.38947 -0.59728,-0.36915 -2.58341,-0.87297 -4.41362,-1.11961 -3.07134,-0.4139 -3.39983,-0.18704 -4.26469,2.94525 -0.51538,1.86653 -0.72622,7.63668 -0.46855,12.82255 C 682.18862,962.33196 681.1621,968 679.02475,968 678.46114,968 678,966.29 678,964.2 c 0,-2.09 -0.4097,-4.2275 -0.91045,-4.75 -0.54747,-0.57126 -0.52832,-3.1427 0.048,-6.45 0.52717,-3.025 0.96594,-9.67995 0.97504,-14.78877 0.0159,-8.91071 0.14024,-9.42966 3.05555,-12.75 1.67145,-1.90368 3.68234,-3.46123 4.46865,-3.46123 0.7863,0 3.77719,-1.19602 6.6464,-2.65782 4.75782,-2.42399 6.11237,-2.63825 15.39701,-2.4354 12.14557,0.26535 12.31975,0.108 12.31975,-11.12915 0,-5.63751 -0.52514,-8.39523 -2.25,-11.81574 L 715.5,889.5 h -10.54121 c -11.27999,0 -13.11897,-0.61978 -19.09405,-6.43517 L 683.22948,880.5 682.64026,856 c -0.32407,-13.475 -0.20102,-25.12015 0.27345,-25.87812 1.30114,-2.07854 2.74637,-0.60402 3.40876,3.47786 0.32563,2.00658 1.35602,4.4925 2.28977,5.52429 1.83679,2.02962 4.89368,2.48442 5.88776,0.87597 0.60761,-0.98313 4.5,-1.44497 4.5,-0.53393 0,0.85738 -3.40691,8.01505 -4.53796,9.53393 -1.99477,2.67875 -3.56451,9.93687 -2.90704,13.44147 0.90539,4.82618 13.0393,16.55853 17.12526,16.55853 4.19141,0 6.91889,-2.36825 8.92361,-7.74833 0.97382,-2.61342 2.87751,-6.10167 4.23044,-7.75167 3.38715,-4.13089 8.38141,-15.19702 8.53719,-18.91644 0.096,-2.29149 -0.44094,-3.31974 -2.1215,-4.06288 -3.12916,-1.3837 -2.80818,-2.52068 0.71162,-2.52068 4.14974,0 12.8583,-8.30713 11.02469,-10.5165 -0.68483,-0.82516 -2.88317,-1.4835 -4.95377,-1.4835 -2.38776,0 -4.33935,-0.68154 -5.4427,-1.90072 -2.33804,-2.58352 -0.59852,-3.44798 4.28963,-2.13174 2.8233,0.76024 4.72518,0.74117 6.77307,-0.0679 1.5661,-0.61874 4.91683,-1.06842 7.44606,-0.99929 3.3534,0.0916 5.35316,-0.46785 7.38522,-2.06626 1.85105,-1.45604 4.67169,-2.34744 8.4014,-2.65507 4.51568,-0.37246 6.42914,-1.12961 9.77495,-3.86791 3.85147,-3.15215 4.18992,-3.82797 4.56118,-9.10794 0.45624,-6.48857 0.0705,-7.60868 -4.19091,-12.17057 l -3.06985,-3.28628 -9.57118,0.17841 c -5.52454,0.10298 -9.33401,-0.20534 -9.01022,-0.72923 0.30852,-0.49921 2.7499,-0.69732 5.42528,-0.44025 3.30226,0.31731 5.86494,-0.05 7.98027,-1.14391 4.32704,-2.2376 6.75628,-2.01793 9.42479,0.85227 3.1468,3.38464 8.90865,7.53641 10.45907,7.53641 1.64242,0 4.3314,-5.17434 4.3314,-8.33482 0,-2.35014 0.14664,-2.29984 4.25,1.45797 2.3375,2.14066 4.98061,4.12594 5.87358,4.41174 1.79324,0.57394 2.8482,5.26708 2.86541,12.74723 0.0282,12.26265 5.53423,15.2386 13.55824,7.3281 2.44902,-2.41438 4.45277,-5.3285 4.45277,-6.47583 0,-1.14733 0.89832,-3.55943 1.99626,-5.36022 2.70091,-4.42989 2.52702,-9.88281 -0.49626,-15.56202 -1.63172,-3.06518 -2.5,-6.3062 -2.5,-9.33175 0,-2.59333 -0.57508,-5.11279 -1.30537,-5.71887 -0.72435,-0.60116 -6.54346,-1.21203 -13.07374,-1.37245 -10.68258,-0.26241 -11.89997,-0.10998 -13.19463,1.65205 -0.78444,1.06762 -1.42626,3.16832 -1.42626,4.66821 0,4.05471 -1.00447,6.13184 -2.40371,4.97058 -0.72673,-0.60314 -18.33362,-0.89701 -46.46412,-0.77553 -42.76479,0.18469 -45.36939,0.29876 -46.64439,2.04281 -1.86162,2.54647 -0.79412,4.64979 2.36921,4.66811 1.45365,0.008 3.26316,0.40811 4.02113,0.8882 1.75216,1.1098 0.57795,3.09649 -1.83015,3.09649 -2.42688,0 -3.04797,1.91354 -3.04797,9.39066 0,6.71712 -2.17691,11.8641 -3.53557,8.35934 -0.37312,-0.9625 -1.46953,-1.75 -2.43646,-1.75 -1.26679,0 -2.35465,1.7662 -3.89302,6.3205 -1.17422,3.47627 -2.13495,7.30127 -2.13495,8.5 0,1.19872 -0.45,2.1795 -1,2.1795 -0.55,0 -1.01736,-1.2375 -1.03859,-2.75 -0.0212,-1.5125 -0.16372,-10.37663 -0.31666,-19.69806 l -0.27807,-16.94807 4.56666,-4.33273 c 2.51166,-2.383 5.80416,-4.60012 7.31666,-4.92693 3.30172,-0.71342 3.41888,-1.42891 0.64501,-3.93922 -1.54909,-1.40191 -3.59576,-1.90332 -7.75,-1.89865 -6.89124,0.008 -10.9124,1.90898 -13.52482,6.39469 -1.91118,3.28164 -1.9754,5.23535 -1.8294,55.65158 0.12793,44.17323 -0.0693,52.43366 -1.27593,53.43506 -1.5756,1.30763 -3.51486,0.5769 -3.51486,-1.32445 0,-0.6703 -0.9,-1.98934 -2,-2.93119 -1.86258,-1.59479 -2,-2.94994 -2,-19.72224 0,-19.2813 -0.0297,-19.40301 -5.51304,-22.57165 -2.19051,-1.26583 -1.20928,-3.43814 1.553,-3.43814 2.06435,0 2.61801,-1.5205 3.27713,-9 0.21811,-2.475 1.01326,-5.97207 1.767,-7.77127 1.09118,-2.60466 1.12168,-3.6696 0.14966,-5.22604 -0.73152,-1.17135 -1.43749,-7.63577 -1.7615,-16.12962 -0.29739,-7.79616 -0.77687,-14.55693 -1.0655,-15.02395 C 661.11812,779.3821 659.83862,779 658.56343,779 c -2.83881,0 -4.35468,-1.70626 -5.17941,-5.82991 -0.66028,-3.30137 -0.53194,-3.42284 4.86598,-4.60562 2.81692,-0.61724 3.8569,-3.76234 1.68743,-5.10314 -1.348,-0.83311 -48.6208,-0.77532 -59.93743,0.0733 -4.675,0.35056 -11.2,0.21524 -14.5,-0.30071 -3.3,-0.51595 -9.825,-0.66715 -14.5,-0.336 -7.71104,0.54621 -8.52843,0.80154 -8.80628,2.75083 -0.36526,2.56251 7.08143,10.91729 8.78967,9.86153 1.3008,-0.80393 48.09952,-0.73312 52.55748,0.0795 2.53516,0.46214 3.32145,1.3323 4.72793,5.23227 1.15048,3.19008 2.76772,5.37056 5.08474,6.85559 2.80269,1.79631 3.52047,2.99651 4.0989,6.85377 0.6001,4.00175 0.38623,5.0114 -1.48299,7.0011 -1.97781,2.10528 -2.22207,3.62055 -2.58477,16.03421 -0.27193,9.30691 -0.0361,14.14833 0.73432,15.07666 0.69004,0.83144 0.88691,2.91817 0.50227,5.3236 -0.47633,2.9788 -0.0922,5.06845 1.55481,8.45854 l 2.18743,4.50239 -2.68175,5.30039 C 634.20679,859.14353 633,862.69 633,864.10937 c 0,1.41936 -0.9,3.39514 -2,4.39063 -2.38499,2.15839 -2.53522,3.81092 -0.5,5.5 4.22135,3.50341 1.58995,3.86711 -32.39755,4.4779 -27.6907,0.49763 -36.7365,1.12096 -37.647,2.59418 -0.27481,0.44466 -1.87479,0.3291 -3.5555,-0.2568 C 553.31783,879.56654 549,881.03392 549,883.5 c 0,0.84858 -1.22737,3.39756 -2.72748,5.66438 l -2.72748,4.12151 -0.65691,-3.39295 C 542.52684,888.02682 541.99792,882.225 541.71277,877 l -0.51846,-9.5 3.37531,-2.5 c 1.85643,-1.375 3.38771,-3.2875 3.40285,-4.25 0.0151,-0.9625 0.42939,-1.75 0.92054,-1.75 1.6739,0 2.09093,3.10945 1.04373,7.78227 -0.89719,4.00344 -0.80542,4.84058 0.64704,5.90265 1.85569,1.35692 3.15992,0.8678 7.69404,-2.88548 l 2.77783,-2.29944 0.17573,-38.51681 0.17574,-38.51681 -2.45356,-4.39231 c -3.9839,-7.13188 -7.83776,-7.95955 -10.44069,-2.24227 -1.70509,3.7452 -2.3055,2.39588 -2.03876,-4.5818 0.4128,-10.79862 -2.93977,-14.80673 -13.28991,-15.88854 -5.15078,-0.53836 -6.08152,-0.34347 -8.43744,1.76672 -2.58083,2.31163 -2.6489,2.67634 -2.68225,14.37182 -0.0188,6.6 -0.0635,13.575 -0.0992,15.5 -0.49712,26.75848 -0.4683,26.43217 -2.77741,31.43785 -2.31506,5.01855 -2.40462,7.66014 -1.20574,35.56215 0.0354,0.825 0.0851,12.3 0.11032,25.5 0.10186,53.30649 1.00382,133.4076 1.57351,139.7406 0.34233,3.8054 1.20291,7.2356 1.97637,7.8775 3.37204,2.7986 16.33713,3.8165 18.31135,1.4377 z m 145.713,-11.2225 c -0.36667,-0.3666 -0.65299,-1.3791 -0.63626,-2.25 0.025,-1.3003 0.22011,-1.2571 1.09166,0.2417 1.07678,1.8517 0.76461,3.2283 -0.4554,2.0083 z M 663.9469,984.25 c -0.97454,-13.7655 -1.41196,-14.69494 -8.15695,-17.33213 -5.44376,-2.12842 -6.4669,-4.45505 -1.55379,-3.53335 2.65163,0.49745 4.0677,0.1904 5.87846,-1.27465 2.36265,-1.91157 2.39014,-2.15311 2.88538,-25.35197 l 0.5,-23.422 2.75,-3.60123 c 1.61932,-2.12056 2.75,-4.86212 2.75,-6.66795 0,-1.6867 0.44496,-3.06672 0.9888,-3.06672 0.54384,0 0.95683,1.0125 0.91776,2.25 -0.0391,1.2375 0.22515,5.4 0.58715,9.25 1.29846,13.8098 2.37119,37.05972 1.85222,40.1447 -0.29095,1.72959 -0.0788,3.98599 0.47153,5.01422 0.71924,1.34392 0.60441,2.41124 -0.40846,3.79642 -0.89514,1.22417 -1.41131,4.50129 -1.41532,8.98579 -0.006,6.79111 -0.11988,7.12349 -3,8.76236 -2.09521,1.19223 -2.99368,2.46776 -2.99368,4.25 0,2.19364 -1.90686,3.86218 -2.0531,1.79651 z M 679,974.5 c 0,-1.375 0.40186,-2.5 0.89301,-2.5 1.16627,0 2.27398,2.92079 1.55122,4.09024 C 680.35495,977.85273 679,976.97119 679,974.5 Z m 16.36704,-8.71514 c -0.32188,-0.5208 -1.60965,-0.6898 -2.86171,-0.37555 -3.33703,0.83754 -4.24182,-1.15744 -3.58712,-7.90931 l 0.58179,-6 1.84308,4.77716 c 1.43119,3.70956 2.7162,5.2226 5.75,6.77033 2.14881,1.09624 3.90692,2.15655 3.90692,2.35626 0,0.88518 -5.10785,1.23077 -5.63296,0.38111 z m 8.16397,0.26531 c -0.79913,-1.29302 3.25311,-3.34699 5.15975,-2.61534 1.23855,0.47527 1.29629,0.87585 0.29942,2.077 -1.38732,1.67162 -4.5651,1.98499 -5.45917,0.53834 z M 688.63837,944.5 c -0.73444,-1.91392 0.28976,-4.66245 1.46641,-3.93524 1.16483,0.7199 1.16674,5.43524 0.002,5.43524 -0.49116,0 -1.15203,-0.675 -1.46862,-1.5 z M 736.75,785.33772 c 0.6875,-0.27741 1.8125,-0.27741 2.5,0 0.6875,0.27741 0.125,0.50439 -1.25,0.50439 -1.375,0 -1.9375,-0.22698 -1.25,-0.50439 z m 134.89502,247.94048 c 0.84756,-3.3769 -0.74778,-4.1213 -6.78652,-3.1667 -4.61361,0.7293 -5.21485,0.5886 -7.19635,-1.6831 -1.93269,-2.2158 -3.1916,-2.5449 -11.86247,-3.1012 -11.74344,-0.7534 -14.79968,0.5089 -14.79968,6.1125 0,1.8665 0.47498,3.5436 1.05552,3.727 0.58053,0.1833 9.58488,0.3943 20.00967,0.4688 l 18.95416,0.1356 z m 139.49468,1.1852 c 1.2982,-0.4077 3.3513,-1.8038 4.5626,-3.1024 2.032,-2.1786 2.9786,-2.361 12.25,-2.361 8.839,0 10.2976,-0.2499 12.125,-2.0773 1.1425,-1.1425 1.8175,-2.7543 1.5,-3.5818 -0.3175,-0.8275 -0.5773,-1.9177 -0.5773,-2.4227 0,-0.505 -0.6431,-0.9182 -1.4292,-0.9182 -0.786,0 -2.8179,-2.0578 -4.5153,-4.5728 l -3.0861,-4.5728 2.0153,-2.5621 c 2.598,-3.3028 2.6381,-7.8886 0.081,-9.25712 -1.0638,-0.56935 -3.5605,-1.03518 -5.5482,-1.03518 -3.1285,0 -3.7972,0.43552 -4.9771,3.2417 l -1.363,3.2417 -1.2268,-2.6926 c -0.7886,-1.7307 -2.3385,-2.95179 -4.3387,-3.41825 -4.0621,-0.94726 -44.84542,-1.15696 -54.96039,-0.28259 -4.7223,0.40821 -8.4272,1.25715 -9.30138,2.13134 -0.95955,0.9595 -1.46327,3.623 -1.48346,7.844 -0.0168,3.5152 -0.63,7.8259 -1.36265,9.5793 -1.24277,2.9744 -1.59424,3.153 -5.24179,2.6637 -3.15063,-0.4225 -5.01175,0.098 -9.58597,2.6791 -4.77385,2.6942 -5.67626,3.6458 -5.67626,5.9856 0,3.2843 1.54737,4.7865 5.80852,5.6387 4.56639,0.9133 7.9568,-0.2745 9.6367,-3.3762 3.29587,-6.0852 3.14359,-6.0555 7.76708,-1.5179 2.80065,2.7487 5.67806,4.5127 8.28878,5.0814 4.7083,1.0258 47.20102,0.7442 50.63862,-0.3356 z m 91.5205,0.054 c 7.0619,-0.2616 15.5023,-0.4851 18.7565,-0.4964 l 5.9166,-0.021 6.3334,-6.3333 6.3333,-6.3334 v -8.1533 c 0,-7.2641 -0.2999,-8.5869 -2.75,-12.1287 -1.5125,-2.18647 -3.5389,-3.99248 -4.5032,-4.01335 -1.3966,-0.0302 -0.8373,-1.34815 2.75,-6.48058 4.484,-6.41517 4.5032,-6.47907 4.5032,-14.99153 0,-7.46589 -0.2534,-8.70712 -2,-9.79791 -2.6993,-1.68574 -2.5408,-2.46035 1.223,-5.97626 3.799,-3.54873 6.7008,-4.79167 11.1871,-4.79167 2.0099,0 3.9808,-0.77441 5.0899,-2 1.1155,-1.23259 3.08,-2 5.1198,-2 3.8911,0 4.8749,-1.41252 5.9203,-8.5 0.663,-4.49518 1.7419,-6.4401 3.5971,-6.48469 0.8818,-0.0212 1.7861,12.03459 2.043,27.23469 l 0.2155,12.75 h 3.767 c 2.6604,0 4.0618,-0.55103 4.7709,-1.87595 0.5528,-1.03292 1.0858,-10.58244 1.1861,-21.25 0.1002,-10.65573 0.5024,-20.2717 0.8938,-21.36883 0.6878,-1.9277 1.5109,-1.98566 24.4776,-1.72374 l 23.7659,0.27103 5.8843,4.12762 c 3.2364,2.27018 6.1197,3.8922 6.4074,3.60448 0.7733,-0.77323 2.8731,-18.64616 2.7357,-23.28461 -0.065,-2.2 -0.1474,-5.575 -0.1826,-7.5 -0.1329,-7.25718 -1.3385,-12.9669 -3.1883,-15.09975 -2.4495,-2.82431 -2.4073,-4.24936 0.267,-9.00755 l 2.1804,-3.87961 -2.0806,-2.25655 c -1.1444,-1.24109 -2.2381,-3.08736 -2.4305,-4.10282 -0.2074,-1.09478 -1.9065,-2.38008 -4.1742,-3.15774 -2.1034,-0.72131 -4.0932,-1.58025 -4.4217,-1.90876 -0.8658,-0.86577 -0.9788,-8.58335 -0.177,-12.08722 0.6071,-2.65302 0.7002,-2.47635 0.8048,1.52749 0.2162,8.27381 5.5201,11.66163 10.4847,6.69703 2.139,-2.13903 2.2657,-3.00587 2.1132,-14.45639 -0.1863,-13.97841 -0.8457,-15.53411 -6.3869,-15.06869 -4.2285,0.35515 -6.3571,3.72519 -6.2715,9.92897 0.07,5.105 -1.3906,4.966 -2.2184,-0.21105 -0.8261,-5.16622 -4.6295,-12.69416 -8.0038,-15.84167 -2.308,-2.15291 -2.599,-3.18848 -2.599,-9.25 0,-10.22162 -1.0997,-11.0052 -14.6549,-10.4417 -13.6819,0.56877 -13.8325,0.70865 -13.8842,12.90174 -0.042,9.89816 0.5788,12.26702 3.9061,14.90591 1.949,1.54571 2.1588,2.81034 2.4318,14.66085 0.1955,8.48963 -0.073,13.19894 -0.7774,13.63431 -0.5919,0.3658 -3.1198,-0.32418 -5.6175,-1.5333 -3.8782,-1.87741 -5.5243,-2.10152 -11.2745,-1.53491 l -6.7332,0.66347 -1.4481,-3.29103 -1.4481,-3.29103 -11.2522,0.29228 -11.2522,0.29227 -1.1869,-2.6051 c -0.7307,-1.6037 -2.2675,-2.82121 -3.9978,-3.16728 L 1140,849.75 v -16.75256 c 0,-18.50341 -0.046,-18.64377 -6.4108,-19.67667 -3.2794,-0.53218 -3.5892,-0.86839 -3.5892,-3.89508 0,-2.56067 0.63,-3.68478 2.7755,-4.95216 4.9917,-2.94866 7.2245,-8.32811 7.2245,-17.40587 0,-7.36224 -0.2306,-8.2913 -2.75,-11.07936 -3.6907,-4.08428 -10.0012,-5.02047 -30.0464,-4.45754 -27.1381,0.76212 -28.1747,1.2759 -20.5595,10.18964 3.954,4.62811 4.6527,6.07235 4.5242,9.35107 -0.16,4.083 2.67,8.30316 9.3262,13.90732 1.6469,1.38667 3.8969,3.55738 5,4.8238 1.103,1.26643 4.5276,4.90975 7.6102,8.09629 l 5.6048,5.79369 0.084,10.88891 c 0.1214,15.78578 0.905,20.35333 3.6724,21.40549 1.2433,0.47269 4.0949,0.61339 6.337,0.31267 5.8948,-0.79065 8.5618,0.19056 12.8942,4.74374 l 3.8468,4.0429 10.9782,0.50888 c 14.3521,0.66527 16.8005,1.0826 19.3564,3.29933 1.1746,1.01866 3.846,2.12562 5.9366,2.45991 2.1733,0.34753 4.8143,1.68646 6.1673,3.12671 2.0054,2.13457 3.2581,2.51889 8.2105,2.51889 4.3837,0 7.1135,0.66376 10.9241,2.65625 2.794,1.46093 7.3043,2.86997 10.023,3.1312 4.4889,0.43133 5.0723,0.78446 6.3506,3.84376 0.7741,1.85283 2.048,3.36879 2.8308,3.36879 0.8938,0 1.668,1.53099 2.0814,4.11596 0.5086,3.18118 0.197,4.89749 -1.3722,7.55716 -1.1167,1.89266 -2.0373,4.65298 -2.0457,6.13404 -0.031,5.46833 -0.6393,5.67656 -17.198,5.88847 -8.4077,0.1076 -15.8147,0.2201 -16.46,0.25 -0.6453,0.0299 -2.5495,1.21237 -4.2315,2.6277 l -3.0582,2.57333 -21.7138,-0.32333 -21.7137,-0.32333 -2.2484,3.5 c -5.4868,8.54098 -6.0956,9 -11.9372,9 -3.2651,0 -5.4239,0.43611 -5.4239,1.09571 0,1.79697 3.0943,6.4821 5.1143,7.7436 2.1615,1.3499 8.9996,1.82636 10.7435,0.74859 0.6474,-0.4001 3.6029,-0.42437 6.5678,-0.0539 5.207,0.65057 5.4134,0.79416 6.0546,4.21206 1.1029,5.87908 -0.7833,6.87945 -10.2009,5.41012 -11.2441,-1.75432 -17.0822,-0.5795 -21.4125,4.30892 -4.9314,5.56695 -4.9804,5.73446 -4.246,14.53942 0.6139,7.36178 0.9064,8.20787 3.2649,9.44359 2.4768,1.29774 2.5775,1.67993 2.2937,8.70463 -0.3953,9.78331 -0.5082,10.04486 -5.423,12.56198 -4.1249,2.11261 -11.0156,3.29221 -21.1729,3.62451 -3.0776,0.1006 -5.0819,0.6571 -5.359,1.4878 -0.2434,0.7299 -1.7705,2.6855 -3.3935,4.3459 -2.7288,2.7915 -2.9034,3.4068 -2.3189,8.1729 0.6153,5.0169 0.5268,5.2565 -3.3214,8.9913 -2.6114,2.5346 -4.7575,3.77 -6.3221,3.6393 -3.9059,-0.3262 -4.8686,-0.046 -4.8686,1.4166 0,1.9811 2.2224,2.5929 9.8318,2.7067 3.6675,0.055 7.7932,0.4339 9.1682,0.8425 1.375,0.4085 2.7971,0.5871 3.1602,0.3968 0.3631,-0.1903 6.4381,-0.5602 13.5,-0.8219 z m 121.5898,-0.5061 c 22.9106,-0.014 21.75,0.8952 21.75,-17.0424 0,-15.7491 -0.8094,-16.8054 -7.5683,-9.877 -11.0626,11.34 -11.9317,11.687 -29.6469,11.8354 -8.2746,0.069 -8.8939,0.2299 -12.25,3.1766 -2.6946,2.3659 -3.5348,3.8817 -3.5348,6.3775 0,4.8373 3.2333,6.7636 10,5.9577 1.925,-0.2292 11.4875,-0.4217 21.25,-0.4278 z m 58.496,-0.4236 c 0.1375,-0.1376 0.281,-6.4673 0.3189,-14.0661 0.078,-15.6824 -0.1798,-16.3095 -7.2492,-17.6161 -2.3736,-0.4388 -5.5159,-1.0922 -6.9829,-1.4522 -2.2823,-0.56004 -3.494,0.1463 -8.3955,4.8938 l -5.7283,5.5483 0.8208,5.3024 c 0.4514,2.9164 0.7556,7.6469 0.6759,10.5123 -0.088,3.1526 0.3367,5.5173 1.0747,5.9886 2.359,1.5066 24.0894,2.2651 25.4656,0.889 z m -100.7393,-1.5998 c 0.5923,-1.1069 0.9457,-5.4944 0.7851,-9.75 l -0.2918,-7.7376 -3.8982,-0.3192 c -4.7188,-0.3864 -5.5659,0.6889 -5.5865,7.0906 -0.011,3.4975 0.6877,5.8338 2.6176,8.75 2.9237,4.4181 4.7586,4.9841 6.3738,1.9662 z M 1163.5,1021 c -0.3399,-0.55 -1.6899,-1 -3,-1 -1.3101,0 -2.6601,0.45 -3,1 -0.3685,0.5963 0.8426,1 3,1 2.1574,0 3.3685,-0.4037 3,-1 z m -304.86077,-8.5022 c 1.04801,-2.7311 -0.66611,-6.6065 -3.6777,-8.3149 -4.36455,-2.4759 -4.64771,-4.74556 -1.13704,-9.11412 2.43715,-3.03271 3.06632,-4.84183 3.27875,-9.42776 0.14458,-3.1212 -0.1999,-6.13768 -0.7655,-6.70328 -0.56561,-0.56561 -3.01048,-1.12048 -5.43306,-1.23306 L 846.5,977.5 845.84064,983 c -0.36265,3.025 -0.40709,9.48387 -0.0987,14.35303 0.47686,7.53027 0.93672,9.29997 3.07781,11.84457 3.7442,4.4497 8.73479,6.127 9.81953,3.3002 z m 8.11124,-0.7478 C 866.12044,1009.8578 863,1009.5888 863,1011.4267 c 0,0.9276 0.855,1.5733 2.08333,1.5733 1.22198,0 1.91126,-0.5168 1.66714,-1.25 z m 66.84983,-3.5153 c 1.78405,-1.1913 3.59721,-5.2776 3.01497,-6.7949 -0.2963,-0.7722 -2.31978,-1.68873 -4.49662,-2.03682 -2.2327,-0.35702 -4.80155,-1.6032 -5.89342,-2.85895 -2.68012,-3.08241 -16.03045,-4.37299 -19.78538,-1.91266 -2.94386,1.92889 -4.14226,5.81733 -2.42907,7.88163 1.43636,1.7307 9.45668,2.0202 13.4896,0.4869 3.24887,-1.2353 6.49962,0.2512 6.49962,2.9719 0,1.3959 0.86422,2.0087 3.25,2.3048 1.7875,0.2218 3.7,0.4685 4.25,0.5481 0.55,0.079 1.49513,-0.1859 2.1003,-0.59 z m -38.47586,-4.3642 c 3.78094,-3.93521 3.95371,-4.39401 3.6716,-9.75002 L 898.5,988.5 l -6.25835,-0.29793 c -5.28369,-0.25154 -6.49792,-0.66355 -7.79657,-2.64555 -2.06953,-3.1585 -4.26388,-3.56854 -10.8741,-2.03194 -8.18297,1.9022 -11.86406,4.3646 -12.71032,8.50234 -0.407,1.98999 -0.27266,3.97665 0.31694,4.68708 1.83494,2.21096 7.3246,2.59478 10.87236,0.76017 2.94529,-1.52307 3.56514,-1.54676 5.87148,-0.2244 1.41821,0.81315 3.83136,1.77701 5.36257,2.14193 2.55265,0.6083 3.56785,1.9727 5.10325,6.8583 0.84237,2.6804 2.4063,2.1281 6.73718,-2.3795 z m 265.35816,2.5041 c 0.9867,-0.9867 1.5059,-2.8533 1.3214,-4.75 -0.2663,-2.73755 -0.6756,-3.1246 -3.304,-3.1246 -2.3885,0 -3.0678,0.47934 -3.3329,2.3517 -0.8522,6.0207 1.9285,8.9099 5.3155,5.5229 z m 64.4815,-4.7016 c 1.3807,-6.65111 0.6786,-8.673 -3.0121,-8.673 -1.5587,0 -3.087,-0.40939 -3.3962,-0.90976 -1.0081,-1.63105 0.6098,-4.09024 2.6909,-4.09024 2.6947,0 4.6823,-2.77625 4.7215,-6.59501 0.018,-1.79272 0.8733,-3.8566 2.0318,-4.90499 2.6935,-2.43761 2.6597,-8.16891 -0.065,-11.06962 -1.5382,-1.63729 -2.1504,-3.82358 -2.3982,-8.56445 -0.1831,-3.50126 -0.3787,-6.6312 -0.4346,-6.95541 -0.056,-0.32422 -1.2268,-1.10207 -2.6018,-1.72857 -1.8477,-0.84188 -2.5,-1.912 -2.5,-4.10149 0,-1.62934 -0.3509,-3.17931 -0.7798,-3.44439 -1.643,-1.01541 -24.5742,-0.67852 -25.5097,0.37478 -0.2389,0.26903 -0.691,3.09577 -1.0046,6.28165 -0.5272,5.35557 -0.3526,6.04025 2.3137,9.07702 2.8237,3.21609 2.8818,3.51535 2.7842,14.36437 -0.094,10.43322 -0.2293,11.13897 -2.3232,12.093 -1.223,0.55723 -2.5388,2.269 -2.9241,3.80393 -0.8915,3.5521 1.2859,5.30429 6.8846,5.54022 2.2324,0.0941 4.9589,0.20658 6.0589,0.25 1.1,0.0434 3.4625,0.69605 5.25,1.45028 2.8856,1.21756 3.25,1.81359 3.25,5.31574 0,5.99324 1.3891,7.81294 5.9643,7.81294 h 3.8939 z M 835.5695,989.57909 c 1.35025,-5.3798 -1.334,-8.58613 -3.39719,-4.05793 -1.7989,3.94815 -1.48304,6.47884 0.80864,6.47884 1.26176,0 2.20154,-0.87891 2.58855,-2.42091 z m 435.4559,0.74983 c 0.4308,-0.45591 0.9388,-3.75392 1.1289,-7.32892 l 0.3457,-6.5 -4.6287,-0.29984 c -6.2849,-0.40712 -7.6307,1.09951 -7.3006,8.17272 0.1423,3.04815 0.5804,6.06264 0.9737,6.69888 0.7788,1.26016 8.1328,0.68397 9.481,-0.74284 z M 1182,988.93045 c 0,-1.57185 -0.5386,-1.9927 -2.2398,-1.75 -3.3237,0.4742 -3.6159,3.81955 -0.3335,3.81955 1.9355,0 2.5733,-0.51297 2.5733,-2.06955 z m 46.5411,1.00302 c 0.3626,-0.58659 0.482,-1.24374 0.2654,-1.46034 -0.6869,-0.68686 -4.8065,0.72177 -4.8065,1.6435 0,1.25139 3.7479,1.10021 4.5411,-0.18316 z m -204.9589,-2.42849 c 23.9459,-0.26646 24.1052,-0.28256 28.1659,-2.84596 2.2461,-1.41789 4.385,-3.0654 4.7532,-3.66113 0.3682,-0.59573 0.7932,-8.15147 0.9444,-16.79052 0.1513,-8.63905 0.6191,-17.16987 1.0397,-18.95737 0.5241,-2.22767 0.4024,-3.25 -0.3868,-3.25 -0.8564,0 -1.0167,-8.77566 -0.6253,-34.25 0.2894,-18.8375 0.4963,-34.8125 0.4598,-35.5 -0.2513,-4.73074 -0.2675,-8.40166 -0.056,-12.75 0.1336,-2.75 0,-11.14361 -0.2869,-18.65247 l -0.5298,-13.65248 -4.9651,-5.09748 c -4.4376,-4.55599 -5.2332,-4.99551 -7.4897,-4.13762 -3.1442,1.19544 -22.6063,0.63812 -25.1961,-0.72153 -1.1664,-0.61235 -4.1267,-0.69539 -7.609,-0.21343 -3.1349,0.43388 -13.09313,0.8136 -22.12948,0.84383 -15.09265,0.0505 -16.57422,-0.1047 -18.20521,-1.90693 C 970.06094,814.40986 968.37941,814 963.41644,814 c -8.9707,0 -9.39745,0.64206 -9.33712,14.04789 0.0271,6.01432 -0.24459,11.4105 -0.60367,11.99151 -0.35908,0.58101 -0.32961,1.82232 0.0655,2.75849 0.67446,1.59808 1.26634,23.92406 1.56409,58.99822 0.1414,16.65657 0.62931,18.20981 5.7162,18.1973 1.47321,-0.004 4.02857,-0.90066 5.67857,-1.99341 3.70385,-2.45296 6.33705,-2.52255 9.45931,-0.25 1.32237,0.9625 4.685,2.875 7.4725,4.25 6.33849,3.12661 9.34836,8.1936 7.40315,12.46289 -0.95094,2.08708 -0.95746,3.11132 -0.0292,4.59763 0.65685,1.05179 1.18005,2.93095 1.16267,4.17591 -0.0859,6.15135 -14.60835,15.31218 -17.92974,11.31015 -1.28106,-1.54358 0.24179,-3.10932 1.97958,-2.03531 1.47309,0.91042 7.12171,-2.85672 9.88234,-6.59067 l 2.37109,-3.20707 -2.29192,-1.72881 c -2.2812,-1.72071 -2.24707,-2.74038 0.2059,-6.1509 1.58524,-2.20405 -0.23666,-4.46648 -4.3188,-5.36306 -1.80158,-0.3957 -3.4362,-1.62625 -4.10234,-3.08826 -2.72367,-5.9778 -10.3348,-3.1339 -15.108,5.64511 -3.55464,6.5378 -3.28719,8.68289 1.93568,15.52523 3.56981,4.6767 3.5802,4.71921 1.63024,6.66917 -1.94996,1.94996 -1.96934,1.94276 -3.04043,-1.12977 C 962.29945,950.56056 961.55898,950 959.09733,950 c -2.70124,0 -3.06757,0.38098 -3.60581,3.75 -0.62218,3.89448 -0.79047,4.27096 -3.83157,8.57163 -1.01202,1.4312 -2.09061,4.47029 -2.39686,6.75354 -1.01402,7.56012 -2.26356,1.72656 -2.84025,-13.25988 -0.94243,-24.49149 -1.5417,-50.15887 -1.25644,-53.81529 0.79899,-10.24138 0.0907,-49.14294 -0.91308,-50.14668 -1.93181,-1.93181 -6.2742,-1.2075 -9.12285,1.52168 -3.40682,3.26394 -7.60742,3.41155 -10.67161,0.375 -1.24876,-1.2375 -2.98786,-2.83024 -3.86467,-3.53943 -2.83347,-2.29178 -1.71426,-3.20667 4.15581,-3.39713 6.91203,-0.22425 11.1853,-0.43227 13.375,-0.65107 2.10108,-0.20994 2.96367,-4.61809 2.18695,-11.17623 l -0.61027,-5.15276 -3.22198,0.60445 c -2.69689,0.50594 -3.49119,0.19358 -4.87389,-1.91669 -2.35419,-3.59294 -5.41895,-3.13405 -10.48427,1.56981 -4.35183,4.0413 -4.37466,4.09832 -3.75425,9.37704 l 0.62421,5.31102 -3.6418,0.68321 c -2.33131,0.43735 -3.89412,0.27492 -4.34301,-0.45139 -1.02696,-1.66166 -0.0755,-10.921 1.57022,-15.28107 0.7827,-2.07363 1.42309,-4.01705 1.42309,-4.31872 0,-1.53013 -16.92371,0.99158 -21.80928,3.24969 -4.30502,1.98978 -6.57484,2.39581 -12,2.14661 L 872.5,830.5 v 3 c 0,2.94915 0.10295,3.00848 6.07347,3.5 3.91748,0.32251 6.69398,1.12123 7.82143,2.25 0.96138,0.9625 2.50331,1.75036 3.42653,1.75079 0.92321,4.3e-4 4.53147,1.35043 8.01836,3 3.48688,1.64957 7.42438,2.99921 8.75,2.99921 1.65495,0 2.41021,0.56447 2.41021,1.80136 0,0.99075 2.025,3.73131 4.5,6.09014 2.475,2.35882 4.5,4.89777 4.5,5.6421 0,0.74433 1.35,2.15079 3,3.12547 1.67319,0.98838 3,2.61969 3,3.6885 0,1.054 0.91753,3.40095 2.03895,5.21545 1.12142,1.8145 2.31461,5.62663 2.65153,8.4714 0.38974,3.29074 1.46845,6.18944 2.9653,7.96835 3.20044,3.8035 4.53227,16.88832 1.94242,19.08365 -0.91718,0.77747 -2.29458,1.97581 -3.06087,2.66298 -0.7663,0.68717 -1.70304,3.83717 -2.08165,7 -0.38029,3.17686 -1.47269,6.64572 -2.44079,7.7506 -0.96383,1.1 -2.03143,3.125 -2.37245,4.5 -0.34102,1.375 -4.11804,6.12405 -8.39337,10.55344 -6.27229,6.49831 -8.68268,8.30804 -12.48251,9.37193 -3.03615,0.85007 -4.92741,2.00606 -5.32344,3.25384 -0.68579,2.16074 -4.23564,3.82079 -8.17036,3.82079 -1.42838,0 -4.66158,1.21045 -7.1849,2.68989 -4.0449,2.37156 -5.77134,2.71718 -14.58786,2.92037 -11.86791,0.27353 -16.5,1.11663 -16.5,3.00324 0,1.01156 1.46656,1.3865 5.42327,1.3865 4.24007,0 6.03999,0.51626 8.25,2.36631 2.21157,1.85134 4.56771,2.52624 10.82673,3.10121 4.4,0.4042 9.125,1.33279 10.5,2.06353 4.34135,2.3072 9.13431,3.46895 14.31168,3.46895 3.90859,0 6.08563,0.68816 9.88017,3.12311 4.07382,2.61416 5.49771,3.02224 8.73763,2.50416 2.76954,-0.44287 5.10817,-0.0574 8.22061,1.35493 4.94891,2.24569 15.72282,2.74489 17.64991,0.8178 0.66,-0.66 1.2,-3.33344 1.2,-5.94098 0,-2.60754 0.45943,-5.02493 1.02096,-5.37197 1.35209,-0.83564 4.01665,5.65311 3.3571,8.17524 -1.04948,4.01324 1.55512,4.59506 21.67235,4.84124 10.46056,0.12801 19.33386,0.54741 19.71844,0.93199 0.38459,0.38459 2.28143,0.39284 4.2152,0.0183 1.93377,-0.3745 14.35295,-0.80149 27.59815,-0.94888 z m 75.134,-7.32351 c 3.2154,-6.22393 3.2387,-6.36615 1.5581,-9.5 -1.1356,-2.11753 -1.7175,-5.55435 -1.7402,-10.27706 -0.049,-10.11419 -2.2749,-12.05546 -10.6349,-9.27306 -5.884,1.95836 -6.2163,2.72858 -6.4742,15.00765 -0.1297,6.17561 0.1673,12.28857 0.6599,13.58434 1.5742,4.14032 6.0222,7.29892 9.8911,7.02382 3.1772,-0.22592 3.7566,-0.79027 6.7402,-6.56569 z m 64.8045,5.56853 c 0.7203,-1.96611 -2.1674,-9.2173 -3.803,-9.54995 -3.9808,-0.80955 -6.5573,7.62913 -2.9677,9.71985 2.4404,1.42138 6.2225,1.32647 6.7707,-0.1699 z m -88.0437,-6.04068 c 1.0352,-2.47765 1.3721,-9.08678 1.3636,-26.75 -0.01,-13.22683 0.4351,-24.88853 1.0119,-26.73597 0.7684,-2.4607 0.6742,-4.11191 -0.3783,-6.63083 -1.0996,-2.63185 -1.1842,-4.70338 -0.3925,-9.61929 0.559,-3.4709 0.6924,-9.65648 0.2991,-13.86917 -0.3905,-4.18223 -0.644,-8.95406 -0.5635,-10.60406 0.081,-1.65 0.2469,-6.6 0.3696,-11 0.1227,-4.4 0.3899,-7.20699 0.5938,-6.23776 0.2039,0.96924 0.7878,1.50443 1.2977,1.18931 0.562,-0.34731 0.5336,-1.30807 -0.072,-2.4398 -0.5495,-1.02677 -0.7073,-2.62727 -0.3507,-3.55665 0.5618,-1.4639 0.8149,-1.37868 1.894,0.63754 0.8768,1.63832 1.0945,5.59574 0.7354,13.36734 -0.2806,6.07201 -0.4462,14.64002 -0.3679,19.04002 0.078,4.4 0.269,15.27461 0.424,24.16579 0.2739,15.72159 0.3569,16.27947 3.0194,20.30279 2.6234,3.96416 2.9298,4.12434 7.3362,3.83421 4.8285,-0.31794 4.9028,-0.38827 7.7575,-7.34028 1.2862,-3.13229 1.4211,-4.66023 0.6018,-6.8151 -0.5808,-1.52768 -1.056,-5.36716 -1.056,-8.53217 0,-4.89188 -0.3748,-6.08044 -2.5,-7.92829 -2.2158,-1.92662 -2.5108,-2.99864 -2.5952,-9.43034 -0.052,-3.99113 -0.2755,-10.68036 -0.4959,-14.86494 -0.3652,-6.93108 -0.188,-7.83794 1.9897,-10.18779 1.7377,-1.87496 2.5901,-4.30342 3.1211,-8.89167 0.5126,-4.43013 1.4386,-7.15504 3.1054,-9.13894 3.2584,-3.87826 3.2017,-8.90152 -0.1251,-11.08131 -1.7004,-1.11414 -2.5,-2.55122 -2.5,-4.49304 0,-1.80796 -0.7848,-3.3761 -2.1401,-4.27595 -1.5165,-1.00693 -2.38,-3.00931 -2.9634,-6.87197 -2.0086,-13.29895 -2.4644,-15.30698 -3.5575,-15.67134 -0.6381,-0.21269 -1.6436,0.19988 -2.2345,0.91682 -4.6361,5.62506 -5.903,7.7777 -6.5055,11.05352 -0.4227,2.29869 -1.2526,3.75 -2.1443,3.75 -0.8001,0 -1.4547,0.47656 -1.4547,1.05902 0,0.58246 -0.4856,0.75893 -1.079,0.39215 -0.6876,-0.42496 -0.837,-2.42651 -0.4118,-5.51783 0.6354,-4.62009 0.544,-4.88189 -1.921,-5.50057 -3.5783,-0.89807 -7.3424,0.21739 -8.0285,2.37917 -0.3155,0.99401 -0.5674,12.58046 -0.5597,25.74768 0.056,96.36472 0.2892,122.38854 1.1263,125.69038 0.8349,3.29305 1.3179,3.75 3.9633,3.75 2.4611,0 3.2641,-0.60228 4.3874,-3.29068 z M 1077,856.46862 c 0,-0.80774 0.45,-1.46862 1,-1.46862 0.55,0 1,-1.37656 1,-3.05902 0,-2.02386 -0.3834,-2.82209 -1.1329,-2.35887 -0.8249,0.50983 -0.9346,-0.90119 -0.4035,-5.19098 0.7461,-6.02597 1.1218,-7.13907 2.0847,-6.1762 0.978,0.97808 2.0743,14.57304 1.336,16.5688 -0.9031,2.44125 -3.8843,3.73441 -3.8843,1.68489 z M 765.81955,970.82833 C 765.34847,967.62683 763,967.28395 763,970.41667 c 0,1.6805 0.54853,2.58333 1.56955,2.58333 1.04234,0 1.46221,-0.72946 1.25,-2.17167 z M 1163.8196,969.25 c 0.3009,-2.11921 -0.03,-2.25 -5.691,-2.25 -6.3112,0 -8.1354,1.08197 -6.0535,3.59047 0.8808,1.06134 2.7423,1.41571 6.3361,1.2062 4.4083,-0.257 5.1315,-0.59753 5.4084,-2.54667 z m 113.9953,0.0251 c 0.3335,-2.33413 -1.2845,-3.09967 -7.3149,-3.4611 -7.1085,-0.42605 -8.5,0.0365 -8.5,2.82526 0,2.56513 0.135,2.6233 4.8047,2.07025 2.6425,-0.31297 5.455,-0.15121 6.25,0.35946 2.2496,1.4452 4.414,0.62956 4.7602,-1.79387 z m -453.93775,-7.20939 c 2.59894,-1.3909 1.95282,-16.09142 -0.88225,-20.0729 -1.09719,-1.54087 -2.00104,-3.85711 -2.00855,-5.14721 -0.0271,-4.66111 -1.14237,-6.84563 -3.4948,-6.84563 -1.92596,0 -2.40822,-0.72911 -3.14187,-4.75 -0.74042,-4.05803 -1.39728,-5.03477 -4.50898,-6.70477 -3.14396,-1.68732 -3.87157,-1.7645 -5.31792,-0.56413 -1.21118,1.00518 -1.50971,2.27504 -1.07704,4.58137 0.77251,4.11784 -1.03209,9.25118 -2.67474,7.60853 -0.79043,-0.79043 -1.27575,-9.1224 -1.53852,-26.41283 -0.46641,-30.69144 -0.48127,-25.74484 0.12439,-41.40912 0.55522,-14.36008 0.58847,-14.24712 -5.51821,-18.75089 l -3.66135,-2.7003 -20.50144,-0.19893 c -19.48846,-0.1891 -20.64163,-0.0943 -23.33866,1.91948 -2.41559,1.8036 -2.81664,2.76953 -2.69879,6.5 0.0761,2.40987 0.45963,5.5853 0.85222,7.0565 0.62593,2.34562 -0.0176,3.39198 -5.22743,8.5 l -5.94124,5.82509 -0.67923,7.37126 c -0.48174,5.22793 -1.32817,8.281 -2.91099,10.5 -1.97357,2.7668 -2.23175,4.36124 -2.23175,13.7828 0,10.27499 0.0955,10.74255 2.68431,13.14137 3.04166,2.81844 4.35647,8.00841 3.36615,13.28726 -0.8825,4.70418 1.24329,7.96843 5.73849,8.81174 4.02646,0.75537 10.69938,8.01233 8.23653,8.95742 -0.77833,0.29867 -1.73223,2.23328 -2.11978,4.29913 -0.66069,3.52177 -0.43777,3.99292 3.57343,7.55255 L 753.25722,962 h 21.7164 c 20.58239,0 21.81273,-0.10644 23.56103,-2.03829 1.57196,-1.737 1.70573,-2.73474 0.90499,-6.75 -1.21854,-6.11021 -0.72422,-17.50562 0.72064,-16.61265 0.58483,0.36144 1.49991,0.037 2.03351,-0.72094 0.65601,-0.93186 0.80279,0.27285 0.45325,3.72034 -0.32673,3.22261 -0.0382,5.98205 0.78431,7.5 0.71567,1.32085 2.74213,5.10154 4.50324,8.40154 2.64721,4.96039 3.75331,6.10714 6.38371,6.61836 4.99982,0.97171 7.67238,0.957 9.55885,-0.0526 z M 851,960.10699 c 0,-3.7008 -2.10776,-4.50663 -6.73295,-2.57411 -4.05571,1.69459 -3.61451,2.78899 1.73295,4.29865 5.04567,1.42446 5,1.44021 5,-1.72454 z m 429.5455,-1.56154 c 2.9007,-2.9007 2.7897,0.11669 2.4833,-67.54545 -0.2514,-55.5254 0.7295,-52.61238 -17.4594,-51.85343 -4.7295,0.19734 -8.9942,0.87748 -9.6565,1.54005 -0.8199,0.82021 -1.1278,5.45193 -0.9973,15 0.1039,7.59736 0.2779,34.05901 0.3866,58.80368 l 0.1978,44.9903 3,0.64138 c 1.65,0.35277 6.733,0.69463 11.2955,0.75971 7.5563,0.10777 8.5141,-0.1004 10.75,-2.33624 z M 886.81184,948.73852 C 887.05753,947.46276 886.48346,947 884.65511,947 c -5.19476,0 -7.72309,2.45343 -3.40511,3.30423 3.65209,0.7196 5.20597,0.28217 5.56184,-1.56571 z m -9.57715,-4.09306 c 1.49107,-2.32475 0.69308,-5.55712 -1.86955,-7.57288 -3.85241,-3.03031 -5.50156,-2.59903 -9.82093,2.56832 -3.32014,3.97195 -3.66103,4.80077 -2.36498,5.75 1.90673,1.3965 13.06108,0.80492 14.05546,-0.74544 z m 21.19642,-6.57491 c 2.21689,-2.2703 3.60575,-4.53211 3.28931,-5.35675 -0.78373,-2.04237 -8.47708,-2.84786 -12.16713,-1.27391 -1.67931,0.7163 -4.10435,2.44289 -5.38897,3.83688 -1.93748,2.10244 -2.14459,2.89158 -1.21481,4.62888 0.91968,1.71844 2.0653,2.09435 6.38273,2.09435 4.80545,0 5.59469,-0.34084 9.09887,-3.92945 z m -64.93238,-3.0685 c 0.54447,-0.88097 -1.35579,-5.19771 -3.84346,-8.73104 -1.72046,-2.44363 -4.65527,0.45476 -4.65527,4.59751 0,2.08898 0.3,4.09815 0.66667,4.46481 1.04042,1.04043 7.14386,0.78226 7.83206,-0.33128 z M 850,933.54969 c 0,-0.79767 -0.60931,-1.81017 -1.35402,-2.25 -0.7447,-0.43983 -1.90015,-1.8395 -2.56766,-3.11037 -1.56222,-2.97436 -5.4432,-2.63897 -5.89111,0.5091 C 839.60882,932.76354 841.68429,935 846.03518,935 848.83242,935 850,934.57291 850,933.54969 Z m 31.06574,-2.58487 C 882.12958,930.39547 883,929.28781 883,928.50336 c 0,-0.80584 1.65663,-1.87236 3.80829,-2.45174 2.09457,-0.56401 4.69867,-2.04385 5.78691,-3.28854 1.08824,-1.2447 2.92561,-2.93808 4.08306,-3.76308 1.93271,-1.37759 2.15707,-2.77785 2.74937,-17.15892 l 0.64493,-15.65892 -5.03628,-4.95746 C 888.46532,874.75657 888.43143,873 894.87756,873 c 6.55274,0 7.62676,-1.46993 4.77396,-6.53376 -2.14837,-3.81344 -2.40622,-3.9526 -6.69299,-3.61211 -5.48419,0.4356 -5.95464,0.70769 -5.97384,3.45489 -0.0306,4.37176 -0.96676,4.67635 -15.49873,5.04247 -12.20249,0.30743 -14.02248,0.57314 -14.94054,2.18126 -0.57498,1.00716 -3.16456,3.82443 -5.75462,6.2606 -2.59007,2.43616 -5.17116,5.84178 -5.73577,7.56802 -0.98638,3.01576 -1.29353,27.3336 -0.38954,30.84043 0.66575,2.58262 8.36282,7.7982 11.50846,7.7982 1.84746,0 3.31898,0.82268 4.38695,2.4526 1.33166,2.03237 2.57784,2.514 7.27305,2.81092 3.11633,0.19707 6.93313,0.4434 8.48179,0.5474 1.54866,0.10399 3.68616,-0.27675 4.75,-0.8461 z m 30.34014,-11.43031 c 1.80923,-2.37203 2.59225,-4.78247 2.80243,-8.62706 0.38205,-6.98818 -1.58552,-7.53024 -7.14683,-1.96893 -3.3702,3.3702 -4.06148,4.73014 -4.06148,7.99005 0,4.22298 2.15978,7.33108 4.47651,6.44207 0.78025,-0.29941 2.54846,-2.02567 3.92937,-3.83613 z m 212.04572,-1.94985 c 5.6123,-2.34496 6.0388,-4.05372 6.1359,-24.58466 0.048,-10.175 -0.2861,-19.25197 -0.7429,-20.17105 -0.6725,-1.35313 -2.3538,-1.67106 -8.8374,-1.67106 -7.7009,0 -8.1694,0.13531 -12.2571,3.53991 -2.3375,1.94695 -4.5627,4.03519 -4.9448,4.64053 -0.382,0.60534 -0.5268,8.30993 -0.3217,17.12132 l 0.3729,16.0207 3.557,3.25982 c 3.0328,2.77928 4.3011,3.25983 8.6039,3.25983 2.7758,0 6.5712,-0.6369 8.4342,-1.41534 z M 503.41413,908.25 c 0.3019,-0.9625 0.73804,-9.35214 0.9692,-18.64364 0.41488,-16.67635 0.38998,-16.92396 -1.93607,-19.25 -2.36554,-2.36555 -4.99769,-2.95978 -7.04756,-1.59105 -2.68404,1.79219 -3.4576,5.4742 -3.08066,14.66334 0.34761,8.47422 0.65923,9.75682 3.06521,12.61615 1.80258,2.14225 2.4735,3.82803 2.05202,5.156 -0.34443,1.08519 -0.3381,3.50896 0.0141,5.38614 0.51631,2.75216 1.10257,3.41306 3.0276,3.41306 1.39784,0 2.6148,-0.72532 2.9362,-1.75 z m 335.40229,-6.50855 C 839.10113,899.27473 838.8224,899 836.03504,899 c -3.81885,0 -5.22223,2.65874 -2.46686,4.67351 2.74193,2.00495 4.88488,1.21605 5.24824,-1.93206 z m 332.83008,1.67863 c 2.0799,-0.31191 4.5376,-1.98099 7.25,-4.92364 2.2569,-2.44846 4.1035,-4.75273 4.1035,-5.12059 0,-0.36786 -1.5991,-3.07792 -3.5535,-6.02234 L 1175.8931,882 h -16.4466 C 1139.265,882 1139,882.14162 1139,892.92857 c 0,7.21709 1.3251,10.00255 4.8214,10.13504 5.7507,0.21791 16.7183,1.14272 17.0098,1.4343 0.328,0.32794 3.6475,-0.003 10.8153,-1.07783 z m 44.2906,-6.38121 c 0.7449,-0.46036 1.0904,-1.52475 0.7679,-2.36531 -0.4792,-1.24872 -1.9236,-1.431 -7.8957,-0.99643 -5.1086,0.37173 -8.5922,0.0829 -11.5702,-0.95944 -4.8001,-1.67998 -5.7937,-1.02891 -4.1006,2.68702 1.1388,2.49941 1.383,2.55368 11.3041,2.51288 5.5771,-0.0229 10.7496,-0.41836 11.4945,-0.87872 z m -303.87136,-4.07405 c 2.89535,-1.54955 2.55496,-7.28448 -0.68443,-11.53154 -4.38679,-5.75139 -7.42452,-4.30969 -8.83194,4.19162 -0.61165,3.69454 -0.40102,4.34663 2.01873,6.25 3.01649,2.37278 4.65543,2.61102 7.49764,1.08992 z M 1218,886.46862 c 0,-1.59667 -2.6576,-3.14433 -3.6667,-2.13529 -0.3192,0.31923 -0.3139,1.27482 0.012,2.12354 0.7669,1.99852 3.6549,2.00779 3.6549,0.0118 z M 812.73967,876.75 c 0.5415,-0.6875 1.28018,-2.4875 1.64149,-4 0.36132,-1.5125 1.06623,-2.75 1.56646,-2.75 1.84843,0 4.05238,-3.22616 4.05238,-5.93188 0,-1.53397 1.125,-4.44681 2.5,-6.47298 3.06077,-4.5103 3.65954,-14.9362 0.91821,-15.98815 -3.48187,-1.33612 -11.19904,-0.60505 -13.52902,1.28166 -2.3381,1.89327 -2.43402,2.40186 -2.79569,14.82239 -0.0553,1.9005 -0.96768,4.02548 -2.23538,5.20652 -1.81211,1.68823 -2.04515,2.70123 -1.51361,6.57928 0.89069,6.49824 2.20359,8.50316 5.56823,8.50316 1.5633,0 3.28542,-0.5625 3.82693,-1.25 z M 831,871 c 0,-1.45377 -0.66667,-2 -2.44098,-2 -1.34254,0 -2.7191,0.45 -3.05902,1 -0.99397,1.60828 0.42513,3 3.05902,3 1.77431,0 2.44098,-0.54623 2.44098,-2 z m 14,-1.62244 c 0,-1.38425 -3.11864,-1.92559 -4.29815,-0.74608 -0.34732,0.34732 -0.16593,1.50137 0.40307,2.56457 0.82478,1.5411 1.32458,1.69239 2.46482,0.74607 C 844.35638,871.28927 845,870.13521 845,869.37756 Z M 606.06513,867.9141 c 1.96082,-0.49039 4.66082,-2.05801 6,-3.48358 2.32552,-2.47556 2.44174,-3.2283 2.58794,-16.76124 0.0842,-7.7931 0.15,-15.06928 0.14625,-16.16928 -0.008,-2.41641 0.10377,-5.00181 0.38996,-9 0.11811,-1.65 0.12384,-8.97993 0.0127,-16.28872 L 615,792.92255 l -3.91679,-4.199 c -3.6733,-3.93797 -4.27943,-4.2099 -9.75,-4.37408 -3.20827,-0.0963 -9.51718,-0.4971 -14.01982,-0.89069 l -8.1866,-0.71561 -2.1281,3.37842 c -2.09534,3.32642 -2.12012,3.93245 -1.61052,39.37841 0.32388,22.5273 0.93408,37.18189 1.63049,39.1581 1.10234,3.12809 4.31333,4.86791 7.15188,3.87514 0.7312,-0.25573 2.90446,-0.0765 4.82946,0.39827 3.69823,0.91213 11.11896,0.46971 17.06513,-1.01741 z M 478,867 c 0,-0.55 -0.47656,-1 -1.05902,-1 -0.58246,0 -0.7809,0.45 -0.44098,1 0.33992,0.55 0.81648,1 1.05902,1 0.24254,0 0.44098,-0.45 0.44098,-1 z m 396.04049,-3.18806 c 3.54021,-2.61739 3.87839,-5.5872 0.70951,-6.23084 -12.13713,-2.4652 -16.47583,-0.31615 -11.67742,5.78404 2.59613,3.30045 6.87252,3.47465 10.96791,0.4468 z M 494.75,857.85476 c 5.8891,0.54148 9.5482,0.17987 11.56736,-1.14313 2.08612,-1.36688 2.44453,-2.53466 2.88083,-9.38636 0.9002,-14.13682 0.22054,-49.30654 -0.97598,-50.50306 -0.81459,-0.81459 -1.92005,-0.7758 -4.14404,0.14541 -2.87684,1.19163 -3.30473,1.03508 -8.30563,-3.0387 -9.4743,-7.71785 -9.69719,-8.76505 -3.27254,-15.37553 C 499.49339,771.35773 498.09375,768 488.10093,768 c -3.86401,0 -5.25926,0.42732 -6.01677,1.84274 -0.54241,1.01351 -0.98254,6.75101 -0.97806,12.75 0.004,5.99899 -0.37763,12.25726 -0.84915,13.90726 -0.4866,1.70278 -0.4032,15.03839 0.19288,30.84038 1.04762,27.77287 1.05612,27.8452 3.5017,29.82349 1.91084,1.54572 3.23416,1.82792 6,1.27953 1.95166,-0.38696 4.11097,-0.65185 4.79847,-0.58864 z m 670.6288,-6.65871 c 0.2733,-0.44217 0.6349,-8.52208 0.8037,-17.95537 0.2235,-12.49584 -0.024,-17.48185 -0.9106,-18.36875 -0.8875,-0.88752 -2.5116,-0.96734 -5.9946,-0.29463 l -4.7773,0.9227 0.057,16.66477 c 0.042,12.23538 0.4065,17.08612 1.3725,18.25 1.3701,1.65088 8.5454,2.24413 9.4495,0.78128 z M 625,835.49133 c 0.275,-2.74523 1.36702,-6.2712 2.4267,-7.83548 1.8161,-2.68089 1.83279,-3.02531 0.29078,-6 -0.89976,-1.73572 -1.76678,-4.50585 -1.9267,-6.15585 -0.37318,-3.8501 -4.0563,-4.7409 -5.8379,-1.41195 -1.92207,3.59142 -2.202,10.37996 -0.58737,14.24431 0.81402,1.94823 1.2392,4.46324 0.94483,5.5889 -0.87566,3.34853 0.52879,7.25569 2.47539,6.88651 1.26038,-0.23903 1.84666,-1.64668 2.21427,-5.31644 z m 655.4785,-1.11271 c 0.8918,-0.89176 1.4702,-2.35426 1.2854,-3.25 -0.2678,-1.29795 -1.3905,-1.57219 -5.5293,-1.35069 -5.9185,0.31674 -6.2344,-0.92333 -1.186,-4.65575 2.3608,-1.74539 2.9514,-2.93651 2.9514,-5.95212 0,-4.50457 -1.4146,-6.17006 -5.2405,-6.17006 -1.5623,0 -4.1209,-0.94663 -5.6858,-2.10363 -3.5974,-2.65965 -6.1919,-1.91898 -9.7865,2.79377 -2.1149,2.77277 -2.6693,4.52413 -2.5198,7.95995 0.2726,6.26272 1.6502,8.34878 5.5178,8.35549 4.1195,0.007 10.7148,1.82794 10.7148,2.95809 0,0.85893 4.3931,2.80429 6.6786,2.95738 0.6482,0.0434 1.9082,-0.65067 2.7999,-1.54243 z M 1107.5,832.4863 c 0,-2.79806 -2.929,-2.48798 -3.3312,0.35266 -0.2569,1.81382 0.08,2.25979 1.5,1.98631 1.042,-0.20067 1.8312,-1.20874 1.8312,-2.33897 z M 856.2332,819.20147 c 0.42983,-5.18316 0.23537,-5.89548 -2.24091,-8.20867 -4.78896,-4.47356 -4.81558,-8.96195 -0.0621,-10.47064 0.96227,-0.30542 2.34768,-1.67284 3.07868,-3.03873 0.97035,-1.81312 2.1607,-2.48712 4.41011,-2.49708 5.03202,-0.0223 7.58102,-1.06564 7.58102,-3.10298 0,-2.73026 -7.00139,-2.6443 -9.5,0.11663 -1.31605,1.45422 -3.07997,2 -6.46386,2 -7.56078,0 -8.53358,1.32769 -8.55109,11.67067 -0.0222,13.14928 0.2407,14.11812 4.71068,17.35616 2.16908,1.57127 4.53397,2.63039 5.25529,2.35359 0.78282,-0.3004 1.50124,-2.79121 1.78218,-6.17895 z m 87.73045,4.34233 c 1.36091,-1.6398 0.6003,-3.5438 -1.41568,-3.5438 -1.51596,0 -2.84001,2.71845 -1.9922,4.09024 0.81253,1.3147 2.02457,1.12035 3.40788,-0.54644 z M 1063,818.10699 c 0,-1.01369 -3.0458,-2.39454 -3.7433,-1.69706 -0.2513,0.25135 -0.1604,0.93695 0.2022,1.52354 0.7978,1.29088 3.5411,1.42531 3.5411,0.17352 z m -170.12824,-3.03853 c 5.45266,-1.05323 6.25081,-2.2964 5.50118,-8.56846 -0.47888,-4.00676 -1.35145,-5.77325 -4.39254,-8.89257 -4.99823,-5.1268 -6.51568,-4.43163 -7.40064,3.39033 -0.99016,8.75188 -2.21183,10.99883 -5.99028,11.01755 -3.8349,0.019 -6.83961,1.5949 -4.56145,2.39236 1.41953,0.4969 6.32192,1.14703 10.47197,1.38874 1.1,0.0641 3.96729,-0.26351 6.37176,-0.72795 z m -20.59095,-0.62272 c 1.03563,-0.39741 1.26495,-1.43166 0.81032,-3.65456 C 871.9182,805.05619 866,804.20277 866,809.76862 c 0,4.28111 2.48686,6.13299 6.28081,4.67712 z m 143.90289,-3.78931 c 0.926,-0.70398 2.0017,-2.60217 2.3903,-4.2182 1.3563,-5.63934 3.7683,-8.99286 12.068,-16.77842 8.8988,-8.34749 10.1283,-11.00541 5.608,-12.12273 -1.5125,-0.37385 -3.9188,-1.79103 -5.3474,-3.1493 l -2.5974,-2.46957 -32.90261,-0.13058 c -23.71609,-0.0941 -33.93565,0.21355 -36.60261,1.10195 -3.41743,1.1384 -7.79341,5.2059 -10.36184,9.63138 C 946.9676,785.05474 945,783.54063 945,779.87524 c 0,-6.55264 -2.52997,-7.84001 -12.25,-6.23339 -2.77476,0.45864 -3.75,1.10594 -3.75,2.48899 0,1.50754 0.7581,1.86916 3.91844,1.86916 3.39953,0 4.2049,0.4635 6.08156,3.5 1.27545,2.06372 2.96326,3.5 4.11294,3.5 1.07241,0 2.22911,0.7875 2.57044,1.75 0.34134,0.9625 1.31034,2.55228 2.15334,3.53285 0.84299,0.98057 1.61389,3.70923 1.7131,6.06369 0.35516,8.42842 0.30998,8.40709 18.15365,8.57228 15.58633,0.1443 15.78411,0.17413 18.51729,2.79268 2.58746,2.47894 3.47667,2.67239 14.01994,3.04992 6.1914,0.22171 11.4451,0.59109 11.6749,0.82084 0.7616,0.76165 2.5621,0.3711 4.2681,-0.92583 z M 923.81763,807.5 c 1.6341,-1.375 3.59349,-2.5 4.35422,-2.5 2.22711,0 6.09827,-3.12988 5.10262,-4.12553 -0.49174,-0.49174 -4.78776,-1.00217 -9.54671,-1.13427 -9.78595,-0.27166 -12.11676,0.95478 -13.32845,7.01327 L 909.75,810 h 5.54827 c 4.45921,0 6.13147,-0.49072 8.51936,-2.5 z m 317.88967,0.88089 c 3.1606,-0.84742 4.1187,-5.10103 4.1696,-18.51253 0.024,-6.3974 0.1152,-12.0224 0.2021,-12.5 0.4451,-2.4484 -0.393,-3.60159 -3.5874,-4.93633 -1.9297,-0.80625 -4.5224,-1.21142 -5.7616,-0.90039 -3.0432,0.76378 -9.4365,-2.03165 -10.2084,-4.4635 -1.3399,-4.22167 -8.4672,-2.96549 -9.9659,1.75649 -0.5104,1.60812 -1.3354,1.80686 -5.7426,1.38339 -3.082,-0.29614 -6.5396,-1.4399 -8.6193,-2.85126 -1.9101,-1.29622 -3.9726,-2.35062 -4.5833,-2.34311 -3.5218,0.0433 -5.8277,1.57052 -7.1501,4.73547 -1.8722,4.48066 -1.8425,6.73805 0.128,9.74542 1.038,1.58417 1.3675,3.42998 0.9508,5.32682 -0.8782,3.99868 1.2956,12.01988 3.5904,13.24802 1.1715,0.62696 6.6739,0.75054 14.6557,0.32915 14.6097,-0.77127 16.9515,-0.0944 23.3111,6.73781 3.6489,3.92006 4.6643,4.30268 8.6109,3.24455 z m -202.4017,-6.34188 c 0.4431,-0.41265 -0.5989,-1.33209 -2.3157,-2.04319 -2.6639,-1.10341 -3.3489,-1.06535 -4.674,0.25967 -2.2991,2.29913 -0.7037,3.98327 3.0293,3.1977 1.7351,-0.36514 3.5173,-1.00152 3.9604,-1.41418 z M 1178.7217,798.75 c 1.755,-1.90728 2.1478,-3.94758 2.5793,-13.39499 0.3402,-7.44835 0.1425,-11.5115 -0.596,-12.25 -1.6432,-1.64321 -5.2084,-1.33846 -7.5454,0.64499 -1.7764,1.50762 -2.0962,3.06575 -2.3086,11.25 -0.1927,7.42039 0.1306,10.21145 1.4769,12.75 2.0304,3.82885 3.5694,4.06954 6.3938,1 z m -13.9771,-1 c 0.5442,-0.6875 1.2282,-4.02426 1.5199,-7.41503 l 0.5304,-6.16504 -4.079,-3.278 c -4.2288,-3.39835 -9.3669,-4.25639 -12.0674,-2.0152 -1.4839,1.23155 -1.5125,16.67359 -0.034,18.11699 0.8382,0.81805 4.6647,1.49007 10.5126,1.84624 1.4451,0.088 3.0728,-0.40246 3.617,-1.08996 z m 116.2664,-3 c 1.5949,-2.61595 1.9823,-5.04308 1.9853,-12.44098 0,-6.21082 -0.3962,-9.43811 -1.2295,-9.95314 -1.7555,-1.08499 -22.9172,-1.22729 -25.0168,-0.16822 -1.5129,0.76312 -1.75,2.42922 -1.75,12.29783 0,9.81659 0.2451,11.55787 1.75,12.43441 0.9625,0.56061 6.3691,1.03297 12.0147,1.04969 L 1279.0294,798 Z M 502.8,788.8 c 2.46158,-2.46158 1.11337,-8.8 -1.87181,-8.8 -3.68111,0 -4.85942,7.05016 -1.54341,9.23469 1.53655,1.01225 2.03125,0.94928 3.41522,-0.43469 z m 348.45898,-7.40211 c 1.62435,-2.06502 2.57247,-2.29742 8.62627,-2.11436 5.97276,0.18061 7.28382,-0.12869 10.76179,-2.53893 3.22483,-2.23481 5.06494,-2.74714 9.90671,-2.75825 11.34969,-0.0261 13.27468,-2.35792 7.06923,-8.56337 l -3.37703,-3.37703 -15.72619,0.12844 c -14.95043,0.12209 -15.86388,0.24428 -18.51733,2.47702 C 847.93534,766.39075 845.98602,767 842.488,767 c -4.15332,0 -5.19179,0.46849 -8.60565,3.88235 -3.2373,3.23731 -3.88235,4.55824 -3.88235,7.95031 0,5.32197 1.29289,5.93542 11.2897,5.35671 7.01734,-0.40623 8.39689,-0.79251 9.96928,-2.79148 z M 902,781.16667 c 0,-2.35918 -0.84053,-3.16509 -2.59777,-2.49078 C 897.19011,779.52476 897.67053,783 900,783 c 1.27273,0 2,-0.66667 2,-1.83333 z m -100.2531,-18.3317 c 3.64095,-1.10794 6.2531,-4.20679 6.2531,-7.41819 0,-1.82292 -0.77411,-2.2425 -5.25,-2.84558 -2.8875,-0.38906 -6.375,-0.78925 -7.75,-0.88929 -1.375,-0.10005 -2.41406,-0.63191 -2.30902,-1.18191 0.25014,-1.30974 3.81723,-2.27623 8.85902,-2.40032 2.2275,-0.0548 4.59,-0.63968 5.25,-1.29968 1.74956,-1.74956 1.42857,-5.94497 -0.66293,-8.66453 l -1.81845,-2.36453 -32.28036,0.13032 c -17.75419,0.0717 -32.63332,0.34847 -33.06473,0.6151 -0.4314,0.26662 -10.72693,0.52186 -22.87895,0.5672 C 695.33575,737.16101 694,737.27725 694,739.00627 c 0,4.22234 9.51126,11.80423 13.1941,10.51765 2.38541,-0.83332 65.27019,-1.32244 67.3059,-0.52351 3.09416,1.21433 0.4435,1.75425 -11.83889,2.41146 -5.96139,0.31898 -11.22201,0.81675 -11.69028,1.10616 -1.30598,0.80714 0.85058,5.96557 3.55692,8.50804 2.27053,2.13305 3.40246,2.29275 18.61533,2.62631 8.90878,0.19534 16.37447,0.53183 16.59041,0.74777 0.57749,0.57749 8.26234,-0.42374 12.01341,-1.56518 z M 781,750.5 c -3.10159,-1.19442 -3.21542,-1.35525 -1,-1.41292 4.27608,-0.1113 9.98662,1.12556 9.42113,2.04054 -0.75611,1.22341 -4.30042,0.95926 -8.42113,-0.62762 z m -43.77793,11.63028 c 3.3423,-1.30096 4.73683,-5.59995 2.53182,-7.80496 -1.20697,-1.20697 -5.27974,-1.57784 -20.54424,-1.87074 -21.31698,-0.40905 -21.56445,-0.33577 -21.02418,6.22563 L 698.5,762.5 l 6,0.64912 c 8.40164,0.90894 29.45336,0.25347 32.72207,-1.01884 z M 1092.6576,755 c 3.2685,-3.66839 6.5515,-3.85598 8.7504,-0.5 2.0592,3.14264 2.6967,3.1242 6.6377,-0.19194 l 3.1992,-2.69194 1.961,2.69194 c 3.2514,4.46353 6.9443,3.6903 14.1604,-2.965 3.3736,-3.11132 6.5037,-6.59882 6.956,-7.75 0.4523,-1.15118 1.0332,-6.14306 1.291,-11.09306 1.4919,-28.65063 1.9738,-30.70465 6.1566,-26.23751 1.9499,2.08242 2.1082,3.48519 2.284,20.23751 0.2423,23.0854 0.2683,23.2173 4.8185,24.4812 1.9952,0.55421 4.9128,1.01016 6.4837,1.01322 1.8433,0.004 3.5465,0.88335 4.8033,2.48111 l 1.9473,2.47553 18.8003,-0.0719 c 10.3402,-0.0395 20.3287,-0.38306 22.1967,-0.76335 3.39,-0.69016 3.3975,-0.70446 4.019,-7.65362 0.3425,-3.8292 0.2141,-7.74968 -0.2852,-8.71218 -1.1506,-2.21787 -3.4571,-2.25208 -4.6786,-0.0694 -0.881,1.57414 -1.047,1.57414 -2.6212,0 -0.9243,-0.92433 -2.0471,-1.6806 -2.4952,-1.6806 -0.448,0 -1.6101,-1.67635 -2.5823,-3.72522 -0.9723,-2.04887 -2.3995,-4.35689 -3.1715,-5.12894 -0.786,-0.786 -1.1043,-2.11708 -0.7232,-3.02478 0.3743,-0.89158 1.1375,-2.97106 1.696,-4.62106 2.6503,-7.82963 0.6963,-7.10405 18.8747,-7.00883 22.1335,0.11594 22.609,0.44251 21.3499,14.66579 -0.7821,8.83515 -1.7065,9.84304 -9.0281,9.84304 -4.0323,0 -6.3586,2.84031 -7.1483,8.72736 -0.3808,2.83905 -0.01,4.42179 1.464,6.24154 1.9601,2.42054 2.1271,2.44093 23.3502,2.85039 20.0366,0.38657 21.5265,0.2904 23.7769,-1.53472 2.8324,-2.29727 2.4043,-5.99076 -1.0695,-9.22714 l -2.1445,-1.99792 2.6763,-3.862 c 2.6457,-3.81765 2.677,-4.06204 2.7281,-21.27976 0.028,-9.57976 -0.2432,-18.17825 -0.6037,-19.10776 -0.3605,-0.9295 -1.7426,-2.40238 -3.0715,-3.27305 -1.8843,-1.23466 -2.416,-2.45826 -2.416,-5.55999 0,-2.18732 -0.3375,-4.0252 -0.75,-4.08417 -1.427,-0.204 -21.7558,-1.00356 -23.25,-0.91446 -3.3361,0.19894 -9.2939,0.20991 -25.5,0.0469 -9.35,-0.094 -19.428,0.31259 -22.3955,0.9036 -3.8172,0.76023 -5.7708,0.76305 -6.6786,0.01 -0.7365,-0.61124 -5.7669,-1.04648 -11.8078,-1.02163 -5.7886,0.0238 -10.7566,-0.33197 -11.0401,-0.79061 -0.2834,-0.45865 -3.1169,-0.19636 -6.2967,0.58287 -6.3705,1.56115 -10.2813,4.89907 -10.2813,8.77521 0,1.30504 -0.7314,3.10423 -1.6254,3.9982 -1.5005,1.50052 -1.7547,1.48659 -3.3086,-0.18134 -0.9258,-0.9937 -1.6569,-3.09804 -1.6246,-4.6763 0.04,-1.95615 -0.7594,-3.48658 -2.5112,-4.80792 -2.2164,-1.67181 -2.9451,-1.76733 -5.2994,-0.69464 -2.1485,0.97892 -3.4408,0.98652 -6.0703,0.0357 -1.8373,-0.66439 -8.4318,-1.35926 -14.6543,-1.54414 -7.2994,-0.21688 -11.4483,-0.74024 -11.6932,-1.47503 -0.5299,-1.58955 -4.3297,-1.36516 -6.6541,0.39292 -1.0677,0.80751 -4.0152,1.4682 -6.55,1.4682 -2.5349,0 -5.1489,0.54 -5.8089,1.2 -1.6221,1.62211 -1.5171,5.2919 0.1919,6.71031 1.364,1.13196 2.8793,5.08969 1.9487,5.08969 -1.289,0 -5.1247,-2.63626 -7.4469,-5.1182 -2.5867,-2.76467 -2.6842,-2.7824 -13,-2.36383 -10.6338,0.43147 -19.4641,1.97796 -20.4558,3.58251 -0.3058,0.49474 -1.5542,0.89952 -2.7744,0.89952 -3.4044,0 -6.3871,2.61685 -7.6973,6.7531 -0.6528,2.0608 -1.7695,4.2153 -2.4817,4.78778 -2.2762,1.82986 -3.5389,8.97772 -2.9362,16.62198 0.8342,10.58064 1.139,11.54185 3.8789,12.22951 1.3445,0.33745 3.7109,2.4902 5.2587,4.78388 4.8036,7.1186 8.8857,8.65353 23.972,9.01381 l 12.9784,0.30994 6.7223,-6.82076 6.7223,-6.82077 0.6089,-11.36189 c 0.3349,-6.24905 0.9268,-11.87616 1.3152,-12.50471 0.8101,-1.3108 6.2973,3.38933 7.3162,6.26681 0.8393,2.37031 -0.733,6.20441 -4.3376,10.57737 -1.641,1.9908 -2.9979,4.75461 -3.0154,6.14179 -0.017,1.38719 -0.7034,3.41061 -1.5243,4.49649 -1.1213,1.48339 -1.3426,3.47267 -0.8897,8 0.8345,8.34335 0.9394,8.52567 4.9067,8.52567 2.6545,0 4.183,-0.73998 6.1967,-3 z m 205.3461,2 c 7.5361,0 7.7833,-0.0772 8.8088,-2.75 1.5045,-3.92141 2.3658,-14.35911 2.001,-24.25 -0.1724,-4.675 -0.2548,-16.4875 -0.1831,-26.25 l 0.1304,-17.75 h -10.2312 c -11.7606,0 -16.2864,1.18277 -17.1119,4.47206 -0.3137,1.24971 -0.4235,16.52156 -0.244,33.93744 0.3568,34.62967 0.2771,34.20384 6.2013,33.11763 1.5813,-0.28992 6.3642,-0.52713 10.6287,-0.52713 z M 685,756 c 0,-0.55 -0.45,-1 -1,-1 -0.55,0 -1,0.45 -1,1 0,0.55 0.45,1 1,1 0.55,0 1,-0.45 1,-1 z m 138.55385,-0.0871 c 1.16524,-1.8854 -1.26195,-3.40002 -3.0588,-1.90876 -1.26519,1.05001 -1.32488,1.48735 -0.29238,2.14231 1.75326,1.11217 2.55396,1.05637 3.35118,-0.23355 z m 205.44285,-3.40419 c 1.2127,-3.18975 0.3168,-5.50868 -2.1284,-5.50868 -1.096,0 -2.3029,-1.01285 -2.8164,-2.36362 -0.9375,-2.46569 -3.5778,-4.04745 -5.1421,-3.08061 -0.5004,0.30925 -0.9098,2.13607 -0.9098,4.05962 0,2.66412 0.7678,4.19866 3.2229,6.44098 3.9443,3.60258 6.5191,3.75239 7.7738,0.45231 z m -390.29444,-2.51473 c 3.41124,-1.70628 7.57374,-4.38349 9.25,-5.94935 2.63418,-2.4607 3.04774,-3.54609 3.04774,-7.99886 0,-3.84755 0.63293,-6.08328 2.5,-8.83093 3.25766,-4.79407 3.50348,-13.12363 0.5,-16.94194 -1.1,-1.39842 -2,-3.31438 -2,-4.25769 C 652,703.65883 646.31535,696 644.56639,696 c -0.78158,0 -4.36071,-1.53225 -7.9536,-3.40499 -4.65309,-2.42536 -8.05453,-3.46802 -11.82266,-3.62408 -9.80808,-0.4062 -10.56306,-0.18334 -15.34314,4.52907 -5.1569,5.08389 -9.19009,6.22503 -7.29409,2.06377 0.61051,-1.33993 0.87773,-3.04156 0.59383,-3.78141 -0.75128,-1.9578 -9.31456,-3.68829 -16.24673,-3.28318 -3.3,0.19285 -6.79048,0.38443 -7.75661,0.42573 -0.96614,0.0413 -2.71552,1.17793 -3.88751,2.52584 -1.172,1.34791 -3.42276,2.73448 -5.00171,3.08128 -3.64693,0.801 -4.85417,3.09282 -4.85417,9.21514 0,4.03962 0.47295,5.31556 2.75,7.41915 1.5125,1.39727 3.55735,2.82495 4.5441,3.17263 1.54182,0.54324 1.75275,1.65303 1.5,7.89236 l -0.2941,7.26023 -3.75,1.7621 c -3.24281,1.52377 -3.75,2.21786 -3.75,5.13178 0,3.54466 0.97703,4.74256 6.2619,7.67749 8.96785,4.98024 15.68029,6.20437 18.75639,3.42053 2.54037,-2.29899 2.50757,-4.89651 -0.1154,-9.14057 -2.21204,-3.57916 -4.12913,-17.35343 -1.99623,-14.34287 0.58449,0.825 1.06961,2.20906 1.07803,3.07569 0.008,0.86662 1.14537,2.63731 2.52655,3.93487 1.38118,1.29755 2.96725,4.05269 3.5246,6.12253 1.31137,4.87008 8.20665,11.50222 12.86768,12.37663 1.91956,0.36012 4.63905,1.56915 6.0433,2.68675 3.85435,3.06755 15.35028,2.00169 23.75544,-2.20252 z m 274.29679,1.96669 c 8.78473,-0.62416 14.95954,-1.50912 15.66744,-2.24541 0.74526,-0.77514 1.32741,-6.8064 1.60749,-16.65414 0.42894,-15.08151 0.3856,-15.49242 -1.87198,-17.75 -1.2711,-1.2711 -3.45655,-2.36734 -4.85655,-2.43609 C 918.65959,712.63507 916,711.23823 916,708.91206 c 0,-1.19725 0.96527,-2.11622 2.67306,-2.54485 2.14624,-0.53867 3.08979,-0.14826 4.78756,1.98095 2.46548,3.092 6.89327,3.54654 9.71064,0.99685 2.17802,-1.97108 2.48576,-8.55484 0.47778,-10.22132 -0.77204,-0.64073 -4.95022,-1.10276 -9.75,-1.07817 -4.61947,0.0237 -9.52404,-0.0236 -10.89904,-0.10502 -5.29738,-0.31373 -33.82947,1.83608 -35.14306,2.64792 -0.44335,0.274 -0.0853,2.29972 0.79575,4.50158 1.51377,3.78328 1.49891,4.07866 -0.27012,5.37221 -1.02958,0.75285 -4.99456,1.83227 -8.81107,2.39873 -10.03502,1.48941 -11.09895,0.36498 -4.09973,-4.33286 4.55753,-3.05899 7.20972,-6.61639 6.17772,-8.2862 -0.94921,-1.53585 -13.99565,-2.36577 -17.57503,-1.11799 -1.75604,0.61216 -6.11163,3.96088 -9.67908,7.4416 -3.56745,3.48072 -7.37264,6.60991 -8.45598,6.95374 -2.22424,0.70595 -7.15992,-1.99615 -10.88077,-5.95682 C 823.32319,705.71511 821.62696,705 818.98067,705 c -4.09297,0 -5.98529,1.60517 -8.25221,7 -2.33498,5.5568 -5.75598,8.04054 -12.29739,8.92823 -4.52417,0.61395 -6.30887,1.39096 -8.17325,3.55842 -2.26985,2.63886 -2.7148,2.74939 -9.19995,2.28538 -3.74811,-0.26818 -7.54445,-0.0792 -8.43631,0.41988 -1.74191,0.97482 -2.20155,4.3316 -0.71861,5.24811 1.81174,1.11972 53.05047,1.65528 55.0679,0.57558 1.07867,-0.57729 2.44263,-2.83743 3.03102,-5.02255 0.80293,-2.98186 1.70277,-4.1318 3.60718,-4.60978 1.39556,-0.35026 2.92537,-0.24229 3.39958,0.23995 0.47421,0.48223 1.11542,5.82421 1.4249,11.87106 0.50457,9.85839 0.79536,11.17598 2.81459,12.75298 3.22181,2.5162 6.52271,3.17819 9.37267,1.87966 3.56335,-1.62357 7.56296,-1.38811 10.4067,0.61266 1.903,1.33888 5.35174,1.86428 14.97251,2.28097 13.28101,0.57523 14.46126,0.54142 36.99905,-1.05991 z M 853.25,740.34923 c -1.87957,-0.77573 -1.50209,-5.05553 0.57705,-6.54253 1.00488,-0.71868 2.35584,-2.2067 3.00213,-3.3067 0.97777,-1.66419 1.13274,-0.99419 0.92295,3.99028 -0.25313,6.01399 -1.18574,7.22767 -4.50213,5.85895 z m 154.8555,2.14131 c 0.8428,-9.73023 -0.2267,-52.44744 -1.3302,-53.12944 -0.4976,-0.3075 -4.3631,-0.79392 -8.58998,-1.08093 -6.63215,-0.45033 -8.01651,-0.25256 -10.10208,1.44323 -4.01644,3.26579 -2.24676,5.0766 4.96129,5.0766 7.95427,0 9.26617,1.24423 9.44977,8.9622 0.076,3.20941 0.4746,6.37847 0.8849,7.04237 C 1004.6944,712.93255 1001.8384,719 999.52162,719 996.59915,719 993,716.2406 993,714 c 0,-2.83533 -3.89028,-5 -8.98585,-5 -3.559,0 -5.69954,0.78031 -9.89956,3.60877 -2.9473,1.98482 -5.58851,4.4875 -5.86937,5.56151 -0.41399,1.58309 -0.84826,1.19866 -2.29414,-2.03081 -0.98092,-2.19096 -2.92051,-4.72856 -4.3102,-5.63912 -3.24545,-2.1265 -14.92318,-2.50232 -19.39088,-0.62405 l -3.25,1.36634 v 12.81358 C 939,737.76729 939.88223,742 942.74006,742 c 0.98426,0 3.55751,0.94757 5.71834,2.1057 4.95233,2.65429 10.26954,2.10193 15.07904,-1.56646 C 966.34755,740.39587 967,739.22563 967,736.32879 v -3.56943 l 4.42119,5.87032 c 7.04338,9.35198 7.06786,9.37032 12.50623,9.37032 4.13942,0 5.26083,-0.42386 7.01223,-2.65041 1.14665,-1.45773 2.36342,-4.3927 2.70394,-6.52217 0.78127,-4.8858 2.0635,-5.72804 3.39375,-2.22922 0.56847,1.4952 2.36763,4.23794 3.99816,6.09497 1.6305,1.85703 2.9645,4.29376 2.9645,5.41495 0,1.40156 0.5468,1.93455 1.75,1.70575 1.3948,-0.26525 1.8729,-1.75153 2.3555,-7.32333 z m -460.32801,4.95276 c 1.37135,-0.96053 2.21665,-2.58817 2.2072,-4.25 -0.0198,-3.47262 -0.81824,-4.4947 -4.47383,-5.72655 -2.65693,-0.89533 -3.07411,-1.59766 -3.75362,-6.31933 -0.90728,-6.30428 0.29982,-9.77784 2.1782,-6.26805 0.64733,1.20955 1.03918,3.19401 0.87076,4.40991 -0.4708,3.39907 3.12647,3.29526 6.9438,-0.2004 4.29041,-3.92888 4.4528,-9.07426 0.43907,-13.91214 -2.30844,-2.78244 -3.19912,-3.21232 -5.4731,-2.64159 -2.22094,0.55742 -2.7231,1.25427 -2.75511,3.82326 l -0.0391,3.14159 -1.47641,-3.40179 c -1.31106,-3.0208 -1.30409,-3.66479 0.0622,-5.75 0.84623,-1.29152 2.21552,-2.34821 3.04285,-2.34821 2.21354,0 10.41297,-9.14768 10.43271,-11.63922 0.0343,-4.3316 -3.18753,-6.67562 -9.83665,-7.15657 -7.65083,-0.55341 -11.22934,0.85008 -15.31258,6.0056 l -3.13029,3.95231 0.20297,12.50043 c 0.31711,19.52959 0.93499,28.11305 2.16321,30.05076 3.95834,6.24491 12.86013,9.12541 17.70777,5.72999 z m 124.0421,-4.84798 c 0.47442,-5.79646 -0.46246,-8.20475 -3.71614,-9.55247 -2.1817,-0.90369 -3.45169,-0.92685 -5.01272,-0.0914 -1.79264,0.95939 -2.09073,2.04811 -2.09073,7.636 v 6.51708 l 5.25,-0.30226 5.25,-0.30226 z m 84.71253,-9.04429 c 3.77288,-1.57642 4.37838,-3.76315 1.93608,-6.99216 -1.93114,-2.55319 -1.87475,-8.00947 0.10323,-9.98744 0.86428,-0.86429 2.85999,-1.57143 4.4349,-1.57143 1.57491,0 4.0463,-0.44971 5.49198,-0.99936 2.18497,-0.83072 2.57562,-1.52968 2.3151,-4.14217 -0.28909,-2.89891 -0.74026,-3.25332 -5.81341,-4.56658 -4.00503,-1.03676 -6.85906,-1.176 -10.5,-0.51228 -2.75,0.5013 -7.148,0.70983 -9.77334,0.46338 -9.59941,-0.90113 -11.77634,1.34689 -7.7304,7.98284 1.45781,2.39102 1.99727,5.04331 2,9.83304 0.005,8.03436 1.30321,10.03976 7.11001,10.97964 6.62264,1.07192 6.70262,1.06818 10.42585,-0.48748 z m 462.92518,-7.13322 c 4.1498,-4.69963 4.3417,-6.09665 1.0439,-7.59924 -1.9025,-0.8668 -3.7906,-0.82869 -7.9105,0.15967 -4.8137,1.15479 -5.6014,1.71898 -7.1288,5.10622 -2.6263,5.82409 -1.5494,7.25338 5.0527,6.70589 4.8663,-0.40356 5.8726,-0.89557 8.9427,-4.37254 z m -653.37894,-1.56424 c 1.47053,-2.74771 0.60841,-10.59538 -1.38272,-12.58651 -1.36908,-1.36907 -1.8037,-1.24991 -4.207,1.15339 -3.02353,3.02353 -2.85377,5.85366 0.64594,10.76856 2.40124,3.37222 3.42131,3.50934 4.94378,0.66456 z m 147.88646,-0.78783 C 714.53417,723.0019 715,719.86773 715,717.10093 715,711.38136 713.56691,710 707.63313,710 c -3.83962,0 -4.23805,0.60442 -5.13204,7.78545 C 701.71815,724.07443 703.12435,726 708.5,726 c 3.35599,0 4.68054,-0.46882 5.46482,-1.93426 z m -22.54661,0.32727 c 0.86999,-0.33384 1.58179,-1.68384 1.58179,-3 0,-5.21483 -7.71313,-8.66607 -9.96482,-4.45875 -1.6439,3.07167 -1.27221,3.89283 2.71482,5.99765 4.50445,2.37799 3.77132,2.18901 5.66821,1.4611 z m -19.66792,-5.14248 c 0.54676,-1.64213 -2.58648,-2.81434 -3.93038,-1.47044 -0.5751,0.5751 -0.7279,1.55977 -0.33954,2.18815 0.88355,1.42961 3.71332,0.95397 4.26992,-0.71771 z m 5.00134,-10.22502 c 2.46173,-1.82004 4.28073,-2.12379 12.90178,-2.1544 15.88462,-0.0564 26.48649,1.12939 29.23145,3.26952 2.55247,1.99005 6.70054,2.40735 9.06439,0.9119 1.84069,-1.16449 2.18756,-19.30854 0.40332,-21.09715 -0.80792,-0.8099 -8.20522,-1.11404 -25,-1.02788 -22.13164,0.11353 -24.04974,0.2661 -26.58536,2.11464 -2.73103,1.991 -2.73408,1.99099 -4.75,-0.0249 C 670.78111,689.78111 668.67639,689 666.58179,689 660.77606,689 660,689.7124 660,695.04189 c 0,5.75154 1.07995,8.8853 4.69565,13.62574 2.34491,3.07432 3.1133,3.46278 5.9417,3.00379 1.78668,-0.28993 4.53811,-1.4806 6.11428,-2.64591 z m 348.76327,-8.14632 c 4.6065,-2.43964 9.7577,-11.00658 7.7971,-12.96721 -1.3797,-1.3797 -16.7,0.33522 -18.8367,2.10854 -1.9722,1.63678 -1.8682,5.96038 0.2167,9.00697 3.2062,4.68504 4.9196,4.97819 10.8229,1.8517 z m -212.3854,-3.32122 c 3.09893,-2.10578 4.35577,-2.36338 9.12784,-1.87086 4.78684,0.49405 5.67375,0.31017 6.56859,-1.36185 0.56898,-1.06316 0.70518,-2.46591 0.30265,-3.11722 -0.66408,-1.07449 -17.39181,-2.75551 -22.62858,-2.27401 -1.1,0.10114 -12.43994,0.26986 -25.19987,0.37493 -23.97683,0.19744 -25.86462,0.52308 -25.1299,4.33482 0.33631,1.74478 1.79778,1.85974 24.34378,1.91486 13.1923,0.0322 24.49601,0.14475 25.11936,0.25 0.62335,0.10525 1.36872,1.09136 1.65638,2.19136 0.67494,2.58098 1.48075,2.51999 5.83975,-0.44203 z m 41.46574,-3.06298 C 857.22616,690.4797 855.14792,689 846.87756,689 c -3.78266,0 -6.8837,0.3375 -6.89121,0.75 -0.008,0.4125 -0.285,1.7625 -0.61664,3 -0.54721,2.04191 -0.24537,2.2565 3.26366,2.32029 2.12665,0.0386 4.76663,0.45702 5.86663,0.92971 3.26796,1.40429 4.36676,1.13298 6.09524,-1.50501 z M 924,692.59301 c 0,-1.20615 0.5325,-2.72551 1.18333,-3.37634 1.66058,-1.66058 0.87852,-2.00295 -3.36528,-1.47329 -3.92621,0.49003 -5.00644,1.82021 -4.14703,5.10661 0.96926,3.70644 6.32898,3.48882 6.32898,-0.25698 z m -32,-0.68341 c 0,-2.34043 -2.66951,-3.64009 -4.24359,-2.06601 -0.8122,0.8122 -0.62456,1.64462 0.70087,3.1092 2.06408,2.28079 3.54272,1.84539 3.54272,-1.04319 z m 17.29145,0.3461 C 909.95806,688.76857 909.45393,688 906.5,688 c -2.94431,0 -3.87328,1.3766 -3.07509,4.55684 0.90855,3.61995 5.15868,3.40179 5.86654,-0.30114 z M 939.5,691.4863 c 0,-3.29892 -2.1053,-4.05913 -3.80016,-1.37222 -1.38277,2.19214 -0.11013,5.11158 2.04714,4.69613 1.20398,-0.23186 1.75302,-1.2729 1.75302,-3.32391 z" id="path1" transform="translate(-40,-60) rotate(60,900,900)"/>
	</svg>
	<!-- MA, text position adjusts to account for any overlined/underlined text. -->
	<svg x="3.00" y="46.00" width="54.00" height="11.00" style="overflow:visible">
		<text x="0.00" y="100.00%" dominant-baseline="auto" text-anchor="start" style="font-size:12.00px;font-weight:bold;font-family:Nimbus Sans L;fill:white">75<tspan style="font-size:6px;font-weight:bold;font-family:Nimbus Sans L" baseline-shift="super">&#x273D;</tspan></text>
		<line x1="0.00" y1="0%" x2="11.50" y2="0%" style="stroke:white;stroke-width:1.00"/> <!-- overline -->
	</svg>
	<!-- ROF -->
	<svg x="3.00" y="32.28" width="11.22" height="11.22" style="overflow:visible">
		<text x="50%" y="75%" dominant-baseline="auto" text-anchor="middle"><tspan style="font-size:8.40px;font-weight:bold;font-family:Nimbus Sans L;font-family:Nimbus Sans L;fill:white;fill-opacity:1;stroke-width:0.2">1</tspan></text>
		<rect x="0.25" y="0.25" width="10.72" height="10.72" style="display:inline;fill:none;fill-opacity:1;stroke:white;stroke-width:0.50px;stroke-dasharray:none;stroke-opacity:1"/>
	</svg>
	<!-- Front Armor -->
	<svg x="40.00" y="15.00" width="18.00" height="12.00" style="overflow:visible">
		<text x="66%" y="79%" dominant-baseline="auto" text-anchor="middle"><tspan style="font-size:9.50px;font-weight:bold;font-family:Nimbus Sans L;fill:white;fill-opacity:1;stroke:none;stroke-width:0.5">6</tspan></text>
	</svg>
	<!-- Side/Rear Armor -->
	<svg x="40.00" y="26.00" width="18.00" height="12.00" style="overflow:visible">
		<text x="66%" y="79%" dominant-baseline="auto" text-anchor="middle"><tspan style="font-size:9.50px;font-weight:bold;font-family:Nimbus Sans L;fill:white;fill-opacity:1;stroke:none;stroke-width:0.2">3</tspan></text>
		<rect x="7.00" y="1.00" width="10.50" height="10.50" style="display:inline;fill:none;fill-opacity:0.0;stroke:white;stroke-width:0.75;stroke-dasharray:none;stroke-opacity:1"/> <!-- Superior Turret Armor -->
	</svg>
	<!-- Machine guns -->
	<svg x="21.00" y="49.40" width="36.00" height="9.60" style="overflow:visible">
		<text x="100%" y="80%" dominant-baseline="auto" text-anchor="end"><tspan style="font-size:9.50px;font-weight:bold;font-family:Nimbus Sans L;fill:white;fill-opacity:1;stroke-width:0.2">3/5/2</tspan></text>
	</svg>
	<!-- Movement -->
	<svg x="30.00" y="3.00" width="27.00" height="12.00" style="overflow:visible">
		<rect x="6.00" width="21.00" height="12.00" y="0.00" ry="6.00" style="display:inline;fill:#b4b4b4;fill-opacity:1;stroke:none;stroke-width:1;stroke-dasharray:none;stroke-opacity:1"></rect>
		<text x="97%" y="84.00%" dominant-baseline="auto" text-anchor="end" style="font-size:11.00px;font-weight:bold;font-family:Nimbus Sans L;fill:black">13</text>
	</svg>
	<text id="name" x="38" y="26" style="font-size:5.00px;font-style:normal;font-variant:normal;font-weight:bold;font-stretch:normal;text-anchor:middle;fill:white;fill-opacity:1;font-family:Nimbus Sans L" transform="rotate(60,38,26)">Pz IIIN</text>
</svg>
