<?xml version="1.0" encoding="UTF-8" standalone="no"?>
<svg
   xmlns:svg="http://www.w3.org/2000/svg"
   xmlns="http://www.w3.org/2000/svg" 
   xmlns:xlink="http://www.w3.org/1999/xlink"
   width="48" height="48">
<g id="pf45" transform="translate(8,9) rotate(5,8,44)">
  <polygon id="charge" points="0.7439,0 1.7713,1.417 2.0547,2.4089 -2.0547,2.4089 -1.7713,1.417 -0.7439,0" style="stroke:black;stroke-width:0.2;fill:#3c3c3c" />
  <polygon id="head" points="2.0547,2.4089 2.0547,2.6923 1.0628,7.2267 0.7085,7.7935  0.5668,10.9109 -0.5668,10.9109 -1.0628,7.2267 -2.0547,2.6923 -2.0547,2.4089" style="stroke:none;fill:#2f2f2f" />
  <polygon id="tube" points="0.5668,10.9109 0.5668,34.7166 -0.5668,34.7166 -0.5668,10.9109" style="stroke:black;stroke-width:0.2;fill:none" />
  <polygon id="midband" points="0.5668,17.004 0.5668,20.1215 -0.5668,20.1215 -0.5668,17.004" style="stroke:none;fill:#4c4c4c" />
  <line x1="0.5668" y1="25.3644" x2="-0.5668" y2="25.3644" style="stroke:black;stroke-width:0.2" />
  <polygon id="endband" points="0.5668,25.9312 0.5668,27.6316 -0.5668,27.6316 -0.5668,25.9312" style="stroke:none;fill:#4c4c4c" />
  <polygon id="trigger" points="0.5668,7.7935 1.8421,11.336 2.2672,11.9028 1.1336,18.7045 0.5668,18.7045 0.5668,13.0364 0.9919,14.4534 1.7004,12.0445 0.5668,12.0445" style="stroke:none;fill:black" />
  <line x1="0.1889" y1="10.9109" x2="0.1889" y2="15.8704" style="stroke:black;stroke-width:0.2" />
  <line x1="-0.1889" y1="10.9109" x2="-0.1889" y2="15.8704" style="stroke:black;stroke-width:0.2" />
  <line x1="0.5668" y1="15.8704" x2="-0.5668" y2="15.8704" style="stroke:black;stroke-width:0.3" />


</g>
<g id="PFtext">
  <text style="font-size:11px;font-style:normal;font-variant:normal;font-weight:bold;font-stretch:normal;text-anchor:end;fill:black;fill-opacity:1;font-family:Nimbus Sans L" x="44.5" y="12" >PF</text>
  <text style="font-size:11px;font-style:normal;font-variant:normal;font-weight:bold;font-stretch:normal;text-anchor:end;fill:black;fill-opacity:1;font-family:Nimbus Sans L" x="44.5" y="44" >16-3</text>
  <text style="font-size:7px;font-style:normal;font-variant:normal;font-weight:bold;font-stretch:normal;text-anchor:end;fill:black;fill-opacity:1;font-family:Nimbus Sans L" x="44.5" y="34.5" >31TK</text>
  <text style="font-size:6px;font-style:normal;font-variant:normal;font-weight:bold;font-stretch:normal;text-anchor:end;fill:black;fill-opacity:1;font-family:Nimbus Sans L" x="44.5" y="18.5" >1/45+</text>

 </g>
</svg>
